%TF.GenerationSoftware,KiCad,Pcbnew,(5.1.9)-1*%
%TF.CreationDate,2021-06-05T13:50:50-03:00*%
%TF.ProjectId,Themu-Main,5468656d-752d-44d6-9169-6e2e6b696361,02*%
%TF.SameCoordinates,Original*%
%TF.FileFunction,Copper,L2,Bot*%
%TF.FilePolarity,Positive*%
%FSLAX46Y46*%
G04 Gerber Fmt 4.6, Leading zero omitted, Abs format (unit mm)*
G04 Created by KiCad (PCBNEW (5.1.9)-1) date 2021-06-05 13:50:50*
%MOMM*%
%LPD*%
G01*
G04 APERTURE LIST*
%TA.AperFunction,ComponentPad*%
%ADD10O,1.900000X1.200000*%
%TD*%
%TA.AperFunction,ComponentPad*%
%ADD11C,1.450000*%
%TD*%
%TA.AperFunction,ComponentPad*%
%ADD12O,1.200000X1.750000*%
%TD*%
%TA.AperFunction,ComponentPad*%
%ADD13O,1.700000X1.700000*%
%TD*%
%TA.AperFunction,ComponentPad*%
%ADD14R,1.700000X1.700000*%
%TD*%
%TA.AperFunction,ViaPad*%
%ADD15C,0.800000*%
%TD*%
%TA.AperFunction,Conductor*%
%ADD16C,0.152400*%
%TD*%
%TA.AperFunction,Conductor*%
%ADD17C,0.250000*%
%TD*%
%TA.AperFunction,Conductor*%
%ADD18C,0.100000*%
%TD*%
G04 APERTURE END LIST*
D10*
%TO.P,J1,6*%
%TO.N,GND*%
X46387500Y-99385000D03*
X46387500Y-92385000D03*
D11*
X49087500Y-98385000D03*
X49087500Y-93385000D03*
%TD*%
D12*
%TO.P,J2,2*%
%TO.N,GND*%
X46895000Y-80645000D03*
%TO.P,J2,1*%
%TO.N,+BATT*%
%TA.AperFunction,ComponentPad*%
G36*
G01*
X49495000Y-80019999D02*
X49495000Y-81270001D01*
G75*
G02*
X49245001Y-81520000I-249999J0D01*
G01*
X48544999Y-81520000D01*
G75*
G02*
X48295000Y-81270001I0J249999D01*
G01*
X48295000Y-80019999D01*
G75*
G02*
X48544999Y-79770000I249999J0D01*
G01*
X49245001Y-79770000D01*
G75*
G02*
X49495000Y-80019999I0J-249999D01*
G01*
G37*
%TD.AperFunction*%
%TD*%
%TO.P,R21,2*%
%TO.N,Net-(D3-Pad1)*%
%TA.AperFunction,SMDPad,CuDef*%
G36*
G01*
X71517500Y-90520000D02*
X71992500Y-90520000D01*
G75*
G02*
X72230000Y-90757500I0J-237500D01*
G01*
X72230000Y-91332500D01*
G75*
G02*
X71992500Y-91570000I-237500J0D01*
G01*
X71517500Y-91570000D01*
G75*
G02*
X71280000Y-91332500I0J237500D01*
G01*
X71280000Y-90757500D01*
G75*
G02*
X71517500Y-90520000I237500J0D01*
G01*
G37*
%TD.AperFunction*%
%TO.P,R21,1*%
%TO.N,/ESP32-WROOM-32/IO27*%
%TA.AperFunction,SMDPad,CuDef*%
G36*
G01*
X71517500Y-88770000D02*
X71992500Y-88770000D01*
G75*
G02*
X72230000Y-89007500I0J-237500D01*
G01*
X72230000Y-89582500D01*
G75*
G02*
X71992500Y-89820000I-237500J0D01*
G01*
X71517500Y-89820000D01*
G75*
G02*
X71280000Y-89582500I0J237500D01*
G01*
X71280000Y-89007500D01*
G75*
G02*
X71517500Y-88770000I237500J0D01*
G01*
G37*
%TD.AperFunction*%
%TD*%
%TO.P,R20,2*%
%TO.N,Net-(D3-Pad4)*%
%TA.AperFunction,SMDPad,CuDef*%
G36*
G01*
X73422500Y-90520000D02*
X73897500Y-90520000D01*
G75*
G02*
X74135000Y-90757500I0J-237500D01*
G01*
X74135000Y-91332500D01*
G75*
G02*
X73897500Y-91570000I-237500J0D01*
G01*
X73422500Y-91570000D01*
G75*
G02*
X73185000Y-91332500I0J237500D01*
G01*
X73185000Y-90757500D01*
G75*
G02*
X73422500Y-90520000I237500J0D01*
G01*
G37*
%TD.AperFunction*%
%TO.P,R20,1*%
%TO.N,/ESP32-WROOM-32/IO26*%
%TA.AperFunction,SMDPad,CuDef*%
G36*
G01*
X73422500Y-88770000D02*
X73897500Y-88770000D01*
G75*
G02*
X74135000Y-89007500I0J-237500D01*
G01*
X74135000Y-89582500D01*
G75*
G02*
X73897500Y-89820000I-237500J0D01*
G01*
X73422500Y-89820000D01*
G75*
G02*
X73185000Y-89582500I0J237500D01*
G01*
X73185000Y-89007500D01*
G75*
G02*
X73422500Y-88770000I237500J0D01*
G01*
G37*
%TD.AperFunction*%
%TD*%
%TO.P,R3,2*%
%TO.N,Net-(D3-Pad3)*%
%TA.AperFunction,SMDPad,CuDef*%
G36*
G01*
X69612500Y-90520000D02*
X70087500Y-90520000D01*
G75*
G02*
X70325000Y-90757500I0J-237500D01*
G01*
X70325000Y-91332500D01*
G75*
G02*
X70087500Y-91570000I-237500J0D01*
G01*
X69612500Y-91570000D01*
G75*
G02*
X69375000Y-91332500I0J237500D01*
G01*
X69375000Y-90757500D01*
G75*
G02*
X69612500Y-90520000I237500J0D01*
G01*
G37*
%TD.AperFunction*%
%TO.P,R3,1*%
%TO.N,/ESP32-WROOM-32/IO12*%
%TA.AperFunction,SMDPad,CuDef*%
G36*
G01*
X69612500Y-88770000D02*
X70087500Y-88770000D01*
G75*
G02*
X70325000Y-89007500I0J-237500D01*
G01*
X70325000Y-89582500D01*
G75*
G02*
X70087500Y-89820000I-237500J0D01*
G01*
X69612500Y-89820000D01*
G75*
G02*
X69375000Y-89582500I0J237500D01*
G01*
X69375000Y-89007500D01*
G75*
G02*
X69612500Y-88770000I237500J0D01*
G01*
G37*
%TD.AperFunction*%
%TD*%
%TO.P,C5,2*%
%TO.N,GND*%
%TA.AperFunction,SMDPad,CuDef*%
G36*
G01*
X86757500Y-90520000D02*
X87232500Y-90520000D01*
G75*
G02*
X87470000Y-90757500I0J-237500D01*
G01*
X87470000Y-91332500D01*
G75*
G02*
X87232500Y-91570000I-237500J0D01*
G01*
X86757500Y-91570000D01*
G75*
G02*
X86520000Y-91332500I0J237500D01*
G01*
X86520000Y-90757500D01*
G75*
G02*
X86757500Y-90520000I237500J0D01*
G01*
G37*
%TD.AperFunction*%
%TO.P,C5,1*%
%TO.N,/ESP32-WROOM-32/EN*%
%TA.AperFunction,SMDPad,CuDef*%
G36*
G01*
X86757500Y-88770000D02*
X87232500Y-88770000D01*
G75*
G02*
X87470000Y-89007500I0J-237500D01*
G01*
X87470000Y-89582500D01*
G75*
G02*
X87232500Y-89820000I-237500J0D01*
G01*
X86757500Y-89820000D01*
G75*
G02*
X86520000Y-89582500I0J237500D01*
G01*
X86520000Y-89007500D01*
G75*
G02*
X86757500Y-88770000I237500J0D01*
G01*
G37*
%TD.AperFunction*%
%TD*%
%TO.P,C6,2*%
%TO.N,GND*%
%TA.AperFunction,SMDPad,CuDef*%
G36*
G01*
X85327500Y-84105000D02*
X84852500Y-84105000D01*
G75*
G02*
X84615000Y-83867500I0J237500D01*
G01*
X84615000Y-83292500D01*
G75*
G02*
X84852500Y-83055000I237500J0D01*
G01*
X85327500Y-83055000D01*
G75*
G02*
X85565000Y-83292500I0J-237500D01*
G01*
X85565000Y-83867500D01*
G75*
G02*
X85327500Y-84105000I-237500J0D01*
G01*
G37*
%TD.AperFunction*%
%TO.P,C6,1*%
%TO.N,+3V3*%
%TA.AperFunction,SMDPad,CuDef*%
G36*
G01*
X85327500Y-85855000D02*
X84852500Y-85855000D01*
G75*
G02*
X84615000Y-85617500I0J237500D01*
G01*
X84615000Y-85042500D01*
G75*
G02*
X84852500Y-84805000I237500J0D01*
G01*
X85327500Y-84805000D01*
G75*
G02*
X85565000Y-85042500I0J-237500D01*
G01*
X85565000Y-85617500D01*
G75*
G02*
X85327500Y-85855000I-237500J0D01*
G01*
G37*
%TD.AperFunction*%
%TD*%
%TO.P,C7,1*%
%TO.N,+3V3*%
%TA.AperFunction,SMDPad,CuDef*%
G36*
G01*
X87232500Y-85855000D02*
X86757500Y-85855000D01*
G75*
G02*
X86520000Y-85617500I0J237500D01*
G01*
X86520000Y-85042500D01*
G75*
G02*
X86757500Y-84805000I237500J0D01*
G01*
X87232500Y-84805000D01*
G75*
G02*
X87470000Y-85042500I0J-237500D01*
G01*
X87470000Y-85617500D01*
G75*
G02*
X87232500Y-85855000I-237500J0D01*
G01*
G37*
%TD.AperFunction*%
%TO.P,C7,2*%
%TO.N,GND*%
%TA.AperFunction,SMDPad,CuDef*%
G36*
G01*
X87232500Y-84105000D02*
X86757500Y-84105000D01*
G75*
G02*
X86520000Y-83867500I0J237500D01*
G01*
X86520000Y-83292500D01*
G75*
G02*
X86757500Y-83055000I237500J0D01*
G01*
X87232500Y-83055000D01*
G75*
G02*
X87470000Y-83292500I0J-237500D01*
G01*
X87470000Y-83867500D01*
G75*
G02*
X87232500Y-84105000I-237500J0D01*
G01*
G37*
%TD.AperFunction*%
%TD*%
%TO.P,C9,2*%
%TO.N,GND*%
%TA.AperFunction,SMDPad,CuDef*%
G36*
G01*
X71992500Y-84105000D02*
X71517500Y-84105000D01*
G75*
G02*
X71280000Y-83867500I0J237500D01*
G01*
X71280000Y-83292500D01*
G75*
G02*
X71517500Y-83055000I237500J0D01*
G01*
X71992500Y-83055000D01*
G75*
G02*
X72230000Y-83292500I0J-237500D01*
G01*
X72230000Y-83867500D01*
G75*
G02*
X71992500Y-84105000I-237500J0D01*
G01*
G37*
%TD.AperFunction*%
%TO.P,C9,1*%
%TO.N,/ESP32-WROOM-32/BTN*%
%TA.AperFunction,SMDPad,CuDef*%
G36*
G01*
X71992500Y-85855000D02*
X71517500Y-85855000D01*
G75*
G02*
X71280000Y-85617500I0J237500D01*
G01*
X71280000Y-85042500D01*
G75*
G02*
X71517500Y-84805000I237500J0D01*
G01*
X71992500Y-84805000D01*
G75*
G02*
X72230000Y-85042500I0J-237500D01*
G01*
X72230000Y-85617500D01*
G75*
G02*
X71992500Y-85855000I-237500J0D01*
G01*
G37*
%TD.AperFunction*%
%TD*%
%TO.P,C10,1*%
%TO.N,/Peripherials/REGOUT*%
%TA.AperFunction,SMDPad,CuDef*%
G36*
G01*
X84852500Y-94485000D02*
X85327500Y-94485000D01*
G75*
G02*
X85565000Y-94722500I0J-237500D01*
G01*
X85565000Y-95297500D01*
G75*
G02*
X85327500Y-95535000I-237500J0D01*
G01*
X84852500Y-95535000D01*
G75*
G02*
X84615000Y-95297500I0J237500D01*
G01*
X84615000Y-94722500D01*
G75*
G02*
X84852500Y-94485000I237500J0D01*
G01*
G37*
%TD.AperFunction*%
%TO.P,C10,2*%
%TO.N,GND*%
%TA.AperFunction,SMDPad,CuDef*%
G36*
G01*
X84852500Y-96235000D02*
X85327500Y-96235000D01*
G75*
G02*
X85565000Y-96472500I0J-237500D01*
G01*
X85565000Y-97047500D01*
G75*
G02*
X85327500Y-97285000I-237500J0D01*
G01*
X84852500Y-97285000D01*
G75*
G02*
X84615000Y-97047500I0J237500D01*
G01*
X84615000Y-96472500D01*
G75*
G02*
X84852500Y-96235000I237500J0D01*
G01*
G37*
%TD.AperFunction*%
%TD*%
%TO.P,C11,2*%
%TO.N,GND*%
%TA.AperFunction,SMDPad,CuDef*%
G36*
G01*
X82947500Y-96235000D02*
X83422500Y-96235000D01*
G75*
G02*
X83660000Y-96472500I0J-237500D01*
G01*
X83660000Y-97047500D01*
G75*
G02*
X83422500Y-97285000I-237500J0D01*
G01*
X82947500Y-97285000D01*
G75*
G02*
X82710000Y-97047500I0J237500D01*
G01*
X82710000Y-96472500D01*
G75*
G02*
X82947500Y-96235000I237500J0D01*
G01*
G37*
%TD.AperFunction*%
%TO.P,C11,1*%
%TO.N,+3V3*%
%TA.AperFunction,SMDPad,CuDef*%
G36*
G01*
X82947500Y-94485000D02*
X83422500Y-94485000D01*
G75*
G02*
X83660000Y-94722500I0J-237500D01*
G01*
X83660000Y-95297500D01*
G75*
G02*
X83422500Y-95535000I-237500J0D01*
G01*
X82947500Y-95535000D01*
G75*
G02*
X82710000Y-95297500I0J237500D01*
G01*
X82710000Y-94722500D01*
G75*
G02*
X82947500Y-94485000I237500J0D01*
G01*
G37*
%TD.AperFunction*%
%TD*%
%TO.P,C12,1*%
%TO.N,+3V3*%
%TA.AperFunction,SMDPad,CuDef*%
G36*
G01*
X81042500Y-94485000D02*
X81517500Y-94485000D01*
G75*
G02*
X81755000Y-94722500I0J-237500D01*
G01*
X81755000Y-95297500D01*
G75*
G02*
X81517500Y-95535000I-237500J0D01*
G01*
X81042500Y-95535000D01*
G75*
G02*
X80805000Y-95297500I0J237500D01*
G01*
X80805000Y-94722500D01*
G75*
G02*
X81042500Y-94485000I237500J0D01*
G01*
G37*
%TD.AperFunction*%
%TO.P,C12,2*%
%TO.N,GND*%
%TA.AperFunction,SMDPad,CuDef*%
G36*
G01*
X81042500Y-96235000D02*
X81517500Y-96235000D01*
G75*
G02*
X81755000Y-96472500I0J-237500D01*
G01*
X81755000Y-97047500D01*
G75*
G02*
X81517500Y-97285000I-237500J0D01*
G01*
X81042500Y-97285000D01*
G75*
G02*
X80805000Y-97047500I0J237500D01*
G01*
X80805000Y-96472500D01*
G75*
G02*
X81042500Y-96235000I237500J0D01*
G01*
G37*
%TD.AperFunction*%
%TD*%
%TO.P,C13,1*%
%TO.N,Net-(C13-Pad1)*%
%TA.AperFunction,SMDPad,CuDef*%
G36*
G01*
X68182500Y-97285000D02*
X67707500Y-97285000D01*
G75*
G02*
X67470000Y-97047500I0J237500D01*
G01*
X67470000Y-96472500D01*
G75*
G02*
X67707500Y-96235000I237500J0D01*
G01*
X68182500Y-96235000D01*
G75*
G02*
X68420000Y-96472500I0J-237500D01*
G01*
X68420000Y-97047500D01*
G75*
G02*
X68182500Y-97285000I-237500J0D01*
G01*
G37*
%TD.AperFunction*%
%TO.P,C13,2*%
%TO.N,GND*%
%TA.AperFunction,SMDPad,CuDef*%
G36*
G01*
X68182500Y-95535000D02*
X67707500Y-95535000D01*
G75*
G02*
X67470000Y-95297500I0J237500D01*
G01*
X67470000Y-94722500D01*
G75*
G02*
X67707500Y-94485000I237500J0D01*
G01*
X68182500Y-94485000D01*
G75*
G02*
X68420000Y-94722500I0J-237500D01*
G01*
X68420000Y-95297500D01*
G75*
G02*
X68182500Y-95535000I-237500J0D01*
G01*
G37*
%TD.AperFunction*%
%TD*%
D13*
%TO.P,J3,8*%
%TO.N,GND*%
X69215000Y-80645000D03*
%TO.P,J3,7*%
%TO.N,/Peripherials/BUTTON*%
X71755000Y-80645000D03*
%TO.P,J3,6*%
%TO.N,/ESP32-WROOM-32/FLX5*%
X74295000Y-80645000D03*
%TO.P,J3,5*%
%TO.N,/ESP32-WROOM-32/FLX4*%
X76835000Y-80645000D03*
%TO.P,J3,4*%
%TO.N,/ESP32-WROOM-32/FLX3*%
X79375000Y-80645000D03*
%TO.P,J3,3*%
%TO.N,/ESP32-WROOM-32/FLX2*%
X81915000Y-80645000D03*
%TO.P,J3,2*%
%TO.N,/ESP32-WROOM-32/FLX1*%
X84455000Y-80645000D03*
D14*
%TO.P,J3,1*%
%TO.N,Net-(J3-Pad1)*%
X86995000Y-80645000D03*
%TD*%
%TO.P,R5,2*%
%TO.N,GND*%
%TA.AperFunction,SMDPad,CuDef*%
G36*
G01*
X82947500Y-90520000D02*
X83422500Y-90520000D01*
G75*
G02*
X83660000Y-90757500I0J-237500D01*
G01*
X83660000Y-91332500D01*
G75*
G02*
X83422500Y-91570000I-237500J0D01*
G01*
X82947500Y-91570000D01*
G75*
G02*
X82710000Y-91332500I0J237500D01*
G01*
X82710000Y-90757500D01*
G75*
G02*
X82947500Y-90520000I237500J0D01*
G01*
G37*
%TD.AperFunction*%
%TO.P,R5,1*%
%TO.N,/ESP32-WROOM-32/ADC1_CH0*%
%TA.AperFunction,SMDPad,CuDef*%
G36*
G01*
X82947500Y-88770000D02*
X83422500Y-88770000D01*
G75*
G02*
X83660000Y-89007500I0J-237500D01*
G01*
X83660000Y-89582500D01*
G75*
G02*
X83422500Y-89820000I-237500J0D01*
G01*
X82947500Y-89820000D01*
G75*
G02*
X82710000Y-89582500I0J237500D01*
G01*
X82710000Y-89007500D01*
G75*
G02*
X82947500Y-88770000I237500J0D01*
G01*
G37*
%TD.AperFunction*%
%TD*%
%TO.P,R10,2*%
%TO.N,/ESP32-WROOM-32/EN*%
%TA.AperFunction,SMDPad,CuDef*%
G36*
G01*
X85327500Y-89820000D02*
X84852500Y-89820000D01*
G75*
G02*
X84615000Y-89582500I0J237500D01*
G01*
X84615000Y-89007500D01*
G75*
G02*
X84852500Y-88770000I237500J0D01*
G01*
X85327500Y-88770000D01*
G75*
G02*
X85565000Y-89007500I0J-237500D01*
G01*
X85565000Y-89582500D01*
G75*
G02*
X85327500Y-89820000I-237500J0D01*
G01*
G37*
%TD.AperFunction*%
%TO.P,R10,1*%
%TO.N,+3V3*%
%TA.AperFunction,SMDPad,CuDef*%
G36*
G01*
X85327500Y-91570000D02*
X84852500Y-91570000D01*
G75*
G02*
X84615000Y-91332500I0J237500D01*
G01*
X84615000Y-90757500D01*
G75*
G02*
X84852500Y-90520000I237500J0D01*
G01*
X85327500Y-90520000D01*
G75*
G02*
X85565000Y-90757500I0J-237500D01*
G01*
X85565000Y-91332500D01*
G75*
G02*
X85327500Y-91570000I-237500J0D01*
G01*
G37*
%TD.AperFunction*%
%TD*%
%TO.P,R11,2*%
%TO.N,/ESP32-WROOM-32/BTN*%
%TA.AperFunction,SMDPad,CuDef*%
G36*
G01*
X73422500Y-84805000D02*
X73897500Y-84805000D01*
G75*
G02*
X74135000Y-85042500I0J-237500D01*
G01*
X74135000Y-85617500D01*
G75*
G02*
X73897500Y-85855000I-237500J0D01*
G01*
X73422500Y-85855000D01*
G75*
G02*
X73185000Y-85617500I0J237500D01*
G01*
X73185000Y-85042500D01*
G75*
G02*
X73422500Y-84805000I237500J0D01*
G01*
G37*
%TD.AperFunction*%
%TO.P,R11,1*%
%TO.N,+3V3*%
%TA.AperFunction,SMDPad,CuDef*%
G36*
G01*
X73422500Y-83055000D02*
X73897500Y-83055000D01*
G75*
G02*
X74135000Y-83292500I0J-237500D01*
G01*
X74135000Y-83867500D01*
G75*
G02*
X73897500Y-84105000I-237500J0D01*
G01*
X73422500Y-84105000D01*
G75*
G02*
X73185000Y-83867500I0J237500D01*
G01*
X73185000Y-83292500D01*
G75*
G02*
X73422500Y-83055000I237500J0D01*
G01*
G37*
%TD.AperFunction*%
%TD*%
%TO.P,R12,2*%
%TO.N,/ESP32-WROOM-32/SCL*%
%TA.AperFunction,SMDPad,CuDef*%
G36*
G01*
X69612500Y-96235000D02*
X70087500Y-96235000D01*
G75*
G02*
X70325000Y-96472500I0J-237500D01*
G01*
X70325000Y-97047500D01*
G75*
G02*
X70087500Y-97285000I-237500J0D01*
G01*
X69612500Y-97285000D01*
G75*
G02*
X69375000Y-97047500I0J237500D01*
G01*
X69375000Y-96472500D01*
G75*
G02*
X69612500Y-96235000I237500J0D01*
G01*
G37*
%TD.AperFunction*%
%TO.P,R12,1*%
%TO.N,+3V3*%
%TA.AperFunction,SMDPad,CuDef*%
G36*
G01*
X69612500Y-94485000D02*
X70087500Y-94485000D01*
G75*
G02*
X70325000Y-94722500I0J-237500D01*
G01*
X70325000Y-95297500D01*
G75*
G02*
X70087500Y-95535000I-237500J0D01*
G01*
X69612500Y-95535000D01*
G75*
G02*
X69375000Y-95297500I0J237500D01*
G01*
X69375000Y-94722500D01*
G75*
G02*
X69612500Y-94485000I237500J0D01*
G01*
G37*
%TD.AperFunction*%
%TD*%
%TO.P,R13,1*%
%TO.N,/Peripherials/AD0*%
%TA.AperFunction,SMDPad,CuDef*%
G36*
G01*
X86757500Y-94485000D02*
X87232500Y-94485000D01*
G75*
G02*
X87470000Y-94722500I0J-237500D01*
G01*
X87470000Y-95297500D01*
G75*
G02*
X87232500Y-95535000I-237500J0D01*
G01*
X86757500Y-95535000D01*
G75*
G02*
X86520000Y-95297500I0J237500D01*
G01*
X86520000Y-94722500D01*
G75*
G02*
X86757500Y-94485000I237500J0D01*
G01*
G37*
%TD.AperFunction*%
%TO.P,R13,2*%
%TO.N,GND*%
%TA.AperFunction,SMDPad,CuDef*%
G36*
G01*
X86757500Y-96235000D02*
X87232500Y-96235000D01*
G75*
G02*
X87470000Y-96472500I0J-237500D01*
G01*
X87470000Y-97047500D01*
G75*
G02*
X87232500Y-97285000I-237500J0D01*
G01*
X86757500Y-97285000D01*
G75*
G02*
X86520000Y-97047500I0J237500D01*
G01*
X86520000Y-96472500D01*
G75*
G02*
X86757500Y-96235000I237500J0D01*
G01*
G37*
%TD.AperFunction*%
%TD*%
%TO.P,R14,1*%
%TO.N,+3V3*%
%TA.AperFunction,SMDPad,CuDef*%
G36*
G01*
X71517500Y-94485000D02*
X71992500Y-94485000D01*
G75*
G02*
X72230000Y-94722500I0J-237500D01*
G01*
X72230000Y-95297500D01*
G75*
G02*
X71992500Y-95535000I-237500J0D01*
G01*
X71517500Y-95535000D01*
G75*
G02*
X71280000Y-95297500I0J237500D01*
G01*
X71280000Y-94722500D01*
G75*
G02*
X71517500Y-94485000I237500J0D01*
G01*
G37*
%TD.AperFunction*%
%TO.P,R14,2*%
%TO.N,/ESP32-WROOM-32/SDA*%
%TA.AperFunction,SMDPad,CuDef*%
G36*
G01*
X71517500Y-96235000D02*
X71992500Y-96235000D01*
G75*
G02*
X72230000Y-96472500I0J-237500D01*
G01*
X72230000Y-97047500D01*
G75*
G02*
X71992500Y-97285000I-237500J0D01*
G01*
X71517500Y-97285000D01*
G75*
G02*
X71280000Y-97047500I0J237500D01*
G01*
X71280000Y-96472500D01*
G75*
G02*
X71517500Y-96235000I237500J0D01*
G01*
G37*
%TD.AperFunction*%
%TD*%
%TO.P,R15,1*%
%TO.N,+3V3*%
%TA.AperFunction,SMDPad,CuDef*%
G36*
G01*
X82947500Y-83055000D02*
X83422500Y-83055000D01*
G75*
G02*
X83660000Y-83292500I0J-237500D01*
G01*
X83660000Y-83867500D01*
G75*
G02*
X83422500Y-84105000I-237500J0D01*
G01*
X82947500Y-84105000D01*
G75*
G02*
X82710000Y-83867500I0J237500D01*
G01*
X82710000Y-83292500D01*
G75*
G02*
X82947500Y-83055000I237500J0D01*
G01*
G37*
%TD.AperFunction*%
%TO.P,R15,2*%
%TO.N,/ESP32-WROOM-32/FLX1*%
%TA.AperFunction,SMDPad,CuDef*%
G36*
G01*
X82947500Y-84805000D02*
X83422500Y-84805000D01*
G75*
G02*
X83660000Y-85042500I0J-237500D01*
G01*
X83660000Y-85617500D01*
G75*
G02*
X83422500Y-85855000I-237500J0D01*
G01*
X82947500Y-85855000D01*
G75*
G02*
X82710000Y-85617500I0J237500D01*
G01*
X82710000Y-85042500D01*
G75*
G02*
X82947500Y-84805000I237500J0D01*
G01*
G37*
%TD.AperFunction*%
%TD*%
%TO.P,R16,2*%
%TO.N,/ESP32-WROOM-32/FLX2*%
%TA.AperFunction,SMDPad,CuDef*%
G36*
G01*
X81042500Y-84805000D02*
X81517500Y-84805000D01*
G75*
G02*
X81755000Y-85042500I0J-237500D01*
G01*
X81755000Y-85617500D01*
G75*
G02*
X81517500Y-85855000I-237500J0D01*
G01*
X81042500Y-85855000D01*
G75*
G02*
X80805000Y-85617500I0J237500D01*
G01*
X80805000Y-85042500D01*
G75*
G02*
X81042500Y-84805000I237500J0D01*
G01*
G37*
%TD.AperFunction*%
%TO.P,R16,1*%
%TO.N,+3V3*%
%TA.AperFunction,SMDPad,CuDef*%
G36*
G01*
X81042500Y-83055000D02*
X81517500Y-83055000D01*
G75*
G02*
X81755000Y-83292500I0J-237500D01*
G01*
X81755000Y-83867500D01*
G75*
G02*
X81517500Y-84105000I-237500J0D01*
G01*
X81042500Y-84105000D01*
G75*
G02*
X80805000Y-83867500I0J237500D01*
G01*
X80805000Y-83292500D01*
G75*
G02*
X81042500Y-83055000I237500J0D01*
G01*
G37*
%TD.AperFunction*%
%TD*%
%TO.P,R17,1*%
%TO.N,+3V3*%
%TA.AperFunction,SMDPad,CuDef*%
G36*
G01*
X79137500Y-83055000D02*
X79612500Y-83055000D01*
G75*
G02*
X79850000Y-83292500I0J-237500D01*
G01*
X79850000Y-83867500D01*
G75*
G02*
X79612500Y-84105000I-237500J0D01*
G01*
X79137500Y-84105000D01*
G75*
G02*
X78900000Y-83867500I0J237500D01*
G01*
X78900000Y-83292500D01*
G75*
G02*
X79137500Y-83055000I237500J0D01*
G01*
G37*
%TD.AperFunction*%
%TO.P,R17,2*%
%TO.N,/ESP32-WROOM-32/FLX3*%
%TA.AperFunction,SMDPad,CuDef*%
G36*
G01*
X79137500Y-84805000D02*
X79612500Y-84805000D01*
G75*
G02*
X79850000Y-85042500I0J-237500D01*
G01*
X79850000Y-85617500D01*
G75*
G02*
X79612500Y-85855000I-237500J0D01*
G01*
X79137500Y-85855000D01*
G75*
G02*
X78900000Y-85617500I0J237500D01*
G01*
X78900000Y-85042500D01*
G75*
G02*
X79137500Y-84805000I237500J0D01*
G01*
G37*
%TD.AperFunction*%
%TD*%
%TO.P,R18,2*%
%TO.N,/ESP32-WROOM-32/FLX4*%
%TA.AperFunction,SMDPad,CuDef*%
G36*
G01*
X77232500Y-84805000D02*
X77707500Y-84805000D01*
G75*
G02*
X77945000Y-85042500I0J-237500D01*
G01*
X77945000Y-85617500D01*
G75*
G02*
X77707500Y-85855000I-237500J0D01*
G01*
X77232500Y-85855000D01*
G75*
G02*
X76995000Y-85617500I0J237500D01*
G01*
X76995000Y-85042500D01*
G75*
G02*
X77232500Y-84805000I237500J0D01*
G01*
G37*
%TD.AperFunction*%
%TO.P,R18,1*%
%TO.N,+3V3*%
%TA.AperFunction,SMDPad,CuDef*%
G36*
G01*
X77232500Y-83055000D02*
X77707500Y-83055000D01*
G75*
G02*
X77945000Y-83292500I0J-237500D01*
G01*
X77945000Y-83867500D01*
G75*
G02*
X77707500Y-84105000I-237500J0D01*
G01*
X77232500Y-84105000D01*
G75*
G02*
X76995000Y-83867500I0J237500D01*
G01*
X76995000Y-83292500D01*
G75*
G02*
X77232500Y-83055000I237500J0D01*
G01*
G37*
%TD.AperFunction*%
%TD*%
%TO.P,R19,1*%
%TO.N,+3V3*%
%TA.AperFunction,SMDPad,CuDef*%
G36*
G01*
X75327500Y-83055000D02*
X75802500Y-83055000D01*
G75*
G02*
X76040000Y-83292500I0J-237500D01*
G01*
X76040000Y-83867500D01*
G75*
G02*
X75802500Y-84105000I-237500J0D01*
G01*
X75327500Y-84105000D01*
G75*
G02*
X75090000Y-83867500I0J237500D01*
G01*
X75090000Y-83292500D01*
G75*
G02*
X75327500Y-83055000I237500J0D01*
G01*
G37*
%TD.AperFunction*%
%TO.P,R19,2*%
%TO.N,/ESP32-WROOM-32/FLX5*%
%TA.AperFunction,SMDPad,CuDef*%
G36*
G01*
X75327500Y-84805000D02*
X75802500Y-84805000D01*
G75*
G02*
X76040000Y-85042500I0J-237500D01*
G01*
X76040000Y-85617500D01*
G75*
G02*
X75802500Y-85855000I-237500J0D01*
G01*
X75327500Y-85855000D01*
G75*
G02*
X75090000Y-85617500I0J237500D01*
G01*
X75090000Y-85042500D01*
G75*
G02*
X75327500Y-84805000I237500J0D01*
G01*
G37*
%TD.AperFunction*%
%TD*%
%TO.P,U5,1*%
%TO.N,GND*%
%TA.AperFunction,SMDPad,CuDef*%
G36*
G01*
X74841000Y-98162500D02*
X74841000Y-98012500D01*
G75*
G02*
X74916000Y-97937500I75000J0D01*
G01*
X75616000Y-97937500D01*
G75*
G02*
X75691000Y-98012500I0J-75000D01*
G01*
X75691000Y-98162500D01*
G75*
G02*
X75616000Y-98237500I-75000J0D01*
G01*
X74916000Y-98237500D01*
G75*
G02*
X74841000Y-98162500I0J75000D01*
G01*
G37*
%TD.AperFunction*%
%TO.P,U5,2*%
%TO.N,N/C*%
%TA.AperFunction,SMDPad,CuDef*%
G36*
G01*
X74841000Y-97662500D02*
X74841000Y-97512500D01*
G75*
G02*
X74916000Y-97437500I75000J0D01*
G01*
X75616000Y-97437500D01*
G75*
G02*
X75691000Y-97512500I0J-75000D01*
G01*
X75691000Y-97662500D01*
G75*
G02*
X75616000Y-97737500I-75000J0D01*
G01*
X74916000Y-97737500D01*
G75*
G02*
X74841000Y-97662500I0J75000D01*
G01*
G37*
%TD.AperFunction*%
%TO.P,U5,3*%
%TA.AperFunction,SMDPad,CuDef*%
G36*
G01*
X74841000Y-97162500D02*
X74841000Y-97012500D01*
G75*
G02*
X74916000Y-96937500I75000J0D01*
G01*
X75616000Y-96937500D01*
G75*
G02*
X75691000Y-97012500I0J-75000D01*
G01*
X75691000Y-97162500D01*
G75*
G02*
X75616000Y-97237500I-75000J0D01*
G01*
X74916000Y-97237500D01*
G75*
G02*
X74841000Y-97162500I0J75000D01*
G01*
G37*
%TD.AperFunction*%
%TO.P,U5,4*%
%TA.AperFunction,SMDPad,CuDef*%
G36*
G01*
X74841000Y-96662500D02*
X74841000Y-96512500D01*
G75*
G02*
X74916000Y-96437500I75000J0D01*
G01*
X75616000Y-96437500D01*
G75*
G02*
X75691000Y-96512500I0J-75000D01*
G01*
X75691000Y-96662500D01*
G75*
G02*
X75616000Y-96737500I-75000J0D01*
G01*
X74916000Y-96737500D01*
G75*
G02*
X74841000Y-96662500I0J75000D01*
G01*
G37*
%TD.AperFunction*%
%TO.P,U5,5*%
%TA.AperFunction,SMDPad,CuDef*%
G36*
G01*
X74841000Y-96162500D02*
X74841000Y-96012500D01*
G75*
G02*
X74916000Y-95937500I75000J0D01*
G01*
X75616000Y-95937500D01*
G75*
G02*
X75691000Y-96012500I0J-75000D01*
G01*
X75691000Y-96162500D01*
G75*
G02*
X75616000Y-96237500I-75000J0D01*
G01*
X74916000Y-96237500D01*
G75*
G02*
X74841000Y-96162500I0J75000D01*
G01*
G37*
%TD.AperFunction*%
%TO.P,U5,6*%
%TO.N,/Peripherials/XDA*%
%TA.AperFunction,SMDPad,CuDef*%
G36*
G01*
X74841000Y-95662500D02*
X74841000Y-95512500D01*
G75*
G02*
X74916000Y-95437500I75000J0D01*
G01*
X75616000Y-95437500D01*
G75*
G02*
X75691000Y-95512500I0J-75000D01*
G01*
X75691000Y-95662500D01*
G75*
G02*
X75616000Y-95737500I-75000J0D01*
G01*
X74916000Y-95737500D01*
G75*
G02*
X74841000Y-95662500I0J75000D01*
G01*
G37*
%TD.AperFunction*%
%TO.P,U5,7*%
%TO.N,/Peripherials/XCL*%
%TA.AperFunction,SMDPad,CuDef*%
G36*
G01*
X75891000Y-94462500D02*
X76041000Y-94462500D01*
G75*
G02*
X76116000Y-94537500I0J-75000D01*
G01*
X76116000Y-95237500D01*
G75*
G02*
X76041000Y-95312500I-75000J0D01*
G01*
X75891000Y-95312500D01*
G75*
G02*
X75816000Y-95237500I0J75000D01*
G01*
X75816000Y-94537500D01*
G75*
G02*
X75891000Y-94462500I75000J0D01*
G01*
G37*
%TD.AperFunction*%
%TO.P,U5,8*%
%TO.N,+3V3*%
%TA.AperFunction,SMDPad,CuDef*%
G36*
G01*
X76391000Y-94462500D02*
X76541000Y-94462500D01*
G75*
G02*
X76616000Y-94537500I0J-75000D01*
G01*
X76616000Y-95237500D01*
G75*
G02*
X76541000Y-95312500I-75000J0D01*
G01*
X76391000Y-95312500D01*
G75*
G02*
X76316000Y-95237500I0J75000D01*
G01*
X76316000Y-94537500D01*
G75*
G02*
X76391000Y-94462500I75000J0D01*
G01*
G37*
%TD.AperFunction*%
%TO.P,U5,9*%
%TO.N,/Peripherials/AD0*%
%TA.AperFunction,SMDPad,CuDef*%
G36*
G01*
X76891000Y-94462500D02*
X77041000Y-94462500D01*
G75*
G02*
X77116000Y-94537500I0J-75000D01*
G01*
X77116000Y-95237500D01*
G75*
G02*
X77041000Y-95312500I-75000J0D01*
G01*
X76891000Y-95312500D01*
G75*
G02*
X76816000Y-95237500I0J75000D01*
G01*
X76816000Y-94537500D01*
G75*
G02*
X76891000Y-94462500I75000J0D01*
G01*
G37*
%TD.AperFunction*%
%TO.P,U5,10*%
%TO.N,/Peripherials/REGOUT*%
%TA.AperFunction,SMDPad,CuDef*%
G36*
G01*
X77391000Y-94462500D02*
X77541000Y-94462500D01*
G75*
G02*
X77616000Y-94537500I0J-75000D01*
G01*
X77616000Y-95237500D01*
G75*
G02*
X77541000Y-95312500I-75000J0D01*
G01*
X77391000Y-95312500D01*
G75*
G02*
X77316000Y-95237500I0J75000D01*
G01*
X77316000Y-94537500D01*
G75*
G02*
X77391000Y-94462500I75000J0D01*
G01*
G37*
%TD.AperFunction*%
%TO.P,U5,11*%
%TO.N,GND*%
%TA.AperFunction,SMDPad,CuDef*%
G36*
G01*
X77891000Y-94462500D02*
X78041000Y-94462500D01*
G75*
G02*
X78116000Y-94537500I0J-75000D01*
G01*
X78116000Y-95237500D01*
G75*
G02*
X78041000Y-95312500I-75000J0D01*
G01*
X77891000Y-95312500D01*
G75*
G02*
X77816000Y-95237500I0J75000D01*
G01*
X77816000Y-94537500D01*
G75*
G02*
X77891000Y-94462500I75000J0D01*
G01*
G37*
%TD.AperFunction*%
%TO.P,U5,12*%
%TO.N,/Peripherials/INT*%
%TA.AperFunction,SMDPad,CuDef*%
G36*
G01*
X78391000Y-94462500D02*
X78541000Y-94462500D01*
G75*
G02*
X78616000Y-94537500I0J-75000D01*
G01*
X78616000Y-95237500D01*
G75*
G02*
X78541000Y-95312500I-75000J0D01*
G01*
X78391000Y-95312500D01*
G75*
G02*
X78316000Y-95237500I0J75000D01*
G01*
X78316000Y-94537500D01*
G75*
G02*
X78391000Y-94462500I75000J0D01*
G01*
G37*
%TD.AperFunction*%
%TO.P,U5,13*%
%TO.N,+3V3*%
%TA.AperFunction,SMDPad,CuDef*%
G36*
G01*
X78741000Y-95662500D02*
X78741000Y-95512500D01*
G75*
G02*
X78816000Y-95437500I75000J0D01*
G01*
X79516000Y-95437500D01*
G75*
G02*
X79591000Y-95512500I0J-75000D01*
G01*
X79591000Y-95662500D01*
G75*
G02*
X79516000Y-95737500I-75000J0D01*
G01*
X78816000Y-95737500D01*
G75*
G02*
X78741000Y-95662500I0J75000D01*
G01*
G37*
%TD.AperFunction*%
%TO.P,U5,14*%
%TO.N,N/C*%
%TA.AperFunction,SMDPad,CuDef*%
G36*
G01*
X78741000Y-96162500D02*
X78741000Y-96012500D01*
G75*
G02*
X78816000Y-95937500I75000J0D01*
G01*
X79516000Y-95937500D01*
G75*
G02*
X79591000Y-96012500I0J-75000D01*
G01*
X79591000Y-96162500D01*
G75*
G02*
X79516000Y-96237500I-75000J0D01*
G01*
X78816000Y-96237500D01*
G75*
G02*
X78741000Y-96162500I0J75000D01*
G01*
G37*
%TD.AperFunction*%
%TO.P,U5,15*%
%TA.AperFunction,SMDPad,CuDef*%
G36*
G01*
X78741000Y-96662500D02*
X78741000Y-96512500D01*
G75*
G02*
X78816000Y-96437500I75000J0D01*
G01*
X79516000Y-96437500D01*
G75*
G02*
X79591000Y-96512500I0J-75000D01*
G01*
X79591000Y-96662500D01*
G75*
G02*
X79516000Y-96737500I-75000J0D01*
G01*
X78816000Y-96737500D01*
G75*
G02*
X78741000Y-96662500I0J75000D01*
G01*
G37*
%TD.AperFunction*%
%TO.P,U5,16*%
%TA.AperFunction,SMDPad,CuDef*%
G36*
G01*
X78741000Y-97162500D02*
X78741000Y-97012500D01*
G75*
G02*
X78816000Y-96937500I75000J0D01*
G01*
X79516000Y-96937500D01*
G75*
G02*
X79591000Y-97012500I0J-75000D01*
G01*
X79591000Y-97162500D01*
G75*
G02*
X79516000Y-97237500I-75000J0D01*
G01*
X78816000Y-97237500D01*
G75*
G02*
X78741000Y-97162500I0J75000D01*
G01*
G37*
%TD.AperFunction*%
%TO.P,U5,17*%
%TA.AperFunction,SMDPad,CuDef*%
G36*
G01*
X78741000Y-97662500D02*
X78741000Y-97512500D01*
G75*
G02*
X78816000Y-97437500I75000J0D01*
G01*
X79516000Y-97437500D01*
G75*
G02*
X79591000Y-97512500I0J-75000D01*
G01*
X79591000Y-97662500D01*
G75*
G02*
X79516000Y-97737500I-75000J0D01*
G01*
X78816000Y-97737500D01*
G75*
G02*
X78741000Y-97662500I0J75000D01*
G01*
G37*
%TD.AperFunction*%
%TO.P,U5,18*%
%TO.N,GND*%
%TA.AperFunction,SMDPad,CuDef*%
G36*
G01*
X78741000Y-98162500D02*
X78741000Y-98012500D01*
G75*
G02*
X78816000Y-97937500I75000J0D01*
G01*
X79516000Y-97937500D01*
G75*
G02*
X79591000Y-98012500I0J-75000D01*
G01*
X79591000Y-98162500D01*
G75*
G02*
X79516000Y-98237500I-75000J0D01*
G01*
X78816000Y-98237500D01*
G75*
G02*
X78741000Y-98162500I0J75000D01*
G01*
G37*
%TD.AperFunction*%
%TO.P,U5,19*%
%TO.N,N/C*%
%TA.AperFunction,SMDPad,CuDef*%
G36*
G01*
X78391000Y-98362500D02*
X78541000Y-98362500D01*
G75*
G02*
X78616000Y-98437500I0J-75000D01*
G01*
X78616000Y-99137500D01*
G75*
G02*
X78541000Y-99212500I-75000J0D01*
G01*
X78391000Y-99212500D01*
G75*
G02*
X78316000Y-99137500I0J75000D01*
G01*
X78316000Y-98437500D01*
G75*
G02*
X78391000Y-98362500I75000J0D01*
G01*
G37*
%TD.AperFunction*%
%TO.P,U5,20*%
%TO.N,Net-(C13-Pad1)*%
%TA.AperFunction,SMDPad,CuDef*%
G36*
G01*
X77891000Y-98362500D02*
X78041000Y-98362500D01*
G75*
G02*
X78116000Y-98437500I0J-75000D01*
G01*
X78116000Y-99137500D01*
G75*
G02*
X78041000Y-99212500I-75000J0D01*
G01*
X77891000Y-99212500D01*
G75*
G02*
X77816000Y-99137500I0J75000D01*
G01*
X77816000Y-98437500D01*
G75*
G02*
X77891000Y-98362500I75000J0D01*
G01*
G37*
%TD.AperFunction*%
%TO.P,U5,21*%
%TO.N,N/C*%
%TA.AperFunction,SMDPad,CuDef*%
G36*
G01*
X77391000Y-98362500D02*
X77541000Y-98362500D01*
G75*
G02*
X77616000Y-98437500I0J-75000D01*
G01*
X77616000Y-99137500D01*
G75*
G02*
X77541000Y-99212500I-75000J0D01*
G01*
X77391000Y-99212500D01*
G75*
G02*
X77316000Y-99137500I0J75000D01*
G01*
X77316000Y-98437500D01*
G75*
G02*
X77391000Y-98362500I75000J0D01*
G01*
G37*
%TD.AperFunction*%
%TO.P,U5,22*%
%TA.AperFunction,SMDPad,CuDef*%
G36*
G01*
X76891000Y-98362500D02*
X77041000Y-98362500D01*
G75*
G02*
X77116000Y-98437500I0J-75000D01*
G01*
X77116000Y-99137500D01*
G75*
G02*
X77041000Y-99212500I-75000J0D01*
G01*
X76891000Y-99212500D01*
G75*
G02*
X76816000Y-99137500I0J75000D01*
G01*
X76816000Y-98437500D01*
G75*
G02*
X76891000Y-98362500I75000J0D01*
G01*
G37*
%TD.AperFunction*%
%TO.P,U5,23*%
%TO.N,/ESP32-WROOM-32/SCL*%
%TA.AperFunction,SMDPad,CuDef*%
G36*
G01*
X76391000Y-98362500D02*
X76541000Y-98362500D01*
G75*
G02*
X76616000Y-98437500I0J-75000D01*
G01*
X76616000Y-99137500D01*
G75*
G02*
X76541000Y-99212500I-75000J0D01*
G01*
X76391000Y-99212500D01*
G75*
G02*
X76316000Y-99137500I0J75000D01*
G01*
X76316000Y-98437500D01*
G75*
G02*
X76391000Y-98362500I75000J0D01*
G01*
G37*
%TD.AperFunction*%
%TO.P,U5,24*%
%TO.N,/ESP32-WROOM-32/SDA*%
%TA.AperFunction,SMDPad,CuDef*%
G36*
G01*
X75891000Y-98362500D02*
X76041000Y-98362500D01*
G75*
G02*
X76116000Y-98437500I0J-75000D01*
G01*
X76116000Y-99137500D01*
G75*
G02*
X76041000Y-99212500I-75000J0D01*
G01*
X75891000Y-99212500D01*
G75*
G02*
X75816000Y-99137500I0J75000D01*
G01*
X75816000Y-98437500D01*
G75*
G02*
X75891000Y-98362500I75000J0D01*
G01*
G37*
%TD.AperFunction*%
%TD*%
%TO.P,R22,2*%
%TO.N,/ESP32-WROOM-32/BTN*%
%TA.AperFunction,SMDPad,CuDef*%
G36*
G01*
X69612500Y-84805000D02*
X70087500Y-84805000D01*
G75*
G02*
X70325000Y-85042500I0J-237500D01*
G01*
X70325000Y-85617500D01*
G75*
G02*
X70087500Y-85855000I-237500J0D01*
G01*
X69612500Y-85855000D01*
G75*
G02*
X69375000Y-85617500I0J237500D01*
G01*
X69375000Y-85042500D01*
G75*
G02*
X69612500Y-84805000I237500J0D01*
G01*
G37*
%TD.AperFunction*%
%TO.P,R22,1*%
%TO.N,/Peripherials/BUTTON*%
%TA.AperFunction,SMDPad,CuDef*%
G36*
G01*
X69612500Y-83055000D02*
X70087500Y-83055000D01*
G75*
G02*
X70325000Y-83292500I0J-237500D01*
G01*
X70325000Y-83867500D01*
G75*
G02*
X70087500Y-84105000I-237500J0D01*
G01*
X69612500Y-84105000D01*
G75*
G02*
X69375000Y-83867500I0J237500D01*
G01*
X69375000Y-83292500D01*
G75*
G02*
X69612500Y-83055000I237500J0D01*
G01*
G37*
%TD.AperFunction*%
%TD*%
D15*
%TO.N,GND*%
X75565000Y-88900000D03*
X76200000Y-90170000D03*
X75565000Y-91440000D03*
X76835000Y-91440000D03*
X77470000Y-90170000D03*
X78740000Y-90170000D03*
X80010000Y-90170000D03*
X81280000Y-90170000D03*
X80645000Y-88900000D03*
X79375000Y-88900000D03*
X78105000Y-88900000D03*
X76835000Y-88900000D03*
X56070500Y-83185000D03*
X56007000Y-87947500D03*
X62738000Y-97409000D03*
X59753500Y-100965000D03*
X49657000Y-100076000D03*
X55880000Y-92900500D03*
X67246500Y-98933000D03*
X87503000Y-82296000D03*
X86360000Y-98679000D03*
X73723500Y-97409006D03*
X79692500Y-93218000D03*
%TO.N,+3V3*%
X85090000Y-86677500D03*
X79438500Y-94615000D03*
X85090000Y-92392500D03*
X61595000Y-95567500D03*
X61214000Y-91503500D03*
X66865500Y-93980000D03*
X74993504Y-93980000D03*
%TO.N,/ESP32-WROOM-32/EN*%
X84137498Y-87947494D03*
X62039506Y-93154500D03*
%TO.N,/ESP32-WROOM-32/BTN*%
X74295000Y-86677500D03*
%TO.N,VBUS*%
X57023000Y-99060000D03*
X55499000Y-85217000D03*
X56134000Y-91440000D03*
%TO.N,/ESP32-WROOM-32/D+*%
X53213000Y-95123000D03*
X51943012Y-96393000D03*
%TO.N,/ESP32-WROOM-32/FLX1*%
X82423000Y-86677500D03*
%TO.N,/ESP32-WROOM-32/FLX2*%
X81280000Y-86677500D03*
%TO.N,/ESP32-WROOM-32/FLX3*%
X79375000Y-86677500D03*
%TO.N,/ESP32-WROOM-32/FLX4*%
X77470000Y-86677500D03*
%TO.N,/ESP32-WROOM-32/FLX5*%
X75565000Y-86677500D03*
%TO.N,/ESP32-WROOM-32/DTR*%
X58039000Y-91630500D03*
X66294000Y-100076000D03*
%TO.N,/ESP32-WROOM-32/ADC1_CH0*%
X55562500Y-80010000D03*
X62166500Y-80010000D03*
X62166500Y-84264500D03*
X82931000Y-87947500D03*
%TO.N,/ESP32-WROOM-32/SCL*%
X72389994Y-98742500D03*
%TO.N,/ESP32-WROOM-32/SDA*%
X73723500Y-98742498D03*
%TO.N,/ESP32-WROOM-32/TXD0*%
X59118500Y-92710000D03*
X82550000Y-98742510D03*
%TO.N,/ESP32-WROOM-32/RXD0*%
X58039000Y-92710000D03*
X81280000Y-98742500D03*
%TO.N,/ESP32-WROOM-32/IO26*%
X72961500Y-88011000D03*
%TO.N,/ESP32-WROOM-32/IO27*%
X71755000Y-88011000D03*
%TO.N,/ESP32-WROOM-32/IO12*%
X70612000Y-88011000D03*
%TO.N,/Peripherials/BUTTON*%
X68389500Y-83502500D03*
%TO.N,Net-(D3-Pad4)*%
X62357000Y-91503500D03*
%TO.N,Net-(D3-Pad3)*%
X66929000Y-87376000D03*
%TO.N,Net-(D3-Pad1)*%
X63182500Y-90741500D03*
%TD*%
D16*
%TO.N,GND*%
X86995000Y-97599500D02*
X86804500Y-97790000D01*
X86995000Y-96760000D02*
X86995000Y-97599500D01*
X81280000Y-97726500D02*
X81343500Y-97790000D01*
X67945000Y-95010000D02*
X67105500Y-95010000D01*
X64706500Y-97409000D02*
X62738000Y-97409000D01*
X71755000Y-83580000D02*
X71755000Y-82677000D01*
X71755000Y-82677000D02*
X71247000Y-82169000D01*
X66802000Y-98488500D02*
X67246500Y-98933000D01*
X66802000Y-95313500D02*
X66802000Y-98488500D01*
X66802000Y-95313500D02*
X64706500Y-97409000D01*
X67105500Y-95010000D02*
X66802000Y-95313500D01*
D17*
X85090000Y-82677000D02*
X85090000Y-83580000D01*
D16*
X85471000Y-82296000D02*
X85090000Y-82677000D01*
X70739000Y-82169000D02*
X71247000Y-82169000D01*
X69215000Y-80645000D02*
X70739000Y-82169000D01*
X86931500Y-82486500D02*
X86741000Y-82296000D01*
X86995000Y-82486500D02*
X86931500Y-82486500D01*
D17*
X86995000Y-83580000D02*
X86995000Y-82486500D01*
D16*
X86995000Y-82486500D02*
X86995000Y-82296000D01*
X86995000Y-82296000D02*
X86741000Y-82296000D01*
X86741000Y-82296000D02*
X85471000Y-82296000D01*
X86995000Y-82423000D02*
X87122000Y-82296000D01*
X87503000Y-82296000D02*
X87122000Y-82296000D01*
X86995000Y-82486500D02*
X86995000Y-82423000D01*
X87122000Y-82296000D02*
X86995000Y-82296000D01*
X81280000Y-97599500D02*
X81280000Y-97726500D01*
X81280000Y-96760000D02*
X81280000Y-97599500D01*
X81089500Y-97790000D02*
X81280000Y-97599500D01*
X81343500Y-97790000D02*
X81089500Y-97790000D01*
X81470500Y-97790000D02*
X81280000Y-97599500D01*
X81470500Y-97790000D02*
X81343500Y-97790000D01*
X79903000Y-98087500D02*
X79166000Y-98087500D01*
X81089500Y-97790000D02*
X80200500Y-97790000D01*
X80200500Y-97790000D02*
X79903000Y-98087500D01*
X82994500Y-97790000D02*
X83185000Y-97599500D01*
X83185000Y-96760000D02*
X83185000Y-97599500D01*
X83185000Y-97599500D02*
X83185000Y-97790000D01*
X82994500Y-97790000D02*
X81470500Y-97790000D01*
X83185000Y-97790000D02*
X82994500Y-97790000D01*
X83375500Y-97790000D02*
X83185000Y-97790000D01*
X83375500Y-97790000D02*
X83185000Y-97599500D01*
X85090000Y-97599500D02*
X85090000Y-97790000D01*
X85090000Y-96760000D02*
X85090000Y-97599500D01*
X84899500Y-97790000D02*
X85090000Y-97599500D01*
X84899500Y-97790000D02*
X83375500Y-97790000D01*
X85090000Y-97790000D02*
X84899500Y-97790000D01*
X85280500Y-97790000D02*
X85090000Y-97599500D01*
X85280500Y-97790000D02*
X85090000Y-97790000D01*
X86169500Y-97790000D02*
X86360000Y-97980500D01*
X86360000Y-97980500D02*
X86360000Y-97790000D01*
X86360000Y-98679000D02*
X86360000Y-97980500D01*
X86169500Y-97790000D02*
X85280500Y-97790000D01*
X86360000Y-97790000D02*
X86169500Y-97790000D01*
X86550500Y-97790000D02*
X86360000Y-97980500D01*
X86550500Y-97790000D02*
X86360000Y-97790000D01*
X86804500Y-97790000D02*
X86550500Y-97790000D01*
X75266000Y-98087500D02*
X74401994Y-98087500D01*
X74401994Y-98087500D02*
X73723500Y-97409006D01*
X78613000Y-93218000D02*
X79692500Y-93218000D01*
X77966000Y-93865000D02*
X78613000Y-93218000D01*
X77966000Y-94887500D02*
X77966000Y-93865000D01*
D17*
%TO.N,+3V3*%
X85090000Y-85330000D02*
X85090000Y-86677500D01*
X84137500Y-86169500D02*
X84645500Y-86677500D01*
X73660000Y-82677000D02*
X73787000Y-82550000D01*
X84645500Y-86677500D02*
X85090000Y-86677500D01*
X83883500Y-82550000D02*
X84137500Y-82804000D01*
X73660000Y-83580000D02*
X73660000Y-82677000D01*
X84137500Y-82804000D02*
X84137500Y-86169500D01*
X86995000Y-86169500D02*
X86487000Y-86677500D01*
X86995000Y-85330000D02*
X86995000Y-86169500D01*
X86487000Y-86677500D02*
X85090000Y-86677500D01*
X75565000Y-82613500D02*
X75501500Y-82550000D01*
X83058000Y-94107000D02*
X83185000Y-94234000D01*
X81407000Y-94107000D02*
X83058000Y-94107000D01*
X81280000Y-95010000D02*
X81280000Y-94234000D01*
X83185000Y-94234000D02*
X83185000Y-95010000D01*
X81280000Y-94234000D02*
X81407000Y-94107000D01*
X80327500Y-94361000D02*
X80327500Y-95377000D01*
X80117000Y-95587500D02*
X79166000Y-95587500D01*
X80327500Y-95377000D02*
X80117000Y-95587500D01*
X80581500Y-94107000D02*
X80327500Y-94361000D01*
X79166000Y-94887500D02*
X79438500Y-94615000D01*
X79166000Y-95587500D02*
X79166000Y-94887500D01*
X85090000Y-91045000D02*
X85090000Y-92392500D01*
X61595000Y-95567500D02*
X61595000Y-94932500D01*
X61595000Y-94932500D02*
X61214000Y-94551500D01*
X61214000Y-94551500D02*
X61214000Y-91503500D01*
X83185000Y-82740500D02*
X83375500Y-82550000D01*
X83375500Y-82550000D02*
X83883500Y-82550000D01*
X83185000Y-82550000D02*
X83375500Y-82550000D01*
X83185000Y-82740500D02*
X83185000Y-82550000D01*
X83185000Y-83580000D02*
X83185000Y-82740500D01*
X83185000Y-82740500D02*
X82994500Y-82550000D01*
X82994500Y-82550000D02*
X83185000Y-82550000D01*
X81280000Y-82740500D02*
X81470500Y-82550000D01*
X81470500Y-82550000D02*
X82994500Y-82550000D01*
X81280000Y-82550000D02*
X81470500Y-82550000D01*
X81280000Y-82740500D02*
X81280000Y-82550000D01*
X81280000Y-83580000D02*
X81280000Y-82740500D01*
X81089500Y-82550000D02*
X81280000Y-82740500D01*
X81089500Y-82550000D02*
X81280000Y-82550000D01*
X79184500Y-82550000D02*
X79375000Y-82740500D01*
X79375000Y-82740500D02*
X79375000Y-82550000D01*
X79375000Y-83580000D02*
X79375000Y-82740500D01*
X79184500Y-82550000D02*
X79375000Y-82550000D01*
X79565500Y-82550000D02*
X79375000Y-82740500D01*
X79565500Y-82550000D02*
X81089500Y-82550000D01*
X79375000Y-82550000D02*
X79565500Y-82550000D01*
X77470000Y-82740500D02*
X77470000Y-82550000D01*
X77470000Y-83580000D02*
X77470000Y-82740500D01*
X77279500Y-82550000D02*
X77470000Y-82740500D01*
X77279500Y-82550000D02*
X77470000Y-82550000D01*
X77660500Y-82550000D02*
X77470000Y-82740500D01*
X77660500Y-82550000D02*
X79184500Y-82550000D01*
X77470000Y-82550000D02*
X77660500Y-82550000D01*
X75692000Y-82550000D02*
X75565000Y-82677000D01*
X75755500Y-82550000D02*
X75692000Y-82550000D01*
X75501500Y-82550000D02*
X75755500Y-82550000D01*
X75755500Y-82550000D02*
X77279500Y-82550000D01*
X75565000Y-83580000D02*
X75565000Y-82677000D01*
X75565000Y-82677000D02*
X75565000Y-82613500D01*
X75438000Y-82550000D02*
X75565000Y-82677000D01*
X75374500Y-82550000D02*
X75438000Y-82550000D01*
X75374500Y-82550000D02*
X75501500Y-82550000D01*
X73787000Y-82550000D02*
X75374500Y-82550000D01*
X81280000Y-94234000D02*
X81153000Y-94107000D01*
X81407000Y-94107000D02*
X81153000Y-94107000D01*
X81153000Y-94107000D02*
X80581500Y-94107000D01*
X69850000Y-94234000D02*
X69850000Y-95010000D01*
X71501000Y-93980000D02*
X71755000Y-93980000D01*
X69850000Y-94043500D02*
X69786500Y-93980000D01*
X71501000Y-93980000D02*
X71564500Y-93980000D01*
X71755000Y-95010000D02*
X71755000Y-94170500D01*
X71564500Y-93980000D02*
X71755000Y-94170500D01*
X71755000Y-94170500D02*
X71755000Y-93980000D01*
X71945500Y-93980000D02*
X71755000Y-94170500D01*
X71755000Y-93980000D02*
X71945500Y-93980000D01*
X69850000Y-94170500D02*
X69850000Y-94043500D01*
X69850000Y-95010000D02*
X69850000Y-94170500D01*
X70040500Y-93980000D02*
X71501000Y-93980000D01*
X69786500Y-93980000D02*
X70040500Y-93980000D01*
X69659500Y-93980000D02*
X69850000Y-94170500D01*
X69659500Y-93980000D02*
X69786500Y-93980000D01*
X66865500Y-93980000D02*
X69659500Y-93980000D01*
X70040500Y-93980000D02*
X69850000Y-94170500D01*
X76466000Y-94887500D02*
X76466000Y-94246000D01*
X71945500Y-93980000D02*
X74993504Y-93980000D01*
X76200000Y-93980000D02*
X74993504Y-93980000D01*
X76466000Y-94246000D02*
X76200000Y-93980000D01*
%TO.N,/ESP32-WROOM-32/EN*%
X86995000Y-89295000D02*
X86995000Y-88455500D01*
D16*
X86995000Y-88455500D02*
X86486994Y-87947494D01*
X84899494Y-87947494D02*
X84137498Y-87947494D01*
D17*
X85090000Y-89295000D02*
X85090000Y-88138000D01*
D16*
X85090000Y-88138000D02*
X84899494Y-87947494D01*
X86486994Y-87947494D02*
X85280506Y-87947494D01*
X85090000Y-88138000D02*
X85280506Y-87947494D01*
X85280506Y-87947494D02*
X84137498Y-87947494D01*
X76644500Y-93154500D02*
X62039506Y-93154500D01*
X81089500Y-91440000D02*
X78359000Y-91440000D01*
X82550000Y-92900500D02*
X81089500Y-91440000D01*
X78359000Y-91440000D02*
X76644500Y-93154500D01*
X83312000Y-92900500D02*
X82550000Y-92900500D01*
X84137498Y-92075002D02*
X83312000Y-92900500D01*
X84137498Y-87947494D02*
X84137498Y-92075002D01*
%TO.N,/ESP32-WROOM-32/BTN*%
X69850000Y-85330000D02*
X69850000Y-86169500D01*
X69850000Y-86169500D02*
X70358000Y-86677500D01*
X70358000Y-86677500D02*
X71247000Y-86677500D01*
X71247000Y-86677500D02*
X72263000Y-86677500D01*
X71628000Y-86677500D02*
X71247000Y-86677500D01*
X71755000Y-86550500D02*
X71628000Y-86677500D01*
X71882000Y-86677500D02*
X72263000Y-86677500D01*
X71755000Y-86550500D02*
X71882000Y-86677500D01*
D17*
X73660000Y-85330000D02*
X73660000Y-86487000D01*
D16*
X72263000Y-86677500D02*
X73469500Y-86677500D01*
X73469500Y-86677500D02*
X74295000Y-86677500D01*
X73533000Y-86677500D02*
X73469500Y-86677500D01*
X73660000Y-86487000D02*
X73660000Y-86550500D01*
X73660000Y-86550500D02*
X73533000Y-86677500D01*
X73818750Y-86677500D02*
X74295000Y-86677500D01*
X73660000Y-86487000D02*
X73660000Y-86518750D01*
X73660000Y-86518750D02*
X73818750Y-86677500D01*
D17*
X71755000Y-85330000D02*
X71755000Y-86550500D01*
%TO.N,/Peripherials/REGOUT*%
X85090000Y-95010000D02*
X85090000Y-94170500D01*
D16*
X77466000Y-93412500D02*
X77466000Y-93920500D01*
X78676500Y-92202000D02*
X77466000Y-93412500D01*
X80772000Y-92202000D02*
X78676500Y-92202000D01*
X77466000Y-93920500D02*
X77466000Y-94887500D01*
X82232500Y-93662500D02*
X80772000Y-92202000D01*
X84582000Y-93662500D02*
X82232500Y-93662500D01*
X85090000Y-94170500D02*
X84582000Y-93662500D01*
%TO.N,Net-(C13-Pad1)*%
X77966000Y-99707000D02*
X77966000Y-98787500D01*
X76898500Y-100774500D02*
X77966000Y-99707000D01*
X70866000Y-100774500D02*
X76898500Y-100774500D01*
D17*
X67945000Y-96760000D02*
X67945000Y-97853500D01*
D16*
X67945000Y-97853500D02*
X70866000Y-100774500D01*
D17*
%TO.N,VBUS*%
X55499000Y-85217000D02*
X57023000Y-86741000D01*
X57023000Y-92202000D02*
X57023000Y-99060000D01*
X57023000Y-92202000D02*
X57023000Y-91440000D01*
X56896000Y-91376500D02*
X57023000Y-91249500D01*
X56896000Y-91440000D02*
X56896000Y-91376500D01*
X57023000Y-91440000D02*
X56896000Y-91440000D01*
X56896000Y-91440000D02*
X56134000Y-91440000D01*
X57023000Y-86741000D02*
X57023000Y-91249500D01*
X56896000Y-91440000D02*
X57023000Y-91567000D01*
X57023000Y-91249500D02*
X57023000Y-91567000D01*
X57023000Y-91567000D02*
X57023000Y-92202000D01*
D16*
%TO.N,/ESP32-WROOM-32/D+*%
X51943012Y-96392988D02*
X51943012Y-96393000D01*
X53213000Y-95123000D02*
X51943012Y-96392988D01*
D17*
%TO.N,/ESP32-WROOM-32/FLX1*%
X83185000Y-86487000D02*
X83185000Y-85330000D01*
D16*
X82423000Y-86677500D02*
X82994500Y-86677500D01*
X82994500Y-86677500D02*
X83185000Y-86487000D01*
D17*
%TO.N,/ESP32-WROOM-32/FLX2*%
X81280000Y-86677500D02*
X81280000Y-85330000D01*
%TO.N,/ESP32-WROOM-32/FLX3*%
X79375000Y-85330000D02*
X79375000Y-86677500D01*
%TO.N,/ESP32-WROOM-32/FLX4*%
X77470000Y-85330000D02*
X77470000Y-86677500D01*
%TO.N,/ESP32-WROOM-32/FLX5*%
X75565000Y-85330000D02*
X75565000Y-86677500D01*
D16*
%TO.N,/ESP32-WROOM-32/DTR*%
X62928500Y-100076000D02*
X60388500Y-97536000D01*
X59044514Y-91630500D02*
X58039000Y-91630500D01*
X66294000Y-100076000D02*
X62928500Y-100076000D01*
X60388500Y-97536000D02*
X60388500Y-92202000D01*
X60388500Y-92202000D02*
X59817000Y-91630500D01*
X59817000Y-91630500D02*
X59044514Y-91630500D01*
%TO.N,/ESP32-WROOM-32/ADC1_CH0*%
X55562500Y-80010000D02*
X62166500Y-80010000D01*
D17*
X83185000Y-89295000D02*
X83185000Y-88201500D01*
D16*
X83185000Y-88201500D02*
X82931000Y-87947500D01*
X81597500Y-87630000D02*
X81915000Y-87947500D01*
X66484500Y-84264500D02*
X69342000Y-87122000D01*
X73977500Y-87630000D02*
X81597500Y-87630000D01*
X81915000Y-87947500D02*
X82931000Y-87947500D01*
X62166500Y-84264500D02*
X66484500Y-84264500D01*
X69342000Y-87122000D02*
X73469500Y-87122000D01*
X73469500Y-87122000D02*
X73977500Y-87630000D01*
%TO.N,/ESP32-WROOM-32/SCL*%
X76466000Y-98787500D02*
X76466000Y-99746500D01*
X76466000Y-99746500D02*
X75819000Y-100393500D01*
X75819000Y-100393500D02*
X74040994Y-100393500D01*
X74040994Y-100393500D02*
X72389994Y-98742500D01*
X70866000Y-98742500D02*
X72389994Y-98742500D01*
X69850000Y-97726500D02*
X70866000Y-98742500D01*
D17*
X69850000Y-96760000D02*
X69850000Y-97726500D01*
%TO.N,/Peripherials/AD0*%
X86995000Y-95010000D02*
X86995000Y-94107000D01*
D16*
X76966000Y-93917592D02*
X76966000Y-94887500D01*
X76966000Y-93409592D02*
X76966000Y-93917592D01*
X78554592Y-91821000D02*
X76966000Y-93409592D01*
X80930750Y-91821000D02*
X78554592Y-91821000D01*
X82391250Y-93281500D02*
X80930750Y-91821000D01*
X86169500Y-93281500D02*
X82391250Y-93281500D01*
X86995000Y-94107000D02*
X86169500Y-93281500D01*
%TO.N,/ESP32-WROOM-32/SDA*%
X73723500Y-98728500D02*
X73723500Y-98742498D01*
X75966000Y-98787500D02*
X73768502Y-98787500D01*
X73768502Y-98787500D02*
X73723500Y-98742498D01*
X72961502Y-97980500D02*
X73723500Y-98742498D01*
X72072500Y-97980500D02*
X72961502Y-97980500D01*
X71755000Y-97663000D02*
X72072500Y-97980500D01*
D17*
X71755000Y-96760000D02*
X71755000Y-97663000D01*
D16*
%TO.N,/ESP32-WROOM-32/TXD0*%
X79756010Y-101536500D02*
X82550000Y-98742510D01*
X62865000Y-101536500D02*
X79756010Y-101536500D01*
X59118500Y-92710000D02*
X59118500Y-97790000D01*
X59118500Y-97790000D02*
X62865000Y-101536500D01*
%TO.N,/ESP32-WROOM-32/RXD0*%
X81280000Y-99250500D02*
X81280000Y-98742500D01*
X63309500Y-101155500D02*
X79375000Y-101155500D01*
X59817000Y-97663000D02*
X63309500Y-101155500D01*
X79375000Y-101155500D02*
X81280000Y-99250500D01*
X58039000Y-92710000D02*
X58718401Y-92030599D01*
X58718401Y-92030599D02*
X59645599Y-92030599D01*
X59645599Y-92030599D02*
X59817000Y-92202000D01*
X59817000Y-92202000D02*
X59817000Y-97663000D01*
%TO.N,/ESP32-WROOM-32/IO26*%
X73469500Y-88011000D02*
X72961500Y-88011000D01*
X73660000Y-88201500D02*
X73469500Y-88011000D01*
X73660000Y-89295000D02*
X73660000Y-88201500D01*
%TO.N,/ESP32-WROOM-32/IO27*%
X71755000Y-89295000D02*
X71755000Y-88011000D01*
%TO.N,/ESP32-WROOM-32/IO12*%
X70104000Y-88011000D02*
X70612000Y-88011000D01*
X69850000Y-88265000D02*
X70104000Y-88011000D01*
X69850000Y-89295000D02*
X69850000Y-88265000D01*
%TO.N,/Peripherials/BUTTON*%
X69850000Y-83580000D02*
X69850000Y-82804000D01*
X69850000Y-82804000D02*
X69723000Y-82677000D01*
X69723000Y-82677000D02*
X69215000Y-82677000D01*
X69215000Y-82677000D02*
X68961000Y-82931000D01*
X68961000Y-82931000D02*
X68389500Y-83502500D01*
%TO.N,Net-(D3-Pad4)*%
X63563500Y-92710000D02*
X62357000Y-91503500D01*
X72961500Y-92710000D02*
X63563500Y-92710000D01*
X73660000Y-92011500D02*
X72961500Y-92710000D01*
X73660000Y-91045000D02*
X73660000Y-92011500D01*
%TO.N,Net-(D3-Pad3)*%
X67310000Y-89487600D02*
X67310000Y-87757000D01*
X69850000Y-91821000D02*
X69723000Y-91948000D01*
X69215000Y-91948000D02*
X68897500Y-91630500D01*
X67310000Y-87757000D02*
X66929000Y-87376000D01*
X68897500Y-91075100D02*
X67310000Y-89487600D01*
X69850000Y-91045000D02*
X69850000Y-91821000D01*
X69723000Y-91948000D02*
X69215000Y-91948000D01*
X68897500Y-91630500D02*
X68897500Y-91075100D01*
%TO.N,Net-(D3-Pad1)*%
X64770000Y-92329000D02*
X63182500Y-90741500D01*
X71374000Y-92329000D02*
X64770000Y-92329000D01*
X71755000Y-91948000D02*
X71374000Y-92329000D01*
X71755000Y-91045000D02*
X71755000Y-91948000D01*
%TD*%
%TO.N,GND*%
X47953133Y-79428133D02*
X47849038Y-79554973D01*
X47771689Y-79699683D01*
X47724057Y-79856704D01*
X47716726Y-79931142D01*
X47627432Y-79791846D01*
X47500566Y-79660065D01*
X47350429Y-79555566D01*
X47182790Y-79482365D01*
X47112948Y-79465693D01*
X46968800Y-79525569D01*
X46968800Y-80571200D01*
X46988800Y-80571200D01*
X46988800Y-80718800D01*
X46968800Y-80718800D01*
X46968800Y-81764431D01*
X47112948Y-81824307D01*
X47182790Y-81807635D01*
X47350429Y-81734434D01*
X47500566Y-81629935D01*
X47627432Y-81498154D01*
X47716726Y-81358858D01*
X47724057Y-81433296D01*
X47771689Y-81590317D01*
X47849038Y-81735027D01*
X47953133Y-81861867D01*
X48079973Y-81965962D01*
X48224683Y-82043311D01*
X48381704Y-82090943D01*
X48544999Y-82107026D01*
X49245001Y-82107026D01*
X49408296Y-82090943D01*
X49565317Y-82043311D01*
X49710027Y-81965962D01*
X49836867Y-81861867D01*
X49940962Y-81735027D01*
X50018311Y-81590317D01*
X50065943Y-81433296D01*
X50082026Y-81270001D01*
X50082026Y-80019999D01*
X50065943Y-79856704D01*
X50018311Y-79699683D01*
X49940962Y-79554973D01*
X49836867Y-79428133D01*
X49771150Y-79374200D01*
X54806431Y-79374200D01*
X54798022Y-79382609D01*
X54690313Y-79543807D01*
X54616122Y-79722919D01*
X54578300Y-79913065D01*
X54578300Y-80106935D01*
X54616122Y-80297081D01*
X54690313Y-80476193D01*
X54798022Y-80637391D01*
X54935109Y-80774478D01*
X55096307Y-80882187D01*
X55275419Y-80956378D01*
X55465565Y-80994200D01*
X55659435Y-80994200D01*
X55849581Y-80956378D01*
X56028693Y-80882187D01*
X56189891Y-80774478D01*
X56293969Y-80670400D01*
X61435031Y-80670400D01*
X61539109Y-80774478D01*
X61700307Y-80882187D01*
X61879419Y-80956378D01*
X62069565Y-80994200D01*
X62263435Y-80994200D01*
X62453581Y-80956378D01*
X62584486Y-80902155D01*
X68063153Y-80902155D01*
X68135454Y-81121928D01*
X68249241Y-81323373D01*
X68400142Y-81498748D01*
X68582357Y-81641314D01*
X68788884Y-81745593D01*
X68957846Y-81796843D01*
X69141200Y-81740166D01*
X69141200Y-80718800D01*
X68119656Y-80718800D01*
X68063153Y-80902155D01*
X62584486Y-80902155D01*
X62632693Y-80882187D01*
X62793891Y-80774478D01*
X62930978Y-80637391D01*
X63038687Y-80476193D01*
X63075282Y-80387845D01*
X68063153Y-80387845D01*
X68119656Y-80571200D01*
X69141200Y-80571200D01*
X69141200Y-79549834D01*
X68957846Y-79493157D01*
X68788884Y-79544407D01*
X68582357Y-79648686D01*
X68400142Y-79791252D01*
X68249241Y-79966627D01*
X68135454Y-80168072D01*
X68063153Y-80387845D01*
X63075282Y-80387845D01*
X63112878Y-80297081D01*
X63150700Y-80106935D01*
X63150700Y-79913065D01*
X63112878Y-79722919D01*
X63038687Y-79543807D01*
X62930978Y-79382609D01*
X62922569Y-79374200D01*
X71075396Y-79374200D01*
X70840751Y-79530984D01*
X70640984Y-79730751D01*
X70484029Y-79965652D01*
X70375916Y-80226659D01*
X70352518Y-80344289D01*
X70294546Y-80168072D01*
X70180759Y-79966627D01*
X70029858Y-79791252D01*
X69847643Y-79648686D01*
X69641116Y-79544407D01*
X69472154Y-79493157D01*
X69288800Y-79549834D01*
X69288800Y-80571200D01*
X69308800Y-80571200D01*
X69308800Y-80718800D01*
X69288800Y-80718800D01*
X69288800Y-81740166D01*
X69472154Y-81796843D01*
X69641116Y-81745593D01*
X69847643Y-81641314D01*
X70029858Y-81498748D01*
X70180759Y-81323373D01*
X70294546Y-81121928D01*
X70352518Y-80945711D01*
X70375916Y-81063341D01*
X70484029Y-81324348D01*
X70640984Y-81559249D01*
X70840751Y-81759016D01*
X71075652Y-81915971D01*
X71336659Y-82024084D01*
X71613744Y-82079200D01*
X71896256Y-82079200D01*
X72173341Y-82024084D01*
X72434348Y-81915971D01*
X72669249Y-81759016D01*
X72869016Y-81559249D01*
X73025000Y-81325801D01*
X73180984Y-81559249D01*
X73380751Y-81759016D01*
X73558932Y-81878072D01*
X73514288Y-81891615D01*
X73391083Y-81957469D01*
X73283094Y-82046094D01*
X73260887Y-82073153D01*
X73183148Y-82150892D01*
X73156095Y-82173094D01*
X73133893Y-82200147D01*
X73133888Y-82200152D01*
X73103981Y-82236594D01*
X73067470Y-82281083D01*
X73035557Y-82340788D01*
X73001615Y-82404289D01*
X72961062Y-82537973D01*
X72955049Y-82599032D01*
X72953378Y-82615992D01*
X72839472Y-82709472D01*
X72736932Y-82834418D01*
X72660737Y-82976968D01*
X72613817Y-83131643D01*
X72597974Y-83292500D01*
X72597974Y-83867500D01*
X72613817Y-84028357D01*
X72660737Y-84183032D01*
X72736932Y-84325582D01*
X72839472Y-84450528D01*
X72844921Y-84455000D01*
X72839472Y-84459472D01*
X72736932Y-84584418D01*
X72707500Y-84639481D01*
X72678068Y-84584418D01*
X72575528Y-84459472D01*
X72450582Y-84356932D01*
X72446304Y-84354646D01*
X72464617Y-84339617D01*
X72505880Y-84289337D01*
X72536541Y-84231974D01*
X72555423Y-84169731D01*
X72561798Y-84105000D01*
X72560200Y-83736350D01*
X72477650Y-83653800D01*
X71828800Y-83653800D01*
X71828800Y-83673800D01*
X71681200Y-83673800D01*
X71681200Y-83653800D01*
X71032350Y-83653800D01*
X70949800Y-83736350D01*
X70948202Y-84105000D01*
X70954577Y-84169731D01*
X70973459Y-84231974D01*
X71004120Y-84289337D01*
X71045383Y-84339617D01*
X71063696Y-84354646D01*
X71059418Y-84356932D01*
X70934472Y-84459472D01*
X70831932Y-84584418D01*
X70802500Y-84639481D01*
X70773068Y-84584418D01*
X70670528Y-84459472D01*
X70665079Y-84455000D01*
X70670528Y-84450528D01*
X70773068Y-84325582D01*
X70849263Y-84183032D01*
X70896183Y-84028357D01*
X70912026Y-83867500D01*
X70912026Y-83292500D01*
X70896183Y-83131643D01*
X70872934Y-83055000D01*
X70948202Y-83055000D01*
X70949800Y-83423650D01*
X71032350Y-83506200D01*
X71681200Y-83506200D01*
X71681200Y-82807350D01*
X71828800Y-82807350D01*
X71828800Y-83506200D01*
X72477650Y-83506200D01*
X72560200Y-83423650D01*
X72561798Y-83055000D01*
X72555423Y-82990269D01*
X72536541Y-82928026D01*
X72505880Y-82870663D01*
X72464617Y-82820383D01*
X72414337Y-82779120D01*
X72356974Y-82748459D01*
X72294731Y-82729577D01*
X72230000Y-82723202D01*
X71911350Y-82724800D01*
X71828800Y-82807350D01*
X71681200Y-82807350D01*
X71598650Y-82724800D01*
X71280000Y-82723202D01*
X71215269Y-82729577D01*
X71153026Y-82748459D01*
X71095663Y-82779120D01*
X71045383Y-82820383D01*
X71004120Y-82870663D01*
X70973459Y-82928026D01*
X70954577Y-82990269D01*
X70948202Y-83055000D01*
X70872934Y-83055000D01*
X70849263Y-82976968D01*
X70773068Y-82834418D01*
X70670528Y-82709472D01*
X70545582Y-82606932D01*
X70467710Y-82565308D01*
X70463082Y-82550053D01*
X70401759Y-82435326D01*
X70319233Y-82334767D01*
X70294028Y-82314082D01*
X70212918Y-82232972D01*
X70192233Y-82207767D01*
X70091674Y-82125241D01*
X69976947Y-82063918D01*
X69852461Y-82026156D01*
X69755439Y-82016600D01*
X69723000Y-82013405D01*
X69690561Y-82016600D01*
X69247438Y-82016600D01*
X69214999Y-82013405D01*
X69108566Y-82023888D01*
X69085539Y-82026156D01*
X68961053Y-82063918D01*
X68846326Y-82125241D01*
X68745767Y-82207767D01*
X68725078Y-82232977D01*
X68516970Y-82441084D01*
X68516964Y-82441089D01*
X68439753Y-82518300D01*
X68292565Y-82518300D01*
X68102419Y-82556122D01*
X67923307Y-82630313D01*
X67762109Y-82738022D01*
X67625022Y-82875109D01*
X67517313Y-83036307D01*
X67443122Y-83215419D01*
X67405300Y-83405565D01*
X67405300Y-83599435D01*
X67443122Y-83789581D01*
X67517313Y-83968693D01*
X67625022Y-84129891D01*
X67762109Y-84266978D01*
X67923307Y-84374687D01*
X68102419Y-84448878D01*
X68292565Y-84486700D01*
X68486435Y-84486700D01*
X68676581Y-84448878D01*
X68855693Y-84374687D01*
X68927730Y-84326554D01*
X69029472Y-84450528D01*
X69034921Y-84455000D01*
X69029472Y-84459472D01*
X68926932Y-84584418D01*
X68850737Y-84726968D01*
X68803817Y-84881643D01*
X68787974Y-85042500D01*
X68787974Y-85617500D01*
X68789780Y-85635834D01*
X66974418Y-83820472D01*
X66953733Y-83795267D01*
X66853174Y-83712741D01*
X66738447Y-83651418D01*
X66613961Y-83613656D01*
X66516939Y-83604100D01*
X66484500Y-83600905D01*
X66452061Y-83604100D01*
X62897969Y-83604100D01*
X62793891Y-83500022D01*
X62632693Y-83392313D01*
X62453581Y-83318122D01*
X62263435Y-83280300D01*
X62069565Y-83280300D01*
X61879419Y-83318122D01*
X61700307Y-83392313D01*
X61539109Y-83500022D01*
X61402022Y-83637109D01*
X61294313Y-83798307D01*
X61220122Y-83977419D01*
X61182300Y-84167565D01*
X61182300Y-84361435D01*
X61220122Y-84551581D01*
X61294313Y-84730693D01*
X61402022Y-84891891D01*
X61539109Y-85028978D01*
X61700307Y-85136687D01*
X61879419Y-85210878D01*
X62069565Y-85248700D01*
X62263435Y-85248700D01*
X62453581Y-85210878D01*
X62632693Y-85136687D01*
X62793891Y-85028978D01*
X62897969Y-84924900D01*
X66210954Y-84924900D01*
X68852082Y-87566028D01*
X68872767Y-87591233D01*
X68973326Y-87673759D01*
X69088053Y-87735082D01*
X69200945Y-87769327D01*
X69212539Y-87772844D01*
X69341999Y-87785595D01*
X69374438Y-87782400D01*
X69397056Y-87782400D01*
X69380768Y-87795767D01*
X69298242Y-87896326D01*
X69288231Y-87915055D01*
X69236918Y-88011054D01*
X69199156Y-88135540D01*
X69186405Y-88265000D01*
X69189601Y-88297448D01*
X69189601Y-88303126D01*
X69154418Y-88321932D01*
X69029472Y-88424472D01*
X68926932Y-88549418D01*
X68850737Y-88691968D01*
X68803817Y-88846643D01*
X68787974Y-89007500D01*
X68787974Y-89582500D01*
X68803817Y-89743357D01*
X68850737Y-89898032D01*
X68926932Y-90040582D01*
X69029472Y-90165528D01*
X69034921Y-90170000D01*
X69029472Y-90174472D01*
X68985004Y-90228657D01*
X67970400Y-89214054D01*
X67970400Y-87789438D01*
X67973595Y-87756999D01*
X67960844Y-87627539D01*
X67949831Y-87591233D01*
X67923082Y-87503053D01*
X67911514Y-87481411D01*
X67913200Y-87472935D01*
X67913200Y-87279065D01*
X67875378Y-87088919D01*
X67801187Y-86909807D01*
X67693478Y-86748609D01*
X67556391Y-86611522D01*
X67395193Y-86503813D01*
X67216081Y-86429622D01*
X67025935Y-86391800D01*
X66832065Y-86391800D01*
X66641919Y-86429622D01*
X66462807Y-86503813D01*
X66301609Y-86611522D01*
X66164522Y-86748609D01*
X66056813Y-86909807D01*
X65982622Y-87088919D01*
X65944800Y-87279065D01*
X65944800Y-87472935D01*
X65982622Y-87663081D01*
X66056813Y-87842193D01*
X66164522Y-88003391D01*
X66301609Y-88140478D01*
X66462807Y-88248187D01*
X66641919Y-88322378D01*
X66649601Y-88323906D01*
X66649600Y-89455161D01*
X66646405Y-89487600D01*
X66649600Y-89520038D01*
X66659156Y-89617060D01*
X66696918Y-89741546D01*
X66758241Y-89856273D01*
X66840767Y-89956833D01*
X66865972Y-89977518D01*
X68237100Y-91348647D01*
X68237100Y-91598061D01*
X68233905Y-91630500D01*
X68237658Y-91668600D01*
X65043547Y-91668600D01*
X64166700Y-90791754D01*
X64166700Y-90644565D01*
X64128878Y-90454419D01*
X64054687Y-90275307D01*
X63946978Y-90114109D01*
X63809891Y-89977022D01*
X63648693Y-89869313D01*
X63469581Y-89795122D01*
X63279435Y-89757300D01*
X63085565Y-89757300D01*
X62895419Y-89795122D01*
X62716307Y-89869313D01*
X62555109Y-89977022D01*
X62418022Y-90114109D01*
X62310313Y-90275307D01*
X62236122Y-90454419D01*
X62221699Y-90526931D01*
X62069919Y-90557122D01*
X61890807Y-90631313D01*
X61785500Y-90701677D01*
X61680193Y-90631313D01*
X61501081Y-90557122D01*
X61310935Y-90519300D01*
X61117065Y-90519300D01*
X60926919Y-90557122D01*
X60747807Y-90631313D01*
X60586609Y-90739022D01*
X60449522Y-90876109D01*
X60341813Y-91037307D01*
X60289047Y-91164696D01*
X60286233Y-91161267D01*
X60185674Y-91078741D01*
X60070947Y-91017418D01*
X59946461Y-90979656D01*
X59849439Y-90970100D01*
X59817000Y-90966905D01*
X59784561Y-90970100D01*
X58770469Y-90970100D01*
X58666391Y-90866022D01*
X58505193Y-90758313D01*
X58326081Y-90684122D01*
X58135935Y-90646300D01*
X57942065Y-90646300D01*
X57751919Y-90684122D01*
X57732200Y-90692290D01*
X57732200Y-86775824D01*
X57735630Y-86740999D01*
X57732200Y-86706174D01*
X57732200Y-86706165D01*
X57721938Y-86601973D01*
X57681385Y-86468288D01*
X57615531Y-86345083D01*
X57563416Y-86281582D01*
X57549111Y-86264151D01*
X57549108Y-86264148D01*
X57526905Y-86237094D01*
X57499852Y-86214892D01*
X56483200Y-85198240D01*
X56483200Y-85120065D01*
X56445378Y-84929919D01*
X56371187Y-84750807D01*
X56263478Y-84589609D01*
X56126391Y-84452522D01*
X55965193Y-84344813D01*
X55786081Y-84270622D01*
X55595935Y-84232800D01*
X55402065Y-84232800D01*
X55211919Y-84270622D01*
X55032807Y-84344813D01*
X54871609Y-84452522D01*
X54734522Y-84589609D01*
X54626813Y-84750807D01*
X54552622Y-84929919D01*
X54514800Y-85120065D01*
X54514800Y-85313935D01*
X54552622Y-85504081D01*
X54626813Y-85683193D01*
X54734522Y-85844391D01*
X54871609Y-85981478D01*
X55032807Y-86089187D01*
X55211919Y-86163378D01*
X55402065Y-86201200D01*
X55480240Y-86201200D01*
X56313800Y-87034760D01*
X56313801Y-90472283D01*
X56230935Y-90455800D01*
X56037065Y-90455800D01*
X55846919Y-90493622D01*
X55667807Y-90567813D01*
X55506609Y-90675522D01*
X55369522Y-90812609D01*
X55261813Y-90973807D01*
X55187622Y-91152919D01*
X55149800Y-91343065D01*
X55149800Y-91536935D01*
X55187622Y-91727081D01*
X55261813Y-91906193D01*
X55369522Y-92067391D01*
X55506609Y-92204478D01*
X55667807Y-92312187D01*
X55846919Y-92386378D01*
X56037065Y-92424200D01*
X56230935Y-92424200D01*
X56313800Y-92407717D01*
X56313801Y-98377330D01*
X56258522Y-98432609D01*
X56150813Y-98593807D01*
X56076622Y-98772919D01*
X56038800Y-98963065D01*
X56038800Y-99156935D01*
X56076622Y-99347081D01*
X56150813Y-99526193D01*
X56258522Y-99687391D01*
X56395609Y-99824478D01*
X56556807Y-99932187D01*
X56735919Y-100006378D01*
X56926065Y-100044200D01*
X57119935Y-100044200D01*
X57310081Y-100006378D01*
X57489193Y-99932187D01*
X57650391Y-99824478D01*
X57787478Y-99687391D01*
X57895187Y-99526193D01*
X57969378Y-99347081D01*
X58007200Y-99156935D01*
X58007200Y-98963065D01*
X57969378Y-98772919D01*
X57895187Y-98593807D01*
X57787478Y-98432609D01*
X57732200Y-98377331D01*
X57732200Y-93648210D01*
X57751919Y-93656378D01*
X57942065Y-93694200D01*
X58135935Y-93694200D01*
X58326081Y-93656378D01*
X58458100Y-93601694D01*
X58458101Y-97757551D01*
X58454905Y-97790000D01*
X58467656Y-97919460D01*
X58505418Y-98043946D01*
X58516621Y-98064905D01*
X58566742Y-98158674D01*
X58649268Y-98259233D01*
X58674468Y-98279914D01*
X61995353Y-101600800D01*
X45084200Y-101600800D01*
X45084200Y-99602948D01*
X45133193Y-99602948D01*
X45149865Y-99672790D01*
X45223066Y-99840429D01*
X45327565Y-99990566D01*
X45459346Y-100117432D01*
X45613345Y-100216151D01*
X45783645Y-100282929D01*
X45963700Y-100315200D01*
X46313700Y-100315200D01*
X46313700Y-99458800D01*
X46461300Y-99458800D01*
X46461300Y-100315200D01*
X46811300Y-100315200D01*
X46991355Y-100282929D01*
X47161655Y-100216151D01*
X47315654Y-100117432D01*
X47447435Y-99990566D01*
X47551934Y-99840429D01*
X47625135Y-99672790D01*
X47641807Y-99602948D01*
X47581931Y-99458800D01*
X46461300Y-99458800D01*
X46313700Y-99458800D01*
X45193069Y-99458800D01*
X45133193Y-99602948D01*
X45084200Y-99602948D01*
X45084200Y-99167052D01*
X45133193Y-99167052D01*
X45193069Y-99311200D01*
X46313700Y-99311200D01*
X46313700Y-98454800D01*
X46461300Y-98454800D01*
X46461300Y-99311200D01*
X47581931Y-99311200D01*
X47641807Y-99167052D01*
X47632149Y-99126590D01*
X48450279Y-99126590D01*
X48525484Y-99284105D01*
X48711690Y-99376473D01*
X48912338Y-99430738D01*
X49119716Y-99444817D01*
X49325857Y-99418168D01*
X49522838Y-99351815D01*
X49649516Y-99284105D01*
X49724721Y-99126590D01*
X49087500Y-98489369D01*
X48450279Y-99126590D01*
X47632149Y-99126590D01*
X47625135Y-99097210D01*
X47551934Y-98929571D01*
X47447435Y-98779434D01*
X47315654Y-98652568D01*
X47161655Y-98553849D01*
X46991355Y-98487071D01*
X46811300Y-98454800D01*
X46461300Y-98454800D01*
X46313700Y-98454800D01*
X45963700Y-98454800D01*
X45783645Y-98487071D01*
X45613345Y-98553849D01*
X45459346Y-98652568D01*
X45327565Y-98779434D01*
X45223066Y-98929571D01*
X45149865Y-99097210D01*
X45133193Y-99167052D01*
X45084200Y-99167052D01*
X45084200Y-98417216D01*
X48027683Y-98417216D01*
X48054332Y-98623357D01*
X48120685Y-98820338D01*
X48188395Y-98947016D01*
X48345910Y-99022221D01*
X48983131Y-98385000D01*
X49191869Y-98385000D01*
X49829090Y-99022221D01*
X49986605Y-98947016D01*
X50078973Y-98760810D01*
X50133238Y-98560162D01*
X50147317Y-98352784D01*
X50120668Y-98146643D01*
X50054315Y-97949662D01*
X49986605Y-97822984D01*
X49829090Y-97747779D01*
X49191869Y-98385000D01*
X48983131Y-98385000D01*
X48345910Y-97747779D01*
X48188395Y-97822984D01*
X48096027Y-98009190D01*
X48041762Y-98209838D01*
X48027683Y-98417216D01*
X45084200Y-98417216D01*
X45084200Y-97643410D01*
X48450279Y-97643410D01*
X49087500Y-98280631D01*
X49724721Y-97643410D01*
X49649516Y-97485895D01*
X49463310Y-97393527D01*
X49262662Y-97339262D01*
X49055284Y-97325183D01*
X48849143Y-97351832D01*
X48652162Y-97418185D01*
X48525484Y-97485895D01*
X48450279Y-97643410D01*
X45084200Y-97643410D01*
X45084200Y-96296065D01*
X50958812Y-96296065D01*
X50958812Y-96489935D01*
X50996634Y-96680081D01*
X51070825Y-96859193D01*
X51178534Y-97020391D01*
X51315621Y-97157478D01*
X51476819Y-97265187D01*
X51655931Y-97339378D01*
X51846077Y-97377200D01*
X52039947Y-97377200D01*
X52230093Y-97339378D01*
X52409205Y-97265187D01*
X52570403Y-97157478D01*
X52707490Y-97020391D01*
X52815199Y-96859193D01*
X52889390Y-96680081D01*
X52927212Y-96489935D01*
X52927212Y-96342734D01*
X53162746Y-96107200D01*
X53309935Y-96107200D01*
X53500081Y-96069378D01*
X53679193Y-95995187D01*
X53840391Y-95887478D01*
X53977478Y-95750391D01*
X54085187Y-95589193D01*
X54159378Y-95410081D01*
X54197200Y-95219935D01*
X54197200Y-95026065D01*
X54159378Y-94835919D01*
X54085187Y-94656807D01*
X53977478Y-94495609D01*
X53840391Y-94358522D01*
X53679193Y-94250813D01*
X53500081Y-94176622D01*
X53309935Y-94138800D01*
X53116065Y-94138800D01*
X52925919Y-94176622D01*
X52746807Y-94250813D01*
X52585609Y-94358522D01*
X52448522Y-94495609D01*
X52340813Y-94656807D01*
X52266622Y-94835919D01*
X52228800Y-95026065D01*
X52228800Y-95173254D01*
X51993254Y-95408800D01*
X51846077Y-95408800D01*
X51655931Y-95446622D01*
X51476819Y-95520813D01*
X51315621Y-95628522D01*
X51178534Y-95765609D01*
X51070825Y-95926807D01*
X50996634Y-96105919D01*
X50958812Y-96296065D01*
X45084200Y-96296065D01*
X45084200Y-94126590D01*
X48450279Y-94126590D01*
X48525484Y-94284105D01*
X48711690Y-94376473D01*
X48912338Y-94430738D01*
X49119716Y-94444817D01*
X49325857Y-94418168D01*
X49522838Y-94351815D01*
X49649516Y-94284105D01*
X49724721Y-94126590D01*
X49087500Y-93489369D01*
X48450279Y-94126590D01*
X45084200Y-94126590D01*
X45084200Y-93417216D01*
X48027683Y-93417216D01*
X48054332Y-93623357D01*
X48120685Y-93820338D01*
X48188395Y-93947016D01*
X48345910Y-94022221D01*
X48983131Y-93385000D01*
X49191869Y-93385000D01*
X49829090Y-94022221D01*
X49986605Y-93947016D01*
X50078973Y-93760810D01*
X50133238Y-93560162D01*
X50147317Y-93352784D01*
X50120668Y-93146643D01*
X50054315Y-92949662D01*
X49986605Y-92822984D01*
X49829090Y-92747779D01*
X49191869Y-93385000D01*
X48983131Y-93385000D01*
X48345910Y-92747779D01*
X48188395Y-92822984D01*
X48096027Y-93009190D01*
X48041762Y-93209838D01*
X48027683Y-93417216D01*
X45084200Y-93417216D01*
X45084200Y-92602948D01*
X45133193Y-92602948D01*
X45149865Y-92672790D01*
X45223066Y-92840429D01*
X45327565Y-92990566D01*
X45459346Y-93117432D01*
X45613345Y-93216151D01*
X45783645Y-93282929D01*
X45963700Y-93315200D01*
X46313700Y-93315200D01*
X46313700Y-92458800D01*
X46461300Y-92458800D01*
X46461300Y-93315200D01*
X46811300Y-93315200D01*
X46991355Y-93282929D01*
X47161655Y-93216151D01*
X47315654Y-93117432D01*
X47447435Y-92990566D01*
X47551934Y-92840429D01*
X47625135Y-92672790D01*
X47632148Y-92643410D01*
X48450279Y-92643410D01*
X49087500Y-93280631D01*
X49724721Y-92643410D01*
X49649516Y-92485895D01*
X49463310Y-92393527D01*
X49262662Y-92339262D01*
X49055284Y-92325183D01*
X48849143Y-92351832D01*
X48652162Y-92418185D01*
X48525484Y-92485895D01*
X48450279Y-92643410D01*
X47632148Y-92643410D01*
X47641807Y-92602948D01*
X47581931Y-92458800D01*
X46461300Y-92458800D01*
X46313700Y-92458800D01*
X45193069Y-92458800D01*
X45133193Y-92602948D01*
X45084200Y-92602948D01*
X45084200Y-92167052D01*
X45133193Y-92167052D01*
X45193069Y-92311200D01*
X46313700Y-92311200D01*
X46313700Y-91454800D01*
X46461300Y-91454800D01*
X46461300Y-92311200D01*
X47581931Y-92311200D01*
X47641807Y-92167052D01*
X47625135Y-92097210D01*
X47551934Y-91929571D01*
X47447435Y-91779434D01*
X47315654Y-91652568D01*
X47161655Y-91553849D01*
X46991355Y-91487071D01*
X46811300Y-91454800D01*
X46461300Y-91454800D01*
X46313700Y-91454800D01*
X45963700Y-91454800D01*
X45783645Y-91487071D01*
X45613345Y-91553849D01*
X45459346Y-91652568D01*
X45327565Y-91779434D01*
X45223066Y-91929571D01*
X45149865Y-92097210D01*
X45133193Y-92167052D01*
X45084200Y-92167052D01*
X45084200Y-80718800D01*
X45964800Y-80718800D01*
X45964800Y-80993800D01*
X45997071Y-81173855D01*
X46063849Y-81344155D01*
X46162568Y-81498154D01*
X46289434Y-81629935D01*
X46439571Y-81734434D01*
X46607210Y-81807635D01*
X46677052Y-81824307D01*
X46821200Y-81764431D01*
X46821200Y-80718800D01*
X45964800Y-80718800D01*
X45084200Y-80718800D01*
X45084200Y-80296200D01*
X45964800Y-80296200D01*
X45964800Y-80571200D01*
X46821200Y-80571200D01*
X46821200Y-79525569D01*
X46677052Y-79465693D01*
X46607210Y-79482365D01*
X46439571Y-79555566D01*
X46289434Y-79660065D01*
X46162568Y-79791846D01*
X46063849Y-79945845D01*
X45997071Y-80116145D01*
X45964800Y-80296200D01*
X45084200Y-80296200D01*
X45084200Y-79374200D01*
X48018850Y-79374200D01*
X47953133Y-79428133D01*
%TA.AperFunction,Conductor*%
D18*
G36*
X47953133Y-79428133D02*
G01*
X47849038Y-79554973D01*
X47771689Y-79699683D01*
X47724057Y-79856704D01*
X47716726Y-79931142D01*
X47627432Y-79791846D01*
X47500566Y-79660065D01*
X47350429Y-79555566D01*
X47182790Y-79482365D01*
X47112948Y-79465693D01*
X46968800Y-79525569D01*
X46968800Y-80571200D01*
X46988800Y-80571200D01*
X46988800Y-80718800D01*
X46968800Y-80718800D01*
X46968800Y-81764431D01*
X47112948Y-81824307D01*
X47182790Y-81807635D01*
X47350429Y-81734434D01*
X47500566Y-81629935D01*
X47627432Y-81498154D01*
X47716726Y-81358858D01*
X47724057Y-81433296D01*
X47771689Y-81590317D01*
X47849038Y-81735027D01*
X47953133Y-81861867D01*
X48079973Y-81965962D01*
X48224683Y-82043311D01*
X48381704Y-82090943D01*
X48544999Y-82107026D01*
X49245001Y-82107026D01*
X49408296Y-82090943D01*
X49565317Y-82043311D01*
X49710027Y-81965962D01*
X49836867Y-81861867D01*
X49940962Y-81735027D01*
X50018311Y-81590317D01*
X50065943Y-81433296D01*
X50082026Y-81270001D01*
X50082026Y-80019999D01*
X50065943Y-79856704D01*
X50018311Y-79699683D01*
X49940962Y-79554973D01*
X49836867Y-79428133D01*
X49771150Y-79374200D01*
X54806431Y-79374200D01*
X54798022Y-79382609D01*
X54690313Y-79543807D01*
X54616122Y-79722919D01*
X54578300Y-79913065D01*
X54578300Y-80106935D01*
X54616122Y-80297081D01*
X54690313Y-80476193D01*
X54798022Y-80637391D01*
X54935109Y-80774478D01*
X55096307Y-80882187D01*
X55275419Y-80956378D01*
X55465565Y-80994200D01*
X55659435Y-80994200D01*
X55849581Y-80956378D01*
X56028693Y-80882187D01*
X56189891Y-80774478D01*
X56293969Y-80670400D01*
X61435031Y-80670400D01*
X61539109Y-80774478D01*
X61700307Y-80882187D01*
X61879419Y-80956378D01*
X62069565Y-80994200D01*
X62263435Y-80994200D01*
X62453581Y-80956378D01*
X62584486Y-80902155D01*
X68063153Y-80902155D01*
X68135454Y-81121928D01*
X68249241Y-81323373D01*
X68400142Y-81498748D01*
X68582357Y-81641314D01*
X68788884Y-81745593D01*
X68957846Y-81796843D01*
X69141200Y-81740166D01*
X69141200Y-80718800D01*
X68119656Y-80718800D01*
X68063153Y-80902155D01*
X62584486Y-80902155D01*
X62632693Y-80882187D01*
X62793891Y-80774478D01*
X62930978Y-80637391D01*
X63038687Y-80476193D01*
X63075282Y-80387845D01*
X68063153Y-80387845D01*
X68119656Y-80571200D01*
X69141200Y-80571200D01*
X69141200Y-79549834D01*
X68957846Y-79493157D01*
X68788884Y-79544407D01*
X68582357Y-79648686D01*
X68400142Y-79791252D01*
X68249241Y-79966627D01*
X68135454Y-80168072D01*
X68063153Y-80387845D01*
X63075282Y-80387845D01*
X63112878Y-80297081D01*
X63150700Y-80106935D01*
X63150700Y-79913065D01*
X63112878Y-79722919D01*
X63038687Y-79543807D01*
X62930978Y-79382609D01*
X62922569Y-79374200D01*
X71075396Y-79374200D01*
X70840751Y-79530984D01*
X70640984Y-79730751D01*
X70484029Y-79965652D01*
X70375916Y-80226659D01*
X70352518Y-80344289D01*
X70294546Y-80168072D01*
X70180759Y-79966627D01*
X70029858Y-79791252D01*
X69847643Y-79648686D01*
X69641116Y-79544407D01*
X69472154Y-79493157D01*
X69288800Y-79549834D01*
X69288800Y-80571200D01*
X69308800Y-80571200D01*
X69308800Y-80718800D01*
X69288800Y-80718800D01*
X69288800Y-81740166D01*
X69472154Y-81796843D01*
X69641116Y-81745593D01*
X69847643Y-81641314D01*
X70029858Y-81498748D01*
X70180759Y-81323373D01*
X70294546Y-81121928D01*
X70352518Y-80945711D01*
X70375916Y-81063341D01*
X70484029Y-81324348D01*
X70640984Y-81559249D01*
X70840751Y-81759016D01*
X71075652Y-81915971D01*
X71336659Y-82024084D01*
X71613744Y-82079200D01*
X71896256Y-82079200D01*
X72173341Y-82024084D01*
X72434348Y-81915971D01*
X72669249Y-81759016D01*
X72869016Y-81559249D01*
X73025000Y-81325801D01*
X73180984Y-81559249D01*
X73380751Y-81759016D01*
X73558932Y-81878072D01*
X73514288Y-81891615D01*
X73391083Y-81957469D01*
X73283094Y-82046094D01*
X73260887Y-82073153D01*
X73183148Y-82150892D01*
X73156095Y-82173094D01*
X73133893Y-82200147D01*
X73133888Y-82200152D01*
X73103981Y-82236594D01*
X73067470Y-82281083D01*
X73035557Y-82340788D01*
X73001615Y-82404289D01*
X72961062Y-82537973D01*
X72955049Y-82599032D01*
X72953378Y-82615992D01*
X72839472Y-82709472D01*
X72736932Y-82834418D01*
X72660737Y-82976968D01*
X72613817Y-83131643D01*
X72597974Y-83292500D01*
X72597974Y-83867500D01*
X72613817Y-84028357D01*
X72660737Y-84183032D01*
X72736932Y-84325582D01*
X72839472Y-84450528D01*
X72844921Y-84455000D01*
X72839472Y-84459472D01*
X72736932Y-84584418D01*
X72707500Y-84639481D01*
X72678068Y-84584418D01*
X72575528Y-84459472D01*
X72450582Y-84356932D01*
X72446304Y-84354646D01*
X72464617Y-84339617D01*
X72505880Y-84289337D01*
X72536541Y-84231974D01*
X72555423Y-84169731D01*
X72561798Y-84105000D01*
X72560200Y-83736350D01*
X72477650Y-83653800D01*
X71828800Y-83653800D01*
X71828800Y-83673800D01*
X71681200Y-83673800D01*
X71681200Y-83653800D01*
X71032350Y-83653800D01*
X70949800Y-83736350D01*
X70948202Y-84105000D01*
X70954577Y-84169731D01*
X70973459Y-84231974D01*
X71004120Y-84289337D01*
X71045383Y-84339617D01*
X71063696Y-84354646D01*
X71059418Y-84356932D01*
X70934472Y-84459472D01*
X70831932Y-84584418D01*
X70802500Y-84639481D01*
X70773068Y-84584418D01*
X70670528Y-84459472D01*
X70665079Y-84455000D01*
X70670528Y-84450528D01*
X70773068Y-84325582D01*
X70849263Y-84183032D01*
X70896183Y-84028357D01*
X70912026Y-83867500D01*
X70912026Y-83292500D01*
X70896183Y-83131643D01*
X70872934Y-83055000D01*
X70948202Y-83055000D01*
X70949800Y-83423650D01*
X71032350Y-83506200D01*
X71681200Y-83506200D01*
X71681200Y-82807350D01*
X71828800Y-82807350D01*
X71828800Y-83506200D01*
X72477650Y-83506200D01*
X72560200Y-83423650D01*
X72561798Y-83055000D01*
X72555423Y-82990269D01*
X72536541Y-82928026D01*
X72505880Y-82870663D01*
X72464617Y-82820383D01*
X72414337Y-82779120D01*
X72356974Y-82748459D01*
X72294731Y-82729577D01*
X72230000Y-82723202D01*
X71911350Y-82724800D01*
X71828800Y-82807350D01*
X71681200Y-82807350D01*
X71598650Y-82724800D01*
X71280000Y-82723202D01*
X71215269Y-82729577D01*
X71153026Y-82748459D01*
X71095663Y-82779120D01*
X71045383Y-82820383D01*
X71004120Y-82870663D01*
X70973459Y-82928026D01*
X70954577Y-82990269D01*
X70948202Y-83055000D01*
X70872934Y-83055000D01*
X70849263Y-82976968D01*
X70773068Y-82834418D01*
X70670528Y-82709472D01*
X70545582Y-82606932D01*
X70467710Y-82565308D01*
X70463082Y-82550053D01*
X70401759Y-82435326D01*
X70319233Y-82334767D01*
X70294028Y-82314082D01*
X70212918Y-82232972D01*
X70192233Y-82207767D01*
X70091674Y-82125241D01*
X69976947Y-82063918D01*
X69852461Y-82026156D01*
X69755439Y-82016600D01*
X69723000Y-82013405D01*
X69690561Y-82016600D01*
X69247438Y-82016600D01*
X69214999Y-82013405D01*
X69108566Y-82023888D01*
X69085539Y-82026156D01*
X68961053Y-82063918D01*
X68846326Y-82125241D01*
X68745767Y-82207767D01*
X68725078Y-82232977D01*
X68516970Y-82441084D01*
X68516964Y-82441089D01*
X68439753Y-82518300D01*
X68292565Y-82518300D01*
X68102419Y-82556122D01*
X67923307Y-82630313D01*
X67762109Y-82738022D01*
X67625022Y-82875109D01*
X67517313Y-83036307D01*
X67443122Y-83215419D01*
X67405300Y-83405565D01*
X67405300Y-83599435D01*
X67443122Y-83789581D01*
X67517313Y-83968693D01*
X67625022Y-84129891D01*
X67762109Y-84266978D01*
X67923307Y-84374687D01*
X68102419Y-84448878D01*
X68292565Y-84486700D01*
X68486435Y-84486700D01*
X68676581Y-84448878D01*
X68855693Y-84374687D01*
X68927730Y-84326554D01*
X69029472Y-84450528D01*
X69034921Y-84455000D01*
X69029472Y-84459472D01*
X68926932Y-84584418D01*
X68850737Y-84726968D01*
X68803817Y-84881643D01*
X68787974Y-85042500D01*
X68787974Y-85617500D01*
X68789780Y-85635834D01*
X66974418Y-83820472D01*
X66953733Y-83795267D01*
X66853174Y-83712741D01*
X66738447Y-83651418D01*
X66613961Y-83613656D01*
X66516939Y-83604100D01*
X66484500Y-83600905D01*
X66452061Y-83604100D01*
X62897969Y-83604100D01*
X62793891Y-83500022D01*
X62632693Y-83392313D01*
X62453581Y-83318122D01*
X62263435Y-83280300D01*
X62069565Y-83280300D01*
X61879419Y-83318122D01*
X61700307Y-83392313D01*
X61539109Y-83500022D01*
X61402022Y-83637109D01*
X61294313Y-83798307D01*
X61220122Y-83977419D01*
X61182300Y-84167565D01*
X61182300Y-84361435D01*
X61220122Y-84551581D01*
X61294313Y-84730693D01*
X61402022Y-84891891D01*
X61539109Y-85028978D01*
X61700307Y-85136687D01*
X61879419Y-85210878D01*
X62069565Y-85248700D01*
X62263435Y-85248700D01*
X62453581Y-85210878D01*
X62632693Y-85136687D01*
X62793891Y-85028978D01*
X62897969Y-84924900D01*
X66210954Y-84924900D01*
X68852082Y-87566028D01*
X68872767Y-87591233D01*
X68973326Y-87673759D01*
X69088053Y-87735082D01*
X69200945Y-87769327D01*
X69212539Y-87772844D01*
X69341999Y-87785595D01*
X69374438Y-87782400D01*
X69397056Y-87782400D01*
X69380768Y-87795767D01*
X69298242Y-87896326D01*
X69288231Y-87915055D01*
X69236918Y-88011054D01*
X69199156Y-88135540D01*
X69186405Y-88265000D01*
X69189601Y-88297448D01*
X69189601Y-88303126D01*
X69154418Y-88321932D01*
X69029472Y-88424472D01*
X68926932Y-88549418D01*
X68850737Y-88691968D01*
X68803817Y-88846643D01*
X68787974Y-89007500D01*
X68787974Y-89582500D01*
X68803817Y-89743357D01*
X68850737Y-89898032D01*
X68926932Y-90040582D01*
X69029472Y-90165528D01*
X69034921Y-90170000D01*
X69029472Y-90174472D01*
X68985004Y-90228657D01*
X67970400Y-89214054D01*
X67970400Y-87789438D01*
X67973595Y-87756999D01*
X67960844Y-87627539D01*
X67949831Y-87591233D01*
X67923082Y-87503053D01*
X67911514Y-87481411D01*
X67913200Y-87472935D01*
X67913200Y-87279065D01*
X67875378Y-87088919D01*
X67801187Y-86909807D01*
X67693478Y-86748609D01*
X67556391Y-86611522D01*
X67395193Y-86503813D01*
X67216081Y-86429622D01*
X67025935Y-86391800D01*
X66832065Y-86391800D01*
X66641919Y-86429622D01*
X66462807Y-86503813D01*
X66301609Y-86611522D01*
X66164522Y-86748609D01*
X66056813Y-86909807D01*
X65982622Y-87088919D01*
X65944800Y-87279065D01*
X65944800Y-87472935D01*
X65982622Y-87663081D01*
X66056813Y-87842193D01*
X66164522Y-88003391D01*
X66301609Y-88140478D01*
X66462807Y-88248187D01*
X66641919Y-88322378D01*
X66649601Y-88323906D01*
X66649600Y-89455161D01*
X66646405Y-89487600D01*
X66649600Y-89520038D01*
X66659156Y-89617060D01*
X66696918Y-89741546D01*
X66758241Y-89856273D01*
X66840767Y-89956833D01*
X66865972Y-89977518D01*
X68237100Y-91348647D01*
X68237100Y-91598061D01*
X68233905Y-91630500D01*
X68237658Y-91668600D01*
X65043547Y-91668600D01*
X64166700Y-90791754D01*
X64166700Y-90644565D01*
X64128878Y-90454419D01*
X64054687Y-90275307D01*
X63946978Y-90114109D01*
X63809891Y-89977022D01*
X63648693Y-89869313D01*
X63469581Y-89795122D01*
X63279435Y-89757300D01*
X63085565Y-89757300D01*
X62895419Y-89795122D01*
X62716307Y-89869313D01*
X62555109Y-89977022D01*
X62418022Y-90114109D01*
X62310313Y-90275307D01*
X62236122Y-90454419D01*
X62221699Y-90526931D01*
X62069919Y-90557122D01*
X61890807Y-90631313D01*
X61785500Y-90701677D01*
X61680193Y-90631313D01*
X61501081Y-90557122D01*
X61310935Y-90519300D01*
X61117065Y-90519300D01*
X60926919Y-90557122D01*
X60747807Y-90631313D01*
X60586609Y-90739022D01*
X60449522Y-90876109D01*
X60341813Y-91037307D01*
X60289047Y-91164696D01*
X60286233Y-91161267D01*
X60185674Y-91078741D01*
X60070947Y-91017418D01*
X59946461Y-90979656D01*
X59849439Y-90970100D01*
X59817000Y-90966905D01*
X59784561Y-90970100D01*
X58770469Y-90970100D01*
X58666391Y-90866022D01*
X58505193Y-90758313D01*
X58326081Y-90684122D01*
X58135935Y-90646300D01*
X57942065Y-90646300D01*
X57751919Y-90684122D01*
X57732200Y-90692290D01*
X57732200Y-86775824D01*
X57735630Y-86740999D01*
X57732200Y-86706174D01*
X57732200Y-86706165D01*
X57721938Y-86601973D01*
X57681385Y-86468288D01*
X57615531Y-86345083D01*
X57563416Y-86281582D01*
X57549111Y-86264151D01*
X57549108Y-86264148D01*
X57526905Y-86237094D01*
X57499852Y-86214892D01*
X56483200Y-85198240D01*
X56483200Y-85120065D01*
X56445378Y-84929919D01*
X56371187Y-84750807D01*
X56263478Y-84589609D01*
X56126391Y-84452522D01*
X55965193Y-84344813D01*
X55786081Y-84270622D01*
X55595935Y-84232800D01*
X55402065Y-84232800D01*
X55211919Y-84270622D01*
X55032807Y-84344813D01*
X54871609Y-84452522D01*
X54734522Y-84589609D01*
X54626813Y-84750807D01*
X54552622Y-84929919D01*
X54514800Y-85120065D01*
X54514800Y-85313935D01*
X54552622Y-85504081D01*
X54626813Y-85683193D01*
X54734522Y-85844391D01*
X54871609Y-85981478D01*
X55032807Y-86089187D01*
X55211919Y-86163378D01*
X55402065Y-86201200D01*
X55480240Y-86201200D01*
X56313800Y-87034760D01*
X56313801Y-90472283D01*
X56230935Y-90455800D01*
X56037065Y-90455800D01*
X55846919Y-90493622D01*
X55667807Y-90567813D01*
X55506609Y-90675522D01*
X55369522Y-90812609D01*
X55261813Y-90973807D01*
X55187622Y-91152919D01*
X55149800Y-91343065D01*
X55149800Y-91536935D01*
X55187622Y-91727081D01*
X55261813Y-91906193D01*
X55369522Y-92067391D01*
X55506609Y-92204478D01*
X55667807Y-92312187D01*
X55846919Y-92386378D01*
X56037065Y-92424200D01*
X56230935Y-92424200D01*
X56313800Y-92407717D01*
X56313801Y-98377330D01*
X56258522Y-98432609D01*
X56150813Y-98593807D01*
X56076622Y-98772919D01*
X56038800Y-98963065D01*
X56038800Y-99156935D01*
X56076622Y-99347081D01*
X56150813Y-99526193D01*
X56258522Y-99687391D01*
X56395609Y-99824478D01*
X56556807Y-99932187D01*
X56735919Y-100006378D01*
X56926065Y-100044200D01*
X57119935Y-100044200D01*
X57310081Y-100006378D01*
X57489193Y-99932187D01*
X57650391Y-99824478D01*
X57787478Y-99687391D01*
X57895187Y-99526193D01*
X57969378Y-99347081D01*
X58007200Y-99156935D01*
X58007200Y-98963065D01*
X57969378Y-98772919D01*
X57895187Y-98593807D01*
X57787478Y-98432609D01*
X57732200Y-98377331D01*
X57732200Y-93648210D01*
X57751919Y-93656378D01*
X57942065Y-93694200D01*
X58135935Y-93694200D01*
X58326081Y-93656378D01*
X58458100Y-93601694D01*
X58458101Y-97757551D01*
X58454905Y-97790000D01*
X58467656Y-97919460D01*
X58505418Y-98043946D01*
X58516621Y-98064905D01*
X58566742Y-98158674D01*
X58649268Y-98259233D01*
X58674468Y-98279914D01*
X61995353Y-101600800D01*
X45084200Y-101600800D01*
X45084200Y-99602948D01*
X45133193Y-99602948D01*
X45149865Y-99672790D01*
X45223066Y-99840429D01*
X45327565Y-99990566D01*
X45459346Y-100117432D01*
X45613345Y-100216151D01*
X45783645Y-100282929D01*
X45963700Y-100315200D01*
X46313700Y-100315200D01*
X46313700Y-99458800D01*
X46461300Y-99458800D01*
X46461300Y-100315200D01*
X46811300Y-100315200D01*
X46991355Y-100282929D01*
X47161655Y-100216151D01*
X47315654Y-100117432D01*
X47447435Y-99990566D01*
X47551934Y-99840429D01*
X47625135Y-99672790D01*
X47641807Y-99602948D01*
X47581931Y-99458800D01*
X46461300Y-99458800D01*
X46313700Y-99458800D01*
X45193069Y-99458800D01*
X45133193Y-99602948D01*
X45084200Y-99602948D01*
X45084200Y-99167052D01*
X45133193Y-99167052D01*
X45193069Y-99311200D01*
X46313700Y-99311200D01*
X46313700Y-98454800D01*
X46461300Y-98454800D01*
X46461300Y-99311200D01*
X47581931Y-99311200D01*
X47641807Y-99167052D01*
X47632149Y-99126590D01*
X48450279Y-99126590D01*
X48525484Y-99284105D01*
X48711690Y-99376473D01*
X48912338Y-99430738D01*
X49119716Y-99444817D01*
X49325857Y-99418168D01*
X49522838Y-99351815D01*
X49649516Y-99284105D01*
X49724721Y-99126590D01*
X49087500Y-98489369D01*
X48450279Y-99126590D01*
X47632149Y-99126590D01*
X47625135Y-99097210D01*
X47551934Y-98929571D01*
X47447435Y-98779434D01*
X47315654Y-98652568D01*
X47161655Y-98553849D01*
X46991355Y-98487071D01*
X46811300Y-98454800D01*
X46461300Y-98454800D01*
X46313700Y-98454800D01*
X45963700Y-98454800D01*
X45783645Y-98487071D01*
X45613345Y-98553849D01*
X45459346Y-98652568D01*
X45327565Y-98779434D01*
X45223066Y-98929571D01*
X45149865Y-99097210D01*
X45133193Y-99167052D01*
X45084200Y-99167052D01*
X45084200Y-98417216D01*
X48027683Y-98417216D01*
X48054332Y-98623357D01*
X48120685Y-98820338D01*
X48188395Y-98947016D01*
X48345910Y-99022221D01*
X48983131Y-98385000D01*
X49191869Y-98385000D01*
X49829090Y-99022221D01*
X49986605Y-98947016D01*
X50078973Y-98760810D01*
X50133238Y-98560162D01*
X50147317Y-98352784D01*
X50120668Y-98146643D01*
X50054315Y-97949662D01*
X49986605Y-97822984D01*
X49829090Y-97747779D01*
X49191869Y-98385000D01*
X48983131Y-98385000D01*
X48345910Y-97747779D01*
X48188395Y-97822984D01*
X48096027Y-98009190D01*
X48041762Y-98209838D01*
X48027683Y-98417216D01*
X45084200Y-98417216D01*
X45084200Y-97643410D01*
X48450279Y-97643410D01*
X49087500Y-98280631D01*
X49724721Y-97643410D01*
X49649516Y-97485895D01*
X49463310Y-97393527D01*
X49262662Y-97339262D01*
X49055284Y-97325183D01*
X48849143Y-97351832D01*
X48652162Y-97418185D01*
X48525484Y-97485895D01*
X48450279Y-97643410D01*
X45084200Y-97643410D01*
X45084200Y-96296065D01*
X50958812Y-96296065D01*
X50958812Y-96489935D01*
X50996634Y-96680081D01*
X51070825Y-96859193D01*
X51178534Y-97020391D01*
X51315621Y-97157478D01*
X51476819Y-97265187D01*
X51655931Y-97339378D01*
X51846077Y-97377200D01*
X52039947Y-97377200D01*
X52230093Y-97339378D01*
X52409205Y-97265187D01*
X52570403Y-97157478D01*
X52707490Y-97020391D01*
X52815199Y-96859193D01*
X52889390Y-96680081D01*
X52927212Y-96489935D01*
X52927212Y-96342734D01*
X53162746Y-96107200D01*
X53309935Y-96107200D01*
X53500081Y-96069378D01*
X53679193Y-95995187D01*
X53840391Y-95887478D01*
X53977478Y-95750391D01*
X54085187Y-95589193D01*
X54159378Y-95410081D01*
X54197200Y-95219935D01*
X54197200Y-95026065D01*
X54159378Y-94835919D01*
X54085187Y-94656807D01*
X53977478Y-94495609D01*
X53840391Y-94358522D01*
X53679193Y-94250813D01*
X53500081Y-94176622D01*
X53309935Y-94138800D01*
X53116065Y-94138800D01*
X52925919Y-94176622D01*
X52746807Y-94250813D01*
X52585609Y-94358522D01*
X52448522Y-94495609D01*
X52340813Y-94656807D01*
X52266622Y-94835919D01*
X52228800Y-95026065D01*
X52228800Y-95173254D01*
X51993254Y-95408800D01*
X51846077Y-95408800D01*
X51655931Y-95446622D01*
X51476819Y-95520813D01*
X51315621Y-95628522D01*
X51178534Y-95765609D01*
X51070825Y-95926807D01*
X50996634Y-96105919D01*
X50958812Y-96296065D01*
X45084200Y-96296065D01*
X45084200Y-94126590D01*
X48450279Y-94126590D01*
X48525484Y-94284105D01*
X48711690Y-94376473D01*
X48912338Y-94430738D01*
X49119716Y-94444817D01*
X49325857Y-94418168D01*
X49522838Y-94351815D01*
X49649516Y-94284105D01*
X49724721Y-94126590D01*
X49087500Y-93489369D01*
X48450279Y-94126590D01*
X45084200Y-94126590D01*
X45084200Y-93417216D01*
X48027683Y-93417216D01*
X48054332Y-93623357D01*
X48120685Y-93820338D01*
X48188395Y-93947016D01*
X48345910Y-94022221D01*
X48983131Y-93385000D01*
X49191869Y-93385000D01*
X49829090Y-94022221D01*
X49986605Y-93947016D01*
X50078973Y-93760810D01*
X50133238Y-93560162D01*
X50147317Y-93352784D01*
X50120668Y-93146643D01*
X50054315Y-92949662D01*
X49986605Y-92822984D01*
X49829090Y-92747779D01*
X49191869Y-93385000D01*
X48983131Y-93385000D01*
X48345910Y-92747779D01*
X48188395Y-92822984D01*
X48096027Y-93009190D01*
X48041762Y-93209838D01*
X48027683Y-93417216D01*
X45084200Y-93417216D01*
X45084200Y-92602948D01*
X45133193Y-92602948D01*
X45149865Y-92672790D01*
X45223066Y-92840429D01*
X45327565Y-92990566D01*
X45459346Y-93117432D01*
X45613345Y-93216151D01*
X45783645Y-93282929D01*
X45963700Y-93315200D01*
X46313700Y-93315200D01*
X46313700Y-92458800D01*
X46461300Y-92458800D01*
X46461300Y-93315200D01*
X46811300Y-93315200D01*
X46991355Y-93282929D01*
X47161655Y-93216151D01*
X47315654Y-93117432D01*
X47447435Y-92990566D01*
X47551934Y-92840429D01*
X47625135Y-92672790D01*
X47632148Y-92643410D01*
X48450279Y-92643410D01*
X49087500Y-93280631D01*
X49724721Y-92643410D01*
X49649516Y-92485895D01*
X49463310Y-92393527D01*
X49262662Y-92339262D01*
X49055284Y-92325183D01*
X48849143Y-92351832D01*
X48652162Y-92418185D01*
X48525484Y-92485895D01*
X48450279Y-92643410D01*
X47632148Y-92643410D01*
X47641807Y-92602948D01*
X47581931Y-92458800D01*
X46461300Y-92458800D01*
X46313700Y-92458800D01*
X45193069Y-92458800D01*
X45133193Y-92602948D01*
X45084200Y-92602948D01*
X45084200Y-92167052D01*
X45133193Y-92167052D01*
X45193069Y-92311200D01*
X46313700Y-92311200D01*
X46313700Y-91454800D01*
X46461300Y-91454800D01*
X46461300Y-92311200D01*
X47581931Y-92311200D01*
X47641807Y-92167052D01*
X47625135Y-92097210D01*
X47551934Y-91929571D01*
X47447435Y-91779434D01*
X47315654Y-91652568D01*
X47161655Y-91553849D01*
X46991355Y-91487071D01*
X46811300Y-91454800D01*
X46461300Y-91454800D01*
X46313700Y-91454800D01*
X45963700Y-91454800D01*
X45783645Y-91487071D01*
X45613345Y-91553849D01*
X45459346Y-91652568D01*
X45327565Y-91779434D01*
X45223066Y-91929571D01*
X45149865Y-92097210D01*
X45133193Y-92167052D01*
X45084200Y-92167052D01*
X45084200Y-80718800D01*
X45964800Y-80718800D01*
X45964800Y-80993800D01*
X45997071Y-81173855D01*
X46063849Y-81344155D01*
X46162568Y-81498154D01*
X46289434Y-81629935D01*
X46439571Y-81734434D01*
X46607210Y-81807635D01*
X46677052Y-81824307D01*
X46821200Y-81764431D01*
X46821200Y-80718800D01*
X45964800Y-80718800D01*
X45084200Y-80718800D01*
X45084200Y-80296200D01*
X45964800Y-80296200D01*
X45964800Y-80571200D01*
X46821200Y-80571200D01*
X46821200Y-79525569D01*
X46677052Y-79465693D01*
X46607210Y-79482365D01*
X46439571Y-79555566D01*
X46289434Y-79660065D01*
X46162568Y-79791846D01*
X46063849Y-79945845D01*
X45997071Y-80116145D01*
X45964800Y-80296200D01*
X45084200Y-80296200D01*
X45084200Y-79374200D01*
X48018850Y-79374200D01*
X47953133Y-79428133D01*
G37*
%TD.AperFunction*%
D16*
X88097287Y-101600800D02*
X80625656Y-101600800D01*
X82499747Y-99726710D01*
X82646935Y-99726710D01*
X82837081Y-99688888D01*
X83016193Y-99614697D01*
X83177391Y-99506988D01*
X83314478Y-99369901D01*
X83422187Y-99208703D01*
X83496378Y-99029591D01*
X83534200Y-98839445D01*
X83534200Y-98645575D01*
X83496378Y-98455429D01*
X83422187Y-98276317D01*
X83314478Y-98115119D01*
X83177391Y-97978032D01*
X83016193Y-97870323D01*
X82837081Y-97796132D01*
X82646935Y-97758310D01*
X82453065Y-97758310D01*
X82262919Y-97796132D01*
X82083807Y-97870323D01*
X81922609Y-97978032D01*
X81915005Y-97985636D01*
X81907391Y-97978022D01*
X81746193Y-97870313D01*
X81567081Y-97796122D01*
X81376935Y-97758300D01*
X81183065Y-97758300D01*
X80992919Y-97796122D01*
X80813807Y-97870313D01*
X80652609Y-97978022D01*
X80515522Y-98115109D01*
X80407813Y-98276307D01*
X80333622Y-98455419D01*
X80295800Y-98645565D01*
X80295800Y-98839435D01*
X80333622Y-99029581D01*
X80401969Y-99194584D01*
X79101454Y-100495100D01*
X78111847Y-100495100D01*
X78410034Y-100196913D01*
X78435233Y-100176233D01*
X78517759Y-100075674D01*
X78579082Y-99960947D01*
X78616844Y-99836461D01*
X78621260Y-99791621D01*
X78670155Y-99786805D01*
X78794346Y-99749132D01*
X78908802Y-99687955D01*
X79009123Y-99605623D01*
X79091455Y-99505302D01*
X79152632Y-99390846D01*
X79190305Y-99266655D01*
X79203026Y-99137500D01*
X79203026Y-98567700D01*
X79239802Y-98567700D01*
X79239802Y-98485152D01*
X79322350Y-98567700D01*
X79589215Y-98569293D01*
X79653979Y-98563266D01*
X79716322Y-98544720D01*
X79773850Y-98514368D01*
X79824351Y-98473376D01*
X79865884Y-98423319D01*
X79896854Y-98366121D01*
X79916070Y-98303981D01*
X79921200Y-98243850D01*
X79887374Y-98210024D01*
X79984123Y-98130623D01*
X80066455Y-98030302D01*
X80127632Y-97915846D01*
X80165305Y-97791655D01*
X80178026Y-97662500D01*
X80178026Y-97512500D01*
X80165305Y-97383345D01*
X80151398Y-97337500D01*
X80165305Y-97291655D01*
X80165960Y-97285000D01*
X80473202Y-97285000D01*
X80479577Y-97349731D01*
X80498459Y-97411974D01*
X80529120Y-97469337D01*
X80570383Y-97519617D01*
X80620663Y-97560880D01*
X80678026Y-97591541D01*
X80740269Y-97610423D01*
X80805000Y-97616798D01*
X81123650Y-97615200D01*
X81206200Y-97532650D01*
X81206200Y-96833800D01*
X81353800Y-96833800D01*
X81353800Y-97532650D01*
X81436350Y-97615200D01*
X81755000Y-97616798D01*
X81819731Y-97610423D01*
X81881974Y-97591541D01*
X81939337Y-97560880D01*
X81989617Y-97519617D01*
X82030880Y-97469337D01*
X82061541Y-97411974D01*
X82080423Y-97349731D01*
X82086798Y-97285000D01*
X82378202Y-97285000D01*
X82384577Y-97349731D01*
X82403459Y-97411974D01*
X82434120Y-97469337D01*
X82475383Y-97519617D01*
X82525663Y-97560880D01*
X82583026Y-97591541D01*
X82645269Y-97610423D01*
X82710000Y-97616798D01*
X83028650Y-97615200D01*
X83111200Y-97532650D01*
X83111200Y-96833800D01*
X83258800Y-96833800D01*
X83258800Y-97532650D01*
X83341350Y-97615200D01*
X83660000Y-97616798D01*
X83724731Y-97610423D01*
X83786974Y-97591541D01*
X83844337Y-97560880D01*
X83894617Y-97519617D01*
X83935880Y-97469337D01*
X83966541Y-97411974D01*
X83985423Y-97349731D01*
X83991798Y-97285000D01*
X84283202Y-97285000D01*
X84289577Y-97349731D01*
X84308459Y-97411974D01*
X84339120Y-97469337D01*
X84380383Y-97519617D01*
X84430663Y-97560880D01*
X84488026Y-97591541D01*
X84550269Y-97610423D01*
X84615000Y-97616798D01*
X84933650Y-97615200D01*
X85016200Y-97532650D01*
X85016200Y-96833800D01*
X85163800Y-96833800D01*
X85163800Y-97532650D01*
X85246350Y-97615200D01*
X85565000Y-97616798D01*
X85629731Y-97610423D01*
X85691974Y-97591541D01*
X85749337Y-97560880D01*
X85799617Y-97519617D01*
X85840880Y-97469337D01*
X85871541Y-97411974D01*
X85890423Y-97349731D01*
X85896798Y-97285000D01*
X86188202Y-97285000D01*
X86194577Y-97349731D01*
X86213459Y-97411974D01*
X86244120Y-97469337D01*
X86285383Y-97519617D01*
X86335663Y-97560880D01*
X86393026Y-97591541D01*
X86455269Y-97610423D01*
X86520000Y-97616798D01*
X86838650Y-97615200D01*
X86921200Y-97532650D01*
X86921200Y-96833800D01*
X87068800Y-96833800D01*
X87068800Y-97532650D01*
X87151350Y-97615200D01*
X87470000Y-97616798D01*
X87534731Y-97610423D01*
X87596974Y-97591541D01*
X87654337Y-97560880D01*
X87704617Y-97519617D01*
X87745880Y-97469337D01*
X87776541Y-97411974D01*
X87795423Y-97349731D01*
X87801798Y-97285000D01*
X87800200Y-96916350D01*
X87717650Y-96833800D01*
X87068800Y-96833800D01*
X86921200Y-96833800D01*
X86272350Y-96833800D01*
X86189800Y-96916350D01*
X86188202Y-97285000D01*
X85896798Y-97285000D01*
X85895200Y-96916350D01*
X85812650Y-96833800D01*
X85163800Y-96833800D01*
X85016200Y-96833800D01*
X84367350Y-96833800D01*
X84284800Y-96916350D01*
X84283202Y-97285000D01*
X83991798Y-97285000D01*
X83990200Y-96916350D01*
X83907650Y-96833800D01*
X83258800Y-96833800D01*
X83111200Y-96833800D01*
X82462350Y-96833800D01*
X82379800Y-96916350D01*
X82378202Y-97285000D01*
X82086798Y-97285000D01*
X82085200Y-96916350D01*
X82002650Y-96833800D01*
X81353800Y-96833800D01*
X81206200Y-96833800D01*
X80557350Y-96833800D01*
X80474800Y-96916350D01*
X80473202Y-97285000D01*
X80165960Y-97285000D01*
X80178026Y-97162500D01*
X80178026Y-97012500D01*
X80165305Y-96883345D01*
X80151398Y-96837500D01*
X80165305Y-96791655D01*
X80178026Y-96662500D01*
X80178026Y-96512500D01*
X80165305Y-96383345D01*
X80151398Y-96337500D01*
X80164142Y-96295488D01*
X80256027Y-96286438D01*
X80389712Y-96245885D01*
X80476710Y-96199384D01*
X80473202Y-96235000D01*
X80474800Y-96603650D01*
X80557350Y-96686200D01*
X81206200Y-96686200D01*
X81206200Y-96666200D01*
X81353800Y-96666200D01*
X81353800Y-96686200D01*
X82002650Y-96686200D01*
X82085200Y-96603650D01*
X82086798Y-96235000D01*
X82080423Y-96170269D01*
X82061541Y-96108026D01*
X82030880Y-96050663D01*
X81989617Y-96000383D01*
X81971304Y-95985354D01*
X81975582Y-95983068D01*
X82100528Y-95880528D01*
X82203068Y-95755582D01*
X82232500Y-95700519D01*
X82261932Y-95755582D01*
X82364472Y-95880528D01*
X82489418Y-95983068D01*
X82493696Y-95985354D01*
X82475383Y-96000383D01*
X82434120Y-96050663D01*
X82403459Y-96108026D01*
X82384577Y-96170269D01*
X82378202Y-96235000D01*
X82379800Y-96603650D01*
X82462350Y-96686200D01*
X83111200Y-96686200D01*
X83111200Y-96666200D01*
X83258800Y-96666200D01*
X83258800Y-96686200D01*
X83907650Y-96686200D01*
X83990200Y-96603650D01*
X83991798Y-96235000D01*
X83985423Y-96170269D01*
X83966541Y-96108026D01*
X83935880Y-96050663D01*
X83894617Y-96000383D01*
X83876304Y-95985354D01*
X83880582Y-95983068D01*
X84005528Y-95880528D01*
X84108068Y-95755582D01*
X84137500Y-95700519D01*
X84166932Y-95755582D01*
X84269472Y-95880528D01*
X84394418Y-95983068D01*
X84398696Y-95985354D01*
X84380383Y-96000383D01*
X84339120Y-96050663D01*
X84308459Y-96108026D01*
X84289577Y-96170269D01*
X84283202Y-96235000D01*
X84284800Y-96603650D01*
X84367350Y-96686200D01*
X85016200Y-96686200D01*
X85016200Y-96666200D01*
X85163800Y-96666200D01*
X85163800Y-96686200D01*
X85812650Y-96686200D01*
X85895200Y-96603650D01*
X85896798Y-96235000D01*
X85890423Y-96170269D01*
X85871541Y-96108026D01*
X85840880Y-96050663D01*
X85799617Y-96000383D01*
X85781304Y-95985354D01*
X85785582Y-95983068D01*
X85910528Y-95880528D01*
X86013068Y-95755582D01*
X86042500Y-95700519D01*
X86071932Y-95755582D01*
X86174472Y-95880528D01*
X86299418Y-95983068D01*
X86303696Y-95985354D01*
X86285383Y-96000383D01*
X86244120Y-96050663D01*
X86213459Y-96108026D01*
X86194577Y-96170269D01*
X86188202Y-96235000D01*
X86189800Y-96603650D01*
X86272350Y-96686200D01*
X86921200Y-96686200D01*
X86921200Y-96666200D01*
X87068800Y-96666200D01*
X87068800Y-96686200D01*
X87717650Y-96686200D01*
X87800200Y-96603650D01*
X87801798Y-96235000D01*
X87795423Y-96170269D01*
X87776541Y-96108026D01*
X87745880Y-96050663D01*
X87704617Y-96000383D01*
X87686304Y-95985354D01*
X87690582Y-95983068D01*
X87815528Y-95880528D01*
X87918068Y-95755582D01*
X87994263Y-95613032D01*
X88041183Y-95458357D01*
X88057026Y-95297500D01*
X88057026Y-94722500D01*
X88041183Y-94561643D01*
X87994263Y-94406968D01*
X87918068Y-94264418D01*
X87815528Y-94139472D01*
X87701622Y-94045992D01*
X87693938Y-93967973D01*
X87653385Y-93834288D01*
X87587531Y-93711083D01*
X87498906Y-93603094D01*
X87390917Y-93514469D01*
X87273832Y-93451886D01*
X86659418Y-92837472D01*
X86638733Y-92812267D01*
X86538174Y-92729741D01*
X86423447Y-92668418D01*
X86298961Y-92630656D01*
X86201939Y-92621100D01*
X86169500Y-92617905D01*
X86137061Y-92621100D01*
X86048010Y-92621100D01*
X86074200Y-92489435D01*
X86074200Y-92295565D01*
X86036378Y-92105419D01*
X85962187Y-91926307D01*
X85935033Y-91885668D01*
X86013068Y-91790582D01*
X86089263Y-91648032D01*
X86112933Y-91570000D01*
X86188202Y-91570000D01*
X86194577Y-91634731D01*
X86213459Y-91696974D01*
X86244120Y-91754337D01*
X86285383Y-91804617D01*
X86335663Y-91845880D01*
X86393026Y-91876541D01*
X86455269Y-91895423D01*
X86520000Y-91901798D01*
X86838650Y-91900200D01*
X86921200Y-91817650D01*
X86921200Y-91118800D01*
X87068800Y-91118800D01*
X87068800Y-91817650D01*
X87151350Y-91900200D01*
X87470000Y-91901798D01*
X87534731Y-91895423D01*
X87596974Y-91876541D01*
X87654337Y-91845880D01*
X87704617Y-91804617D01*
X87745880Y-91754337D01*
X87776541Y-91696974D01*
X87795423Y-91634731D01*
X87801798Y-91570000D01*
X87800200Y-91201350D01*
X87717650Y-91118800D01*
X87068800Y-91118800D01*
X86921200Y-91118800D01*
X86272350Y-91118800D01*
X86189800Y-91201350D01*
X86188202Y-91570000D01*
X86112933Y-91570000D01*
X86136183Y-91493357D01*
X86152026Y-91332500D01*
X86152026Y-90757500D01*
X86136183Y-90596643D01*
X86089263Y-90441968D01*
X86013068Y-90299418D01*
X85910528Y-90174472D01*
X85905079Y-90170000D01*
X85910528Y-90165528D01*
X86013068Y-90040582D01*
X86042500Y-89985519D01*
X86071932Y-90040582D01*
X86174472Y-90165528D01*
X86299418Y-90268068D01*
X86303696Y-90270354D01*
X86285383Y-90285383D01*
X86244120Y-90335663D01*
X86213459Y-90393026D01*
X86194577Y-90455269D01*
X86188202Y-90520000D01*
X86189800Y-90888650D01*
X86272350Y-90971200D01*
X86921200Y-90971200D01*
X86921200Y-90951200D01*
X87068800Y-90951200D01*
X87068800Y-90971200D01*
X87717650Y-90971200D01*
X87800200Y-90888650D01*
X87801798Y-90520000D01*
X87795423Y-90455269D01*
X87776541Y-90393026D01*
X87745880Y-90335663D01*
X87704617Y-90285383D01*
X87686304Y-90270354D01*
X87690582Y-90268068D01*
X87815528Y-90165528D01*
X87918068Y-90040582D01*
X87994263Y-89898032D01*
X88041183Y-89743357D01*
X88057026Y-89582500D01*
X88057026Y-89007500D01*
X88041183Y-88846643D01*
X87994263Y-88691968D01*
X87918068Y-88549418D01*
X87815528Y-88424472D01*
X87694818Y-88325408D01*
X87693938Y-88316473D01*
X87653385Y-88182788D01*
X87587531Y-88059583D01*
X87498906Y-87951594D01*
X87390917Y-87862969D01*
X87273834Y-87800387D01*
X86976911Y-87503465D01*
X86956227Y-87478261D01*
X86855668Y-87395735D01*
X86749495Y-87338984D01*
X86759712Y-87335885D01*
X86882917Y-87270031D01*
X86990906Y-87181406D01*
X87013113Y-87154347D01*
X87471847Y-86695613D01*
X87498906Y-86673406D01*
X87587531Y-86565417D01*
X87653385Y-86442212D01*
X87693938Y-86308527D01*
X87694818Y-86299592D01*
X87815528Y-86200528D01*
X87918068Y-86075582D01*
X87994263Y-85933032D01*
X88041183Y-85778357D01*
X88050473Y-85684032D01*
X88097287Y-101600800D01*
%TA.AperFunction,Conductor*%
D18*
G36*
X88097287Y-101600800D02*
G01*
X80625656Y-101600800D01*
X82499747Y-99726710D01*
X82646935Y-99726710D01*
X82837081Y-99688888D01*
X83016193Y-99614697D01*
X83177391Y-99506988D01*
X83314478Y-99369901D01*
X83422187Y-99208703D01*
X83496378Y-99029591D01*
X83534200Y-98839445D01*
X83534200Y-98645575D01*
X83496378Y-98455429D01*
X83422187Y-98276317D01*
X83314478Y-98115119D01*
X83177391Y-97978032D01*
X83016193Y-97870323D01*
X82837081Y-97796132D01*
X82646935Y-97758310D01*
X82453065Y-97758310D01*
X82262919Y-97796132D01*
X82083807Y-97870323D01*
X81922609Y-97978032D01*
X81915005Y-97985636D01*
X81907391Y-97978022D01*
X81746193Y-97870313D01*
X81567081Y-97796122D01*
X81376935Y-97758300D01*
X81183065Y-97758300D01*
X80992919Y-97796122D01*
X80813807Y-97870313D01*
X80652609Y-97978022D01*
X80515522Y-98115109D01*
X80407813Y-98276307D01*
X80333622Y-98455419D01*
X80295800Y-98645565D01*
X80295800Y-98839435D01*
X80333622Y-99029581D01*
X80401969Y-99194584D01*
X79101454Y-100495100D01*
X78111847Y-100495100D01*
X78410034Y-100196913D01*
X78435233Y-100176233D01*
X78517759Y-100075674D01*
X78579082Y-99960947D01*
X78616844Y-99836461D01*
X78621260Y-99791621D01*
X78670155Y-99786805D01*
X78794346Y-99749132D01*
X78908802Y-99687955D01*
X79009123Y-99605623D01*
X79091455Y-99505302D01*
X79152632Y-99390846D01*
X79190305Y-99266655D01*
X79203026Y-99137500D01*
X79203026Y-98567700D01*
X79239802Y-98567700D01*
X79239802Y-98485152D01*
X79322350Y-98567700D01*
X79589215Y-98569293D01*
X79653979Y-98563266D01*
X79716322Y-98544720D01*
X79773850Y-98514368D01*
X79824351Y-98473376D01*
X79865884Y-98423319D01*
X79896854Y-98366121D01*
X79916070Y-98303981D01*
X79921200Y-98243850D01*
X79887374Y-98210024D01*
X79984123Y-98130623D01*
X80066455Y-98030302D01*
X80127632Y-97915846D01*
X80165305Y-97791655D01*
X80178026Y-97662500D01*
X80178026Y-97512500D01*
X80165305Y-97383345D01*
X80151398Y-97337500D01*
X80165305Y-97291655D01*
X80165960Y-97285000D01*
X80473202Y-97285000D01*
X80479577Y-97349731D01*
X80498459Y-97411974D01*
X80529120Y-97469337D01*
X80570383Y-97519617D01*
X80620663Y-97560880D01*
X80678026Y-97591541D01*
X80740269Y-97610423D01*
X80805000Y-97616798D01*
X81123650Y-97615200D01*
X81206200Y-97532650D01*
X81206200Y-96833800D01*
X81353800Y-96833800D01*
X81353800Y-97532650D01*
X81436350Y-97615200D01*
X81755000Y-97616798D01*
X81819731Y-97610423D01*
X81881974Y-97591541D01*
X81939337Y-97560880D01*
X81989617Y-97519617D01*
X82030880Y-97469337D01*
X82061541Y-97411974D01*
X82080423Y-97349731D01*
X82086798Y-97285000D01*
X82378202Y-97285000D01*
X82384577Y-97349731D01*
X82403459Y-97411974D01*
X82434120Y-97469337D01*
X82475383Y-97519617D01*
X82525663Y-97560880D01*
X82583026Y-97591541D01*
X82645269Y-97610423D01*
X82710000Y-97616798D01*
X83028650Y-97615200D01*
X83111200Y-97532650D01*
X83111200Y-96833800D01*
X83258800Y-96833800D01*
X83258800Y-97532650D01*
X83341350Y-97615200D01*
X83660000Y-97616798D01*
X83724731Y-97610423D01*
X83786974Y-97591541D01*
X83844337Y-97560880D01*
X83894617Y-97519617D01*
X83935880Y-97469337D01*
X83966541Y-97411974D01*
X83985423Y-97349731D01*
X83991798Y-97285000D01*
X84283202Y-97285000D01*
X84289577Y-97349731D01*
X84308459Y-97411974D01*
X84339120Y-97469337D01*
X84380383Y-97519617D01*
X84430663Y-97560880D01*
X84488026Y-97591541D01*
X84550269Y-97610423D01*
X84615000Y-97616798D01*
X84933650Y-97615200D01*
X85016200Y-97532650D01*
X85016200Y-96833800D01*
X85163800Y-96833800D01*
X85163800Y-97532650D01*
X85246350Y-97615200D01*
X85565000Y-97616798D01*
X85629731Y-97610423D01*
X85691974Y-97591541D01*
X85749337Y-97560880D01*
X85799617Y-97519617D01*
X85840880Y-97469337D01*
X85871541Y-97411974D01*
X85890423Y-97349731D01*
X85896798Y-97285000D01*
X86188202Y-97285000D01*
X86194577Y-97349731D01*
X86213459Y-97411974D01*
X86244120Y-97469337D01*
X86285383Y-97519617D01*
X86335663Y-97560880D01*
X86393026Y-97591541D01*
X86455269Y-97610423D01*
X86520000Y-97616798D01*
X86838650Y-97615200D01*
X86921200Y-97532650D01*
X86921200Y-96833800D01*
X87068800Y-96833800D01*
X87068800Y-97532650D01*
X87151350Y-97615200D01*
X87470000Y-97616798D01*
X87534731Y-97610423D01*
X87596974Y-97591541D01*
X87654337Y-97560880D01*
X87704617Y-97519617D01*
X87745880Y-97469337D01*
X87776541Y-97411974D01*
X87795423Y-97349731D01*
X87801798Y-97285000D01*
X87800200Y-96916350D01*
X87717650Y-96833800D01*
X87068800Y-96833800D01*
X86921200Y-96833800D01*
X86272350Y-96833800D01*
X86189800Y-96916350D01*
X86188202Y-97285000D01*
X85896798Y-97285000D01*
X85895200Y-96916350D01*
X85812650Y-96833800D01*
X85163800Y-96833800D01*
X85016200Y-96833800D01*
X84367350Y-96833800D01*
X84284800Y-96916350D01*
X84283202Y-97285000D01*
X83991798Y-97285000D01*
X83990200Y-96916350D01*
X83907650Y-96833800D01*
X83258800Y-96833800D01*
X83111200Y-96833800D01*
X82462350Y-96833800D01*
X82379800Y-96916350D01*
X82378202Y-97285000D01*
X82086798Y-97285000D01*
X82085200Y-96916350D01*
X82002650Y-96833800D01*
X81353800Y-96833800D01*
X81206200Y-96833800D01*
X80557350Y-96833800D01*
X80474800Y-96916350D01*
X80473202Y-97285000D01*
X80165960Y-97285000D01*
X80178026Y-97162500D01*
X80178026Y-97012500D01*
X80165305Y-96883345D01*
X80151398Y-96837500D01*
X80165305Y-96791655D01*
X80178026Y-96662500D01*
X80178026Y-96512500D01*
X80165305Y-96383345D01*
X80151398Y-96337500D01*
X80164142Y-96295488D01*
X80256027Y-96286438D01*
X80389712Y-96245885D01*
X80476710Y-96199384D01*
X80473202Y-96235000D01*
X80474800Y-96603650D01*
X80557350Y-96686200D01*
X81206200Y-96686200D01*
X81206200Y-96666200D01*
X81353800Y-96666200D01*
X81353800Y-96686200D01*
X82002650Y-96686200D01*
X82085200Y-96603650D01*
X82086798Y-96235000D01*
X82080423Y-96170269D01*
X82061541Y-96108026D01*
X82030880Y-96050663D01*
X81989617Y-96000383D01*
X81971304Y-95985354D01*
X81975582Y-95983068D01*
X82100528Y-95880528D01*
X82203068Y-95755582D01*
X82232500Y-95700519D01*
X82261932Y-95755582D01*
X82364472Y-95880528D01*
X82489418Y-95983068D01*
X82493696Y-95985354D01*
X82475383Y-96000383D01*
X82434120Y-96050663D01*
X82403459Y-96108026D01*
X82384577Y-96170269D01*
X82378202Y-96235000D01*
X82379800Y-96603650D01*
X82462350Y-96686200D01*
X83111200Y-96686200D01*
X83111200Y-96666200D01*
X83258800Y-96666200D01*
X83258800Y-96686200D01*
X83907650Y-96686200D01*
X83990200Y-96603650D01*
X83991798Y-96235000D01*
X83985423Y-96170269D01*
X83966541Y-96108026D01*
X83935880Y-96050663D01*
X83894617Y-96000383D01*
X83876304Y-95985354D01*
X83880582Y-95983068D01*
X84005528Y-95880528D01*
X84108068Y-95755582D01*
X84137500Y-95700519D01*
X84166932Y-95755582D01*
X84269472Y-95880528D01*
X84394418Y-95983068D01*
X84398696Y-95985354D01*
X84380383Y-96000383D01*
X84339120Y-96050663D01*
X84308459Y-96108026D01*
X84289577Y-96170269D01*
X84283202Y-96235000D01*
X84284800Y-96603650D01*
X84367350Y-96686200D01*
X85016200Y-96686200D01*
X85016200Y-96666200D01*
X85163800Y-96666200D01*
X85163800Y-96686200D01*
X85812650Y-96686200D01*
X85895200Y-96603650D01*
X85896798Y-96235000D01*
X85890423Y-96170269D01*
X85871541Y-96108026D01*
X85840880Y-96050663D01*
X85799617Y-96000383D01*
X85781304Y-95985354D01*
X85785582Y-95983068D01*
X85910528Y-95880528D01*
X86013068Y-95755582D01*
X86042500Y-95700519D01*
X86071932Y-95755582D01*
X86174472Y-95880528D01*
X86299418Y-95983068D01*
X86303696Y-95985354D01*
X86285383Y-96000383D01*
X86244120Y-96050663D01*
X86213459Y-96108026D01*
X86194577Y-96170269D01*
X86188202Y-96235000D01*
X86189800Y-96603650D01*
X86272350Y-96686200D01*
X86921200Y-96686200D01*
X86921200Y-96666200D01*
X87068800Y-96666200D01*
X87068800Y-96686200D01*
X87717650Y-96686200D01*
X87800200Y-96603650D01*
X87801798Y-96235000D01*
X87795423Y-96170269D01*
X87776541Y-96108026D01*
X87745880Y-96050663D01*
X87704617Y-96000383D01*
X87686304Y-95985354D01*
X87690582Y-95983068D01*
X87815528Y-95880528D01*
X87918068Y-95755582D01*
X87994263Y-95613032D01*
X88041183Y-95458357D01*
X88057026Y-95297500D01*
X88057026Y-94722500D01*
X88041183Y-94561643D01*
X87994263Y-94406968D01*
X87918068Y-94264418D01*
X87815528Y-94139472D01*
X87701622Y-94045992D01*
X87693938Y-93967973D01*
X87653385Y-93834288D01*
X87587531Y-93711083D01*
X87498906Y-93603094D01*
X87390917Y-93514469D01*
X87273832Y-93451886D01*
X86659418Y-92837472D01*
X86638733Y-92812267D01*
X86538174Y-92729741D01*
X86423447Y-92668418D01*
X86298961Y-92630656D01*
X86201939Y-92621100D01*
X86169500Y-92617905D01*
X86137061Y-92621100D01*
X86048010Y-92621100D01*
X86074200Y-92489435D01*
X86074200Y-92295565D01*
X86036378Y-92105419D01*
X85962187Y-91926307D01*
X85935033Y-91885668D01*
X86013068Y-91790582D01*
X86089263Y-91648032D01*
X86112933Y-91570000D01*
X86188202Y-91570000D01*
X86194577Y-91634731D01*
X86213459Y-91696974D01*
X86244120Y-91754337D01*
X86285383Y-91804617D01*
X86335663Y-91845880D01*
X86393026Y-91876541D01*
X86455269Y-91895423D01*
X86520000Y-91901798D01*
X86838650Y-91900200D01*
X86921200Y-91817650D01*
X86921200Y-91118800D01*
X87068800Y-91118800D01*
X87068800Y-91817650D01*
X87151350Y-91900200D01*
X87470000Y-91901798D01*
X87534731Y-91895423D01*
X87596974Y-91876541D01*
X87654337Y-91845880D01*
X87704617Y-91804617D01*
X87745880Y-91754337D01*
X87776541Y-91696974D01*
X87795423Y-91634731D01*
X87801798Y-91570000D01*
X87800200Y-91201350D01*
X87717650Y-91118800D01*
X87068800Y-91118800D01*
X86921200Y-91118800D01*
X86272350Y-91118800D01*
X86189800Y-91201350D01*
X86188202Y-91570000D01*
X86112933Y-91570000D01*
X86136183Y-91493357D01*
X86152026Y-91332500D01*
X86152026Y-90757500D01*
X86136183Y-90596643D01*
X86089263Y-90441968D01*
X86013068Y-90299418D01*
X85910528Y-90174472D01*
X85905079Y-90170000D01*
X85910528Y-90165528D01*
X86013068Y-90040582D01*
X86042500Y-89985519D01*
X86071932Y-90040582D01*
X86174472Y-90165528D01*
X86299418Y-90268068D01*
X86303696Y-90270354D01*
X86285383Y-90285383D01*
X86244120Y-90335663D01*
X86213459Y-90393026D01*
X86194577Y-90455269D01*
X86188202Y-90520000D01*
X86189800Y-90888650D01*
X86272350Y-90971200D01*
X86921200Y-90971200D01*
X86921200Y-90951200D01*
X87068800Y-90951200D01*
X87068800Y-90971200D01*
X87717650Y-90971200D01*
X87800200Y-90888650D01*
X87801798Y-90520000D01*
X87795423Y-90455269D01*
X87776541Y-90393026D01*
X87745880Y-90335663D01*
X87704617Y-90285383D01*
X87686304Y-90270354D01*
X87690582Y-90268068D01*
X87815528Y-90165528D01*
X87918068Y-90040582D01*
X87994263Y-89898032D01*
X88041183Y-89743357D01*
X88057026Y-89582500D01*
X88057026Y-89007500D01*
X88041183Y-88846643D01*
X87994263Y-88691968D01*
X87918068Y-88549418D01*
X87815528Y-88424472D01*
X87694818Y-88325408D01*
X87693938Y-88316473D01*
X87653385Y-88182788D01*
X87587531Y-88059583D01*
X87498906Y-87951594D01*
X87390917Y-87862969D01*
X87273834Y-87800387D01*
X86976911Y-87503465D01*
X86956227Y-87478261D01*
X86855668Y-87395735D01*
X86749495Y-87338984D01*
X86759712Y-87335885D01*
X86882917Y-87270031D01*
X86990906Y-87181406D01*
X87013113Y-87154347D01*
X87471847Y-86695613D01*
X87498906Y-86673406D01*
X87587531Y-86565417D01*
X87653385Y-86442212D01*
X87693938Y-86308527D01*
X87694818Y-86299592D01*
X87815528Y-86200528D01*
X87918068Y-86075582D01*
X87994263Y-85933032D01*
X88041183Y-85778357D01*
X88050473Y-85684032D01*
X88097287Y-101600800D01*
G37*
%TD.AperFunction*%
D16*
X65881300Y-93883065D02*
X65881300Y-94076935D01*
X65919122Y-94267081D01*
X65993313Y-94446193D01*
X66101022Y-94607391D01*
X66238109Y-94744478D01*
X66399307Y-94852187D01*
X66578419Y-94926378D01*
X66768565Y-94964200D01*
X66962435Y-94964200D01*
X67152581Y-94926378D01*
X67194970Y-94908820D01*
X67222350Y-94936200D01*
X67871200Y-94936200D01*
X67871200Y-94916200D01*
X68018800Y-94916200D01*
X68018800Y-94936200D01*
X68667650Y-94936200D01*
X68750200Y-94853650D01*
X68750913Y-94689200D01*
X68791254Y-94689200D01*
X68787974Y-94722500D01*
X68787974Y-95297500D01*
X68803817Y-95458357D01*
X68850737Y-95613032D01*
X68926932Y-95755582D01*
X69029472Y-95880528D01*
X69034921Y-95885000D01*
X69029472Y-95889472D01*
X68926932Y-96014418D01*
X68897500Y-96069481D01*
X68868068Y-96014418D01*
X68765528Y-95889472D01*
X68640582Y-95786932D01*
X68636304Y-95784646D01*
X68654617Y-95769617D01*
X68695880Y-95719337D01*
X68726541Y-95661974D01*
X68745423Y-95599731D01*
X68751798Y-95535000D01*
X68750200Y-95166350D01*
X68667650Y-95083800D01*
X68018800Y-95083800D01*
X68018800Y-95103800D01*
X67871200Y-95103800D01*
X67871200Y-95083800D01*
X67222350Y-95083800D01*
X67139800Y-95166350D01*
X67138202Y-95535000D01*
X67144577Y-95599731D01*
X67163459Y-95661974D01*
X67194120Y-95719337D01*
X67235383Y-95769617D01*
X67253696Y-95784646D01*
X67249418Y-95786932D01*
X67124472Y-95889472D01*
X67021932Y-96014418D01*
X66945737Y-96156968D01*
X66898817Y-96311643D01*
X66882974Y-96472500D01*
X66882974Y-97047500D01*
X66898817Y-97208357D01*
X66945737Y-97363032D01*
X67021932Y-97505582D01*
X67124472Y-97630528D01*
X67235801Y-97721893D01*
X67235801Y-97888335D01*
X67246063Y-97992527D01*
X67286616Y-98126212D01*
X67352470Y-98249417D01*
X67441095Y-98357406D01*
X67549084Y-98446031D01*
X67666166Y-98508612D01*
X69652653Y-100495100D01*
X67185694Y-100495100D01*
X67240378Y-100363081D01*
X67278200Y-100172935D01*
X67278200Y-99979065D01*
X67240378Y-99788919D01*
X67166187Y-99609807D01*
X67058478Y-99448609D01*
X66921391Y-99311522D01*
X66760193Y-99203813D01*
X66581081Y-99129622D01*
X66390935Y-99091800D01*
X66197065Y-99091800D01*
X66006919Y-99129622D01*
X65827807Y-99203813D01*
X65666609Y-99311522D01*
X65562531Y-99415600D01*
X63202046Y-99415600D01*
X61048900Y-97262454D01*
X61048900Y-96386295D01*
X61128807Y-96439687D01*
X61307919Y-96513878D01*
X61498065Y-96551700D01*
X61691935Y-96551700D01*
X61882081Y-96513878D01*
X62061193Y-96439687D01*
X62222391Y-96331978D01*
X62359478Y-96194891D01*
X62467187Y-96033693D01*
X62541378Y-95854581D01*
X62579200Y-95664435D01*
X62579200Y-95470565D01*
X62541378Y-95280419D01*
X62467187Y-95101307D01*
X62359478Y-94940109D01*
X62302798Y-94883429D01*
X62295166Y-94805938D01*
X62293938Y-94793472D01*
X62275032Y-94731150D01*
X62253385Y-94659788D01*
X62187531Y-94536583D01*
X62098906Y-94428594D01*
X62071842Y-94406383D01*
X61923200Y-94257741D01*
X61923200Y-94134847D01*
X61942571Y-94138700D01*
X62136441Y-94138700D01*
X62326587Y-94100878D01*
X62505699Y-94026687D01*
X62666897Y-93918978D01*
X62770975Y-93814900D01*
X65894859Y-93814900D01*
X65881300Y-93883065D01*
%TA.AperFunction,Conductor*%
D18*
G36*
X65881300Y-93883065D02*
G01*
X65881300Y-94076935D01*
X65919122Y-94267081D01*
X65993313Y-94446193D01*
X66101022Y-94607391D01*
X66238109Y-94744478D01*
X66399307Y-94852187D01*
X66578419Y-94926378D01*
X66768565Y-94964200D01*
X66962435Y-94964200D01*
X67152581Y-94926378D01*
X67194970Y-94908820D01*
X67222350Y-94936200D01*
X67871200Y-94936200D01*
X67871200Y-94916200D01*
X68018800Y-94916200D01*
X68018800Y-94936200D01*
X68667650Y-94936200D01*
X68750200Y-94853650D01*
X68750913Y-94689200D01*
X68791254Y-94689200D01*
X68787974Y-94722500D01*
X68787974Y-95297500D01*
X68803817Y-95458357D01*
X68850737Y-95613032D01*
X68926932Y-95755582D01*
X69029472Y-95880528D01*
X69034921Y-95885000D01*
X69029472Y-95889472D01*
X68926932Y-96014418D01*
X68897500Y-96069481D01*
X68868068Y-96014418D01*
X68765528Y-95889472D01*
X68640582Y-95786932D01*
X68636304Y-95784646D01*
X68654617Y-95769617D01*
X68695880Y-95719337D01*
X68726541Y-95661974D01*
X68745423Y-95599731D01*
X68751798Y-95535000D01*
X68750200Y-95166350D01*
X68667650Y-95083800D01*
X68018800Y-95083800D01*
X68018800Y-95103800D01*
X67871200Y-95103800D01*
X67871200Y-95083800D01*
X67222350Y-95083800D01*
X67139800Y-95166350D01*
X67138202Y-95535000D01*
X67144577Y-95599731D01*
X67163459Y-95661974D01*
X67194120Y-95719337D01*
X67235383Y-95769617D01*
X67253696Y-95784646D01*
X67249418Y-95786932D01*
X67124472Y-95889472D01*
X67021932Y-96014418D01*
X66945737Y-96156968D01*
X66898817Y-96311643D01*
X66882974Y-96472500D01*
X66882974Y-97047500D01*
X66898817Y-97208357D01*
X66945737Y-97363032D01*
X67021932Y-97505582D01*
X67124472Y-97630528D01*
X67235801Y-97721893D01*
X67235801Y-97888335D01*
X67246063Y-97992527D01*
X67286616Y-98126212D01*
X67352470Y-98249417D01*
X67441095Y-98357406D01*
X67549084Y-98446031D01*
X67666166Y-98508612D01*
X69652653Y-100495100D01*
X67185694Y-100495100D01*
X67240378Y-100363081D01*
X67278200Y-100172935D01*
X67278200Y-99979065D01*
X67240378Y-99788919D01*
X67166187Y-99609807D01*
X67058478Y-99448609D01*
X66921391Y-99311522D01*
X66760193Y-99203813D01*
X66581081Y-99129622D01*
X66390935Y-99091800D01*
X66197065Y-99091800D01*
X66006919Y-99129622D01*
X65827807Y-99203813D01*
X65666609Y-99311522D01*
X65562531Y-99415600D01*
X63202046Y-99415600D01*
X61048900Y-97262454D01*
X61048900Y-96386295D01*
X61128807Y-96439687D01*
X61307919Y-96513878D01*
X61498065Y-96551700D01*
X61691935Y-96551700D01*
X61882081Y-96513878D01*
X62061193Y-96439687D01*
X62222391Y-96331978D01*
X62359478Y-96194891D01*
X62467187Y-96033693D01*
X62541378Y-95854581D01*
X62579200Y-95664435D01*
X62579200Y-95470565D01*
X62541378Y-95280419D01*
X62467187Y-95101307D01*
X62359478Y-94940109D01*
X62302798Y-94883429D01*
X62295166Y-94805938D01*
X62293938Y-94793472D01*
X62275032Y-94731150D01*
X62253385Y-94659788D01*
X62187531Y-94536583D01*
X62098906Y-94428594D01*
X62071842Y-94406383D01*
X61923200Y-94257741D01*
X61923200Y-94134847D01*
X61942571Y-94138700D01*
X62136441Y-94138700D01*
X62326587Y-94100878D01*
X62505699Y-94026687D01*
X62666897Y-93918978D01*
X62770975Y-93814900D01*
X65894859Y-93814900D01*
X65881300Y-93883065D01*
G37*
%TD.AperFunction*%
D16*
X74366113Y-94744478D02*
X74527311Y-94852187D01*
X74654875Y-94905026D01*
X74548198Y-94962045D01*
X74447877Y-95044377D01*
X74365545Y-95144698D01*
X74304368Y-95259154D01*
X74266695Y-95383345D01*
X74253974Y-95512500D01*
X74253974Y-95662500D01*
X74266695Y-95791655D01*
X74280602Y-95837500D01*
X74266695Y-95883345D01*
X74253974Y-96012500D01*
X74253974Y-96162500D01*
X74266695Y-96291655D01*
X74280602Y-96337500D01*
X74266695Y-96383345D01*
X74253974Y-96512500D01*
X74253974Y-96662500D01*
X74266695Y-96791655D01*
X74280602Y-96837500D01*
X74266695Y-96883345D01*
X74253974Y-97012500D01*
X74253974Y-97162500D01*
X74266695Y-97291655D01*
X74280602Y-97337500D01*
X74266695Y-97383345D01*
X74253974Y-97512500D01*
X74253974Y-97662500D01*
X74266695Y-97791655D01*
X74304368Y-97915846D01*
X74330216Y-97964206D01*
X74189693Y-97870311D01*
X74010581Y-97796120D01*
X73820435Y-97758298D01*
X73673246Y-97758298D01*
X73451420Y-97536472D01*
X73430735Y-97511267D01*
X73330176Y-97428741D01*
X73215449Y-97367418D01*
X73090963Y-97329656D01*
X72993941Y-97320100D01*
X72961502Y-97316905D01*
X72929063Y-97320100D01*
X72767286Y-97320100D01*
X72801183Y-97208357D01*
X72817026Y-97047500D01*
X72817026Y-96472500D01*
X72801183Y-96311643D01*
X72754263Y-96156968D01*
X72678068Y-96014418D01*
X72575528Y-95889472D01*
X72570079Y-95885000D01*
X72575528Y-95880528D01*
X72678068Y-95755582D01*
X72754263Y-95613032D01*
X72801183Y-95458357D01*
X72817026Y-95297500D01*
X72817026Y-94722500D01*
X72813746Y-94689200D01*
X74310835Y-94689200D01*
X74366113Y-94744478D01*
%TA.AperFunction,Conductor*%
D18*
G36*
X74366113Y-94744478D02*
G01*
X74527311Y-94852187D01*
X74654875Y-94905026D01*
X74548198Y-94962045D01*
X74447877Y-95044377D01*
X74365545Y-95144698D01*
X74304368Y-95259154D01*
X74266695Y-95383345D01*
X74253974Y-95512500D01*
X74253974Y-95662500D01*
X74266695Y-95791655D01*
X74280602Y-95837500D01*
X74266695Y-95883345D01*
X74253974Y-96012500D01*
X74253974Y-96162500D01*
X74266695Y-96291655D01*
X74280602Y-96337500D01*
X74266695Y-96383345D01*
X74253974Y-96512500D01*
X74253974Y-96662500D01*
X74266695Y-96791655D01*
X74280602Y-96837500D01*
X74266695Y-96883345D01*
X74253974Y-97012500D01*
X74253974Y-97162500D01*
X74266695Y-97291655D01*
X74280602Y-97337500D01*
X74266695Y-97383345D01*
X74253974Y-97512500D01*
X74253974Y-97662500D01*
X74266695Y-97791655D01*
X74304368Y-97915846D01*
X74330216Y-97964206D01*
X74189693Y-97870311D01*
X74010581Y-97796120D01*
X73820435Y-97758298D01*
X73673246Y-97758298D01*
X73451420Y-97536472D01*
X73430735Y-97511267D01*
X73330176Y-97428741D01*
X73215449Y-97367418D01*
X73090963Y-97329656D01*
X72993941Y-97320100D01*
X72961502Y-97316905D01*
X72929063Y-97320100D01*
X72767286Y-97320100D01*
X72801183Y-97208357D01*
X72817026Y-97047500D01*
X72817026Y-96472500D01*
X72801183Y-96311643D01*
X72754263Y-96156968D01*
X72678068Y-96014418D01*
X72575528Y-95889472D01*
X72570079Y-95885000D01*
X72575528Y-95880528D01*
X72678068Y-95755582D01*
X72754263Y-95613032D01*
X72801183Y-95458357D01*
X72817026Y-95297500D01*
X72817026Y-94722500D01*
X72813746Y-94689200D01*
X74310835Y-94689200D01*
X74366113Y-94744478D01*
G37*
%TD.AperFunction*%
D16*
X81033854Y-93397800D02*
X80616327Y-93397800D01*
X80581499Y-93394370D01*
X80546671Y-93397800D01*
X80546665Y-93397800D01*
X80456999Y-93406631D01*
X80442472Y-93408062D01*
X80412296Y-93417216D01*
X80308788Y-93448615D01*
X80185583Y-93514469D01*
X80077594Y-93603094D01*
X80055387Y-93630153D01*
X79927493Y-93758047D01*
X79904693Y-93742813D01*
X79725581Y-93668622D01*
X79535435Y-93630800D01*
X79341565Y-93630800D01*
X79151419Y-93668622D01*
X78972307Y-93742813D01*
X78811109Y-93850522D01*
X78749398Y-93912233D01*
X78670155Y-93888195D01*
X78541000Y-93875474D01*
X78391000Y-93875474D01*
X78261845Y-93888195D01*
X78137654Y-93925868D01*
X78126400Y-93931883D01*
X78126400Y-93686046D01*
X78950047Y-92862400D01*
X80498454Y-92862400D01*
X81033854Y-93397800D01*
%TA.AperFunction,Conductor*%
D18*
G36*
X81033854Y-93397800D02*
G01*
X80616327Y-93397800D01*
X80581499Y-93394370D01*
X80546671Y-93397800D01*
X80546665Y-93397800D01*
X80456999Y-93406631D01*
X80442472Y-93408062D01*
X80412296Y-93417216D01*
X80308788Y-93448615D01*
X80185583Y-93514469D01*
X80077594Y-93603094D01*
X80055387Y-93630153D01*
X79927493Y-93758047D01*
X79904693Y-93742813D01*
X79725581Y-93668622D01*
X79535435Y-93630800D01*
X79341565Y-93630800D01*
X79151419Y-93668622D01*
X78972307Y-93742813D01*
X78811109Y-93850522D01*
X78749398Y-93912233D01*
X78670155Y-93888195D01*
X78541000Y-93875474D01*
X78391000Y-93875474D01*
X78261845Y-93888195D01*
X78137654Y-93925868D01*
X78126400Y-93931883D01*
X78126400Y-93686046D01*
X78950047Y-92862400D01*
X80498454Y-92862400D01*
X81033854Y-93397800D01*
G37*
%TD.AperFunction*%
D16*
X81425082Y-88391528D02*
X81445767Y-88416733D01*
X81546326Y-88499259D01*
X81560197Y-88506673D01*
X81661053Y-88560582D01*
X81785539Y-88598344D01*
X81915000Y-88611095D01*
X81947439Y-88607900D01*
X82199531Y-88607900D01*
X82219825Y-88628194D01*
X82185737Y-88691968D01*
X82138817Y-88846643D01*
X82122974Y-89007500D01*
X82122974Y-89582500D01*
X82138817Y-89743357D01*
X82185737Y-89898032D01*
X82261932Y-90040582D01*
X82364472Y-90165528D01*
X82489418Y-90268068D01*
X82493696Y-90270354D01*
X82475383Y-90285383D01*
X82434120Y-90335663D01*
X82403459Y-90393026D01*
X82384577Y-90455269D01*
X82378202Y-90520000D01*
X82379800Y-90888650D01*
X82462350Y-90971200D01*
X83111200Y-90971200D01*
X83111200Y-90951200D01*
X83258800Y-90951200D01*
X83258800Y-90971200D01*
X83278800Y-90971200D01*
X83278800Y-91118800D01*
X83258800Y-91118800D01*
X83258800Y-91817650D01*
X83341350Y-91900200D01*
X83378169Y-91900385D01*
X83038454Y-92240100D01*
X82823547Y-92240100D01*
X82153447Y-91570000D01*
X82378202Y-91570000D01*
X82384577Y-91634731D01*
X82403459Y-91696974D01*
X82434120Y-91754337D01*
X82475383Y-91804617D01*
X82525663Y-91845880D01*
X82583026Y-91876541D01*
X82645269Y-91895423D01*
X82710000Y-91901798D01*
X83028650Y-91900200D01*
X83111200Y-91817650D01*
X83111200Y-91118800D01*
X82462350Y-91118800D01*
X82379800Y-91201350D01*
X82378202Y-91570000D01*
X82153447Y-91570000D01*
X81579418Y-90995972D01*
X81558733Y-90970767D01*
X81458174Y-90888241D01*
X81343447Y-90826918D01*
X81218961Y-90789156D01*
X81121939Y-90779600D01*
X81089500Y-90776405D01*
X81057061Y-90779600D01*
X78391438Y-90779600D01*
X78358999Y-90776405D01*
X78229539Y-90789156D01*
X78105053Y-90826918D01*
X77990326Y-90888241D01*
X77889767Y-90970767D01*
X77869086Y-90995967D01*
X76370954Y-92494100D01*
X74112945Y-92494100D01*
X74129233Y-92480733D01*
X74211759Y-92380174D01*
X74273082Y-92265447D01*
X74310844Y-92140961D01*
X74311836Y-92130891D01*
X74321135Y-92036481D01*
X74355582Y-92018068D01*
X74480528Y-91915528D01*
X74583068Y-91790582D01*
X74659263Y-91648032D01*
X74706183Y-91493357D01*
X74722026Y-91332500D01*
X74722026Y-90757500D01*
X74706183Y-90596643D01*
X74659263Y-90441968D01*
X74583068Y-90299418D01*
X74480528Y-90174472D01*
X74475079Y-90170000D01*
X74480528Y-90165528D01*
X74583068Y-90040582D01*
X74659263Y-89898032D01*
X74706183Y-89743357D01*
X74722026Y-89582500D01*
X74722026Y-89007500D01*
X74706183Y-88846643D01*
X74659263Y-88691968D01*
X74583068Y-88549418D01*
X74480528Y-88424472D01*
X74355582Y-88321932D01*
X74320400Y-88303127D01*
X74320400Y-88290400D01*
X81323954Y-88290400D01*
X81425082Y-88391528D01*
%TA.AperFunction,Conductor*%
D18*
G36*
X81425082Y-88391528D02*
G01*
X81445767Y-88416733D01*
X81546326Y-88499259D01*
X81560197Y-88506673D01*
X81661053Y-88560582D01*
X81785539Y-88598344D01*
X81915000Y-88611095D01*
X81947439Y-88607900D01*
X82199531Y-88607900D01*
X82219825Y-88628194D01*
X82185737Y-88691968D01*
X82138817Y-88846643D01*
X82122974Y-89007500D01*
X82122974Y-89582500D01*
X82138817Y-89743357D01*
X82185737Y-89898032D01*
X82261932Y-90040582D01*
X82364472Y-90165528D01*
X82489418Y-90268068D01*
X82493696Y-90270354D01*
X82475383Y-90285383D01*
X82434120Y-90335663D01*
X82403459Y-90393026D01*
X82384577Y-90455269D01*
X82378202Y-90520000D01*
X82379800Y-90888650D01*
X82462350Y-90971200D01*
X83111200Y-90971200D01*
X83111200Y-90951200D01*
X83258800Y-90951200D01*
X83258800Y-90971200D01*
X83278800Y-90971200D01*
X83278800Y-91118800D01*
X83258800Y-91118800D01*
X83258800Y-91817650D01*
X83341350Y-91900200D01*
X83378169Y-91900385D01*
X83038454Y-92240100D01*
X82823547Y-92240100D01*
X82153447Y-91570000D01*
X82378202Y-91570000D01*
X82384577Y-91634731D01*
X82403459Y-91696974D01*
X82434120Y-91754337D01*
X82475383Y-91804617D01*
X82525663Y-91845880D01*
X82583026Y-91876541D01*
X82645269Y-91895423D01*
X82710000Y-91901798D01*
X83028650Y-91900200D01*
X83111200Y-91817650D01*
X83111200Y-91118800D01*
X82462350Y-91118800D01*
X82379800Y-91201350D01*
X82378202Y-91570000D01*
X82153447Y-91570000D01*
X81579418Y-90995972D01*
X81558733Y-90970767D01*
X81458174Y-90888241D01*
X81343447Y-90826918D01*
X81218961Y-90789156D01*
X81121939Y-90779600D01*
X81089500Y-90776405D01*
X81057061Y-90779600D01*
X78391438Y-90779600D01*
X78358999Y-90776405D01*
X78229539Y-90789156D01*
X78105053Y-90826918D01*
X77990326Y-90888241D01*
X77889767Y-90970767D01*
X77869086Y-90995967D01*
X76370954Y-92494100D01*
X74112945Y-92494100D01*
X74129233Y-92480733D01*
X74211759Y-92380174D01*
X74273082Y-92265447D01*
X74310844Y-92140961D01*
X74311836Y-92130891D01*
X74321135Y-92036481D01*
X74355582Y-92018068D01*
X74480528Y-91915528D01*
X74583068Y-91790582D01*
X74659263Y-91648032D01*
X74706183Y-91493357D01*
X74722026Y-91332500D01*
X74722026Y-90757500D01*
X74706183Y-90596643D01*
X74659263Y-90441968D01*
X74583068Y-90299418D01*
X74480528Y-90174472D01*
X74475079Y-90170000D01*
X74480528Y-90165528D01*
X74583068Y-90040582D01*
X74659263Y-89898032D01*
X74706183Y-89743357D01*
X74722026Y-89582500D01*
X74722026Y-89007500D01*
X74706183Y-88846643D01*
X74659263Y-88691968D01*
X74583068Y-88549418D01*
X74480528Y-88424472D01*
X74355582Y-88321932D01*
X74320400Y-88303127D01*
X74320400Y-88290400D01*
X81323954Y-88290400D01*
X81425082Y-88391528D01*
G37*
%TD.AperFunction*%
D16*
X85569254Y-81609523D02*
X85602659Y-81719645D01*
X85656906Y-81821134D01*
X85729910Y-81910090D01*
X85818866Y-81983094D01*
X85920355Y-82037341D01*
X86030477Y-82070746D01*
X86145000Y-82082026D01*
X87845000Y-82082026D01*
X87959523Y-82070746D01*
X88039774Y-82046402D01*
X88048327Y-84954173D01*
X88041183Y-84881643D01*
X87994263Y-84726968D01*
X87918068Y-84584418D01*
X87815528Y-84459472D01*
X87690582Y-84356932D01*
X87686304Y-84354646D01*
X87704617Y-84339617D01*
X87745880Y-84289337D01*
X87776541Y-84231974D01*
X87795423Y-84169731D01*
X87801798Y-84105000D01*
X87800200Y-83736350D01*
X87717650Y-83653800D01*
X87068800Y-83653800D01*
X87068800Y-83673800D01*
X86921200Y-83673800D01*
X86921200Y-83653800D01*
X86272350Y-83653800D01*
X86189800Y-83736350D01*
X86188202Y-84105000D01*
X86194577Y-84169731D01*
X86213459Y-84231974D01*
X86244120Y-84289337D01*
X86285383Y-84339617D01*
X86303696Y-84354646D01*
X86299418Y-84356932D01*
X86174472Y-84459472D01*
X86071932Y-84584418D01*
X86042500Y-84639481D01*
X86013068Y-84584418D01*
X85910528Y-84459472D01*
X85785582Y-84356932D01*
X85781304Y-84354646D01*
X85799617Y-84339617D01*
X85840880Y-84289337D01*
X85871541Y-84231974D01*
X85890423Y-84169731D01*
X85896798Y-84105000D01*
X85895200Y-83736350D01*
X85812650Y-83653800D01*
X85163800Y-83653800D01*
X85163800Y-83673800D01*
X85016200Y-83673800D01*
X85016200Y-83653800D01*
X84996200Y-83653800D01*
X84996200Y-83506200D01*
X85016200Y-83506200D01*
X85016200Y-82807350D01*
X85163800Y-82807350D01*
X85163800Y-83506200D01*
X85812650Y-83506200D01*
X85895200Y-83423650D01*
X85896798Y-83055000D01*
X86188202Y-83055000D01*
X86189800Y-83423650D01*
X86272350Y-83506200D01*
X86921200Y-83506200D01*
X86921200Y-82807350D01*
X87068800Y-82807350D01*
X87068800Y-83506200D01*
X87717650Y-83506200D01*
X87800200Y-83423650D01*
X87801798Y-83055000D01*
X87795423Y-82990269D01*
X87776541Y-82928026D01*
X87745880Y-82870663D01*
X87704617Y-82820383D01*
X87654337Y-82779120D01*
X87596974Y-82748459D01*
X87534731Y-82729577D01*
X87470000Y-82723202D01*
X87151350Y-82724800D01*
X87068800Y-82807350D01*
X86921200Y-82807350D01*
X86838650Y-82724800D01*
X86520000Y-82723202D01*
X86455269Y-82729577D01*
X86393026Y-82748459D01*
X86335663Y-82779120D01*
X86285383Y-82820383D01*
X86244120Y-82870663D01*
X86213459Y-82928026D01*
X86194577Y-82990269D01*
X86188202Y-83055000D01*
X85896798Y-83055000D01*
X85890423Y-82990269D01*
X85871541Y-82928026D01*
X85840880Y-82870663D01*
X85799617Y-82820383D01*
X85749337Y-82779120D01*
X85691974Y-82748459D01*
X85629731Y-82729577D01*
X85565000Y-82723202D01*
X85246350Y-82724800D01*
X85163800Y-82807350D01*
X85016200Y-82807350D01*
X84933650Y-82724800D01*
X84842285Y-82724342D01*
X84836438Y-82664973D01*
X84795885Y-82531288D01*
X84730031Y-82408083D01*
X84677917Y-82344583D01*
X84663612Y-82327152D01*
X84663608Y-82327148D01*
X84641405Y-82300094D01*
X84614352Y-82277892D01*
X84415660Y-82079200D01*
X84596256Y-82079200D01*
X84873341Y-82024084D01*
X85134348Y-81915971D01*
X85369249Y-81759016D01*
X85564725Y-81563540D01*
X85569254Y-81609523D01*
%TA.AperFunction,Conductor*%
D18*
G36*
X85569254Y-81609523D02*
G01*
X85602659Y-81719645D01*
X85656906Y-81821134D01*
X85729910Y-81910090D01*
X85818866Y-81983094D01*
X85920355Y-82037341D01*
X86030477Y-82070746D01*
X86145000Y-82082026D01*
X87845000Y-82082026D01*
X87959523Y-82070746D01*
X88039774Y-82046402D01*
X88048327Y-84954173D01*
X88041183Y-84881643D01*
X87994263Y-84726968D01*
X87918068Y-84584418D01*
X87815528Y-84459472D01*
X87690582Y-84356932D01*
X87686304Y-84354646D01*
X87704617Y-84339617D01*
X87745880Y-84289337D01*
X87776541Y-84231974D01*
X87795423Y-84169731D01*
X87801798Y-84105000D01*
X87800200Y-83736350D01*
X87717650Y-83653800D01*
X87068800Y-83653800D01*
X87068800Y-83673800D01*
X86921200Y-83673800D01*
X86921200Y-83653800D01*
X86272350Y-83653800D01*
X86189800Y-83736350D01*
X86188202Y-84105000D01*
X86194577Y-84169731D01*
X86213459Y-84231974D01*
X86244120Y-84289337D01*
X86285383Y-84339617D01*
X86303696Y-84354646D01*
X86299418Y-84356932D01*
X86174472Y-84459472D01*
X86071932Y-84584418D01*
X86042500Y-84639481D01*
X86013068Y-84584418D01*
X85910528Y-84459472D01*
X85785582Y-84356932D01*
X85781304Y-84354646D01*
X85799617Y-84339617D01*
X85840880Y-84289337D01*
X85871541Y-84231974D01*
X85890423Y-84169731D01*
X85896798Y-84105000D01*
X85895200Y-83736350D01*
X85812650Y-83653800D01*
X85163800Y-83653800D01*
X85163800Y-83673800D01*
X85016200Y-83673800D01*
X85016200Y-83653800D01*
X84996200Y-83653800D01*
X84996200Y-83506200D01*
X85016200Y-83506200D01*
X85016200Y-82807350D01*
X85163800Y-82807350D01*
X85163800Y-83506200D01*
X85812650Y-83506200D01*
X85895200Y-83423650D01*
X85896798Y-83055000D01*
X86188202Y-83055000D01*
X86189800Y-83423650D01*
X86272350Y-83506200D01*
X86921200Y-83506200D01*
X86921200Y-82807350D01*
X87068800Y-82807350D01*
X87068800Y-83506200D01*
X87717650Y-83506200D01*
X87800200Y-83423650D01*
X87801798Y-83055000D01*
X87795423Y-82990269D01*
X87776541Y-82928026D01*
X87745880Y-82870663D01*
X87704617Y-82820383D01*
X87654337Y-82779120D01*
X87596974Y-82748459D01*
X87534731Y-82729577D01*
X87470000Y-82723202D01*
X87151350Y-82724800D01*
X87068800Y-82807350D01*
X86921200Y-82807350D01*
X86838650Y-82724800D01*
X86520000Y-82723202D01*
X86455269Y-82729577D01*
X86393026Y-82748459D01*
X86335663Y-82779120D01*
X86285383Y-82820383D01*
X86244120Y-82870663D01*
X86213459Y-82928026D01*
X86194577Y-82990269D01*
X86188202Y-83055000D01*
X85896798Y-83055000D01*
X85890423Y-82990269D01*
X85871541Y-82928026D01*
X85840880Y-82870663D01*
X85799617Y-82820383D01*
X85749337Y-82779120D01*
X85691974Y-82748459D01*
X85629731Y-82729577D01*
X85565000Y-82723202D01*
X85246350Y-82724800D01*
X85163800Y-82807350D01*
X85016200Y-82807350D01*
X84933650Y-82724800D01*
X84842285Y-82724342D01*
X84836438Y-82664973D01*
X84795885Y-82531288D01*
X84730031Y-82408083D01*
X84677917Y-82344583D01*
X84663612Y-82327152D01*
X84663608Y-82327148D01*
X84641405Y-82300094D01*
X84614352Y-82277892D01*
X84415660Y-82079200D01*
X84596256Y-82079200D01*
X84873341Y-82024084D01*
X85134348Y-81915971D01*
X85369249Y-81759016D01*
X85564725Y-81563540D01*
X85569254Y-81609523D01*
G37*
%TD.AperFunction*%
%TD*%
M02*
