%TF.GenerationSoftware,KiCad,Pcbnew,(5.1.10)-1*%
%TF.CreationDate,2021-06-12T21:35:10-03:00*%
%TF.ProjectId,Themu-Main,5468656d-752d-44d6-9169-6e2e6b696361,02*%
%TF.SameCoordinates,Original*%
%TF.FileFunction,Soldermask,Top*%
%TF.FilePolarity,Negative*%
%FSLAX46Y46*%
G04 Gerber Fmt 4.6, Leading zero omitted, Abs format (unit mm)*
G04 Created by KiCad (PCBNEW (5.1.10)-1) date 2021-06-12 21:35:10*
%MOMM*%
%LPD*%
G01*
G04 APERTURE LIST*
%ADD10O,2.000000X1.300000*%
%ADD11C,1.550000*%
%ADD12O,1.300000X1.850000*%
%ADD13O,1.800000X1.800000*%
G04 APERTURE END LIST*
%TO.C,J1*%
G36*
G01*
X45437500Y-92335000D02*
X47337500Y-92335000D01*
G75*
G02*
X47387500Y-92385000I0J-50000D01*
G01*
X47387500Y-93585000D01*
G75*
G02*
X47337500Y-93635000I-50000J0D01*
G01*
X45437500Y-93635000D01*
G75*
G02*
X45387500Y-93585000I0J50000D01*
G01*
X45387500Y-92385000D01*
G75*
G02*
X45437500Y-92335000I50000J0D01*
G01*
G37*
G36*
G01*
X45437500Y-98135000D02*
X47337500Y-98135000D01*
G75*
G02*
X47387500Y-98185000I0J-50000D01*
G01*
X47387500Y-99385000D01*
G75*
G02*
X47337500Y-99435000I-50000J0D01*
G01*
X45437500Y-99435000D01*
G75*
G02*
X45387500Y-99385000I0J50000D01*
G01*
X45387500Y-98185000D01*
G75*
G02*
X45437500Y-98135000I50000J0D01*
G01*
G37*
D10*
X46387500Y-99385000D03*
X46387500Y-92385000D03*
G36*
G01*
X45437500Y-94085000D02*
X47337500Y-94085000D01*
G75*
G02*
X47387500Y-94135000I0J-50000D01*
G01*
X47387500Y-95635000D01*
G75*
G02*
X47337500Y-95685000I-50000J0D01*
G01*
X45437500Y-95685000D01*
G75*
G02*
X45387500Y-95635000I0J50000D01*
G01*
X45387500Y-94135000D01*
G75*
G02*
X45437500Y-94085000I50000J0D01*
G01*
G37*
D11*
X49087500Y-98385000D03*
G36*
G01*
X48412500Y-95635000D02*
X49762500Y-95635000D01*
G75*
G02*
X49812500Y-95685000I0J-50000D01*
G01*
X49812500Y-96085000D01*
G75*
G02*
X49762500Y-96135000I-50000J0D01*
G01*
X48412500Y-96135000D01*
G75*
G02*
X48362500Y-96085000I0J50000D01*
G01*
X48362500Y-95685000D01*
G75*
G02*
X48412500Y-95635000I50000J0D01*
G01*
G37*
G36*
G01*
X48412500Y-96285000D02*
X49762500Y-96285000D01*
G75*
G02*
X49812500Y-96335000I0J-50000D01*
G01*
X49812500Y-96735000D01*
G75*
G02*
X49762500Y-96785000I-50000J0D01*
G01*
X48412500Y-96785000D01*
G75*
G02*
X48362500Y-96735000I0J50000D01*
G01*
X48362500Y-96335000D01*
G75*
G02*
X48412500Y-96285000I50000J0D01*
G01*
G37*
G36*
G01*
X48412500Y-96935000D02*
X49762500Y-96935000D01*
G75*
G02*
X49812500Y-96985000I0J-50000D01*
G01*
X49812500Y-97385000D01*
G75*
G02*
X49762500Y-97435000I-50000J0D01*
G01*
X48412500Y-97435000D01*
G75*
G02*
X48362500Y-97385000I0J50000D01*
G01*
X48362500Y-96985000D01*
G75*
G02*
X48412500Y-96935000I50000J0D01*
G01*
G37*
G36*
G01*
X48412500Y-94335000D02*
X49762500Y-94335000D01*
G75*
G02*
X49812500Y-94385000I0J-50000D01*
G01*
X49812500Y-94785000D01*
G75*
G02*
X49762500Y-94835000I-50000J0D01*
G01*
X48412500Y-94835000D01*
G75*
G02*
X48362500Y-94785000I0J50000D01*
G01*
X48362500Y-94385000D01*
G75*
G02*
X48412500Y-94335000I50000J0D01*
G01*
G37*
G36*
G01*
X48412500Y-94985000D02*
X49762500Y-94985000D01*
G75*
G02*
X49812500Y-95035000I0J-50000D01*
G01*
X49812500Y-95435000D01*
G75*
G02*
X49762500Y-95485000I-50000J0D01*
G01*
X48412500Y-95485000D01*
G75*
G02*
X48362500Y-95435000I0J50000D01*
G01*
X48362500Y-95035000D01*
G75*
G02*
X48412500Y-94985000I50000J0D01*
G01*
G37*
X49087500Y-93385000D03*
G36*
G01*
X45437500Y-96085000D02*
X47337500Y-96085000D01*
G75*
G02*
X47387500Y-96135000I0J-50000D01*
G01*
X47387500Y-97635000D01*
G75*
G02*
X47337500Y-97685000I-50000J0D01*
G01*
X45437500Y-97685000D01*
G75*
G02*
X45387500Y-97635000I0J50000D01*
G01*
X45387500Y-96135000D01*
G75*
G02*
X45437500Y-96085000I50000J0D01*
G01*
G37*
%TD*%
%TO.C,U3*%
G36*
G01*
X85910000Y-99525000D02*
X86810000Y-99525000D01*
G75*
G02*
X86860000Y-99575000I0J-50000D01*
G01*
X86860000Y-101575000D01*
G75*
G02*
X86810000Y-101625000I-50000J0D01*
G01*
X85910000Y-101625000D01*
G75*
G02*
X85860000Y-101575000I0J50000D01*
G01*
X85860000Y-99575000D01*
G75*
G02*
X85910000Y-99525000I50000J0D01*
G01*
G37*
G36*
G01*
X84640000Y-99525000D02*
X85540000Y-99525000D01*
G75*
G02*
X85590000Y-99575000I0J-50000D01*
G01*
X85590000Y-101575000D01*
G75*
G02*
X85540000Y-101625000I-50000J0D01*
G01*
X84640000Y-101625000D01*
G75*
G02*
X84590000Y-101575000I0J50000D01*
G01*
X84590000Y-99575000D01*
G75*
G02*
X84640000Y-99525000I50000J0D01*
G01*
G37*
G36*
G01*
X83370000Y-99525000D02*
X84270000Y-99525000D01*
G75*
G02*
X84320000Y-99575000I0J-50000D01*
G01*
X84320000Y-101575000D01*
G75*
G02*
X84270000Y-101625000I-50000J0D01*
G01*
X83370000Y-101625000D01*
G75*
G02*
X83320000Y-101575000I0J50000D01*
G01*
X83320000Y-99575000D01*
G75*
G02*
X83370000Y-99525000I50000J0D01*
G01*
G37*
G36*
G01*
X82100000Y-99525000D02*
X83000000Y-99525000D01*
G75*
G02*
X83050000Y-99575000I0J-50000D01*
G01*
X83050000Y-101575000D01*
G75*
G02*
X83000000Y-101625000I-50000J0D01*
G01*
X82100000Y-101625000D01*
G75*
G02*
X82050000Y-101575000I0J50000D01*
G01*
X82050000Y-99575000D01*
G75*
G02*
X82100000Y-99525000I50000J0D01*
G01*
G37*
G36*
G01*
X80830000Y-99525000D02*
X81730000Y-99525000D01*
G75*
G02*
X81780000Y-99575000I0J-50000D01*
G01*
X81780000Y-101575000D01*
G75*
G02*
X81730000Y-101625000I-50000J0D01*
G01*
X80830000Y-101625000D01*
G75*
G02*
X80780000Y-101575000I0J50000D01*
G01*
X80780000Y-99575000D01*
G75*
G02*
X80830000Y-99525000I50000J0D01*
G01*
G37*
G36*
G01*
X79560000Y-99525000D02*
X80460000Y-99525000D01*
G75*
G02*
X80510000Y-99575000I0J-50000D01*
G01*
X80510000Y-101575000D01*
G75*
G02*
X80460000Y-101625000I-50000J0D01*
G01*
X79560000Y-101625000D01*
G75*
G02*
X79510000Y-101575000I0J50000D01*
G01*
X79510000Y-99575000D01*
G75*
G02*
X79560000Y-99525000I50000J0D01*
G01*
G37*
G36*
G01*
X78290000Y-99525000D02*
X79190000Y-99525000D01*
G75*
G02*
X79240000Y-99575000I0J-50000D01*
G01*
X79240000Y-101575000D01*
G75*
G02*
X79190000Y-101625000I-50000J0D01*
G01*
X78290000Y-101625000D01*
G75*
G02*
X78240000Y-101575000I0J50000D01*
G01*
X78240000Y-99575000D01*
G75*
G02*
X78290000Y-99525000I50000J0D01*
G01*
G37*
G36*
G01*
X77020000Y-99525000D02*
X77920000Y-99525000D01*
G75*
G02*
X77970000Y-99575000I0J-50000D01*
G01*
X77970000Y-101575000D01*
G75*
G02*
X77920000Y-101625000I-50000J0D01*
G01*
X77020000Y-101625000D01*
G75*
G02*
X76970000Y-101575000I0J50000D01*
G01*
X76970000Y-99575000D01*
G75*
G02*
X77020000Y-99525000I50000J0D01*
G01*
G37*
G36*
G01*
X75750000Y-99525000D02*
X76650000Y-99525000D01*
G75*
G02*
X76700000Y-99575000I0J-50000D01*
G01*
X76700000Y-101575000D01*
G75*
G02*
X76650000Y-101625000I-50000J0D01*
G01*
X75750000Y-101625000D01*
G75*
G02*
X75700000Y-101575000I0J50000D01*
G01*
X75700000Y-99575000D01*
G75*
G02*
X75750000Y-99525000I50000J0D01*
G01*
G37*
G36*
G01*
X74480000Y-99525000D02*
X75380000Y-99525000D01*
G75*
G02*
X75430000Y-99575000I0J-50000D01*
G01*
X75430000Y-101575000D01*
G75*
G02*
X75380000Y-101625000I-50000J0D01*
G01*
X74480000Y-101625000D01*
G75*
G02*
X74430000Y-101575000I0J50000D01*
G01*
X74430000Y-99575000D01*
G75*
G02*
X74480000Y-99525000I50000J0D01*
G01*
G37*
G36*
G01*
X73210000Y-99525000D02*
X74110000Y-99525000D01*
G75*
G02*
X74160000Y-99575000I0J-50000D01*
G01*
X74160000Y-101575000D01*
G75*
G02*
X74110000Y-101625000I-50000J0D01*
G01*
X73210000Y-101625000D01*
G75*
G02*
X73160000Y-101575000I0J50000D01*
G01*
X73160000Y-99575000D01*
G75*
G02*
X73210000Y-99525000I50000J0D01*
G01*
G37*
G36*
G01*
X71940000Y-99525000D02*
X72840000Y-99525000D01*
G75*
G02*
X72890000Y-99575000I0J-50000D01*
G01*
X72890000Y-101575000D01*
G75*
G02*
X72840000Y-101625000I-50000J0D01*
G01*
X71940000Y-101625000D01*
G75*
G02*
X71890000Y-101575000I0J50000D01*
G01*
X71890000Y-99575000D01*
G75*
G02*
X71940000Y-99525000I50000J0D01*
G01*
G37*
G36*
G01*
X70670000Y-99525000D02*
X71570000Y-99525000D01*
G75*
G02*
X71620000Y-99575000I0J-50000D01*
G01*
X71620000Y-101575000D01*
G75*
G02*
X71570000Y-101625000I-50000J0D01*
G01*
X70670000Y-101625000D01*
G75*
G02*
X70620000Y-101575000I0J50000D01*
G01*
X70620000Y-99575000D01*
G75*
G02*
X70670000Y-99525000I50000J0D01*
G01*
G37*
G36*
G01*
X69400000Y-99525000D02*
X70300000Y-99525000D01*
G75*
G02*
X70350000Y-99575000I0J-50000D01*
G01*
X70350000Y-101575000D01*
G75*
G02*
X70300000Y-101625000I-50000J0D01*
G01*
X69400000Y-101625000D01*
G75*
G02*
X69350000Y-101575000I0J50000D01*
G01*
X69350000Y-99575000D01*
G75*
G02*
X69400000Y-99525000I50000J0D01*
G01*
G37*
G36*
G01*
X67800000Y-98240000D02*
X67800000Y-97340000D01*
G75*
G02*
X67850000Y-97290000I50000J0D01*
G01*
X69850000Y-97290000D01*
G75*
G02*
X69900000Y-97340000I0J-50000D01*
G01*
X69900000Y-98240000D01*
G75*
G02*
X69850000Y-98290000I-50000J0D01*
G01*
X67850000Y-98290000D01*
G75*
G02*
X67800000Y-98240000I0J50000D01*
G01*
G37*
G36*
G01*
X67800000Y-96970000D02*
X67800000Y-96070000D01*
G75*
G02*
X67850000Y-96020000I50000J0D01*
G01*
X69850000Y-96020000D01*
G75*
G02*
X69900000Y-96070000I0J-50000D01*
G01*
X69900000Y-96970000D01*
G75*
G02*
X69850000Y-97020000I-50000J0D01*
G01*
X67850000Y-97020000D01*
G75*
G02*
X67800000Y-96970000I0J50000D01*
G01*
G37*
G36*
G01*
X67800000Y-95700000D02*
X67800000Y-94800000D01*
G75*
G02*
X67850000Y-94750000I50000J0D01*
G01*
X69850000Y-94750000D01*
G75*
G02*
X69900000Y-94800000I0J-50000D01*
G01*
X69900000Y-95700000D01*
G75*
G02*
X69850000Y-95750000I-50000J0D01*
G01*
X67850000Y-95750000D01*
G75*
G02*
X67800000Y-95700000I0J50000D01*
G01*
G37*
G36*
G01*
X67800000Y-94430000D02*
X67800000Y-93530000D01*
G75*
G02*
X67850000Y-93480000I50000J0D01*
G01*
X69850000Y-93480000D01*
G75*
G02*
X69900000Y-93530000I0J-50000D01*
G01*
X69900000Y-94430000D01*
G75*
G02*
X69850000Y-94480000I-50000J0D01*
G01*
X67850000Y-94480000D01*
G75*
G02*
X67800000Y-94430000I0J50000D01*
G01*
G37*
G36*
G01*
X67800000Y-93160000D02*
X67800000Y-92260000D01*
G75*
G02*
X67850000Y-92210000I50000J0D01*
G01*
X69850000Y-92210000D01*
G75*
G02*
X69900000Y-92260000I0J-50000D01*
G01*
X69900000Y-93160000D01*
G75*
G02*
X69850000Y-93210000I-50000J0D01*
G01*
X67850000Y-93210000D01*
G75*
G02*
X67800000Y-93160000I0J50000D01*
G01*
G37*
G36*
G01*
X67800000Y-91890000D02*
X67800000Y-90990000D01*
G75*
G02*
X67850000Y-90940000I50000J0D01*
G01*
X69850000Y-90940000D01*
G75*
G02*
X69900000Y-90990000I0J-50000D01*
G01*
X69900000Y-91890000D01*
G75*
G02*
X69850000Y-91940000I-50000J0D01*
G01*
X67850000Y-91940000D01*
G75*
G02*
X67800000Y-91890000I0J50000D01*
G01*
G37*
G36*
G01*
X67800000Y-90620000D02*
X67800000Y-89720000D01*
G75*
G02*
X67850000Y-89670000I50000J0D01*
G01*
X69850000Y-89670000D01*
G75*
G02*
X69900000Y-89720000I0J-50000D01*
G01*
X69900000Y-90620000D01*
G75*
G02*
X69850000Y-90670000I-50000J0D01*
G01*
X67850000Y-90670000D01*
G75*
G02*
X67800000Y-90620000I0J50000D01*
G01*
G37*
G36*
G01*
X67800000Y-89350000D02*
X67800000Y-88450000D01*
G75*
G02*
X67850000Y-88400000I50000J0D01*
G01*
X69850000Y-88400000D01*
G75*
G02*
X69900000Y-88450000I0J-50000D01*
G01*
X69900000Y-89350000D01*
G75*
G02*
X69850000Y-89400000I-50000J0D01*
G01*
X67850000Y-89400000D01*
G75*
G02*
X67800000Y-89350000I0J50000D01*
G01*
G37*
G36*
G01*
X67800000Y-88080000D02*
X67800000Y-87180000D01*
G75*
G02*
X67850000Y-87130000I50000J0D01*
G01*
X69850000Y-87130000D01*
G75*
G02*
X69900000Y-87180000I0J-50000D01*
G01*
X69900000Y-88080000D01*
G75*
G02*
X69850000Y-88130000I-50000J0D01*
G01*
X67850000Y-88130000D01*
G75*
G02*
X67800000Y-88080000I0J50000D01*
G01*
G37*
G36*
G01*
X67800000Y-86810000D02*
X67800000Y-85910000D01*
G75*
G02*
X67850000Y-85860000I50000J0D01*
G01*
X69850000Y-85860000D01*
G75*
G02*
X69900000Y-85910000I0J-50000D01*
G01*
X69900000Y-86810000D01*
G75*
G02*
X69850000Y-86860000I-50000J0D01*
G01*
X67850000Y-86860000D01*
G75*
G02*
X67800000Y-86810000I0J50000D01*
G01*
G37*
G36*
G01*
X69400000Y-82525000D02*
X70300000Y-82525000D01*
G75*
G02*
X70350000Y-82575000I0J-50000D01*
G01*
X70350000Y-84575000D01*
G75*
G02*
X70300000Y-84625000I-50000J0D01*
G01*
X69400000Y-84625000D01*
G75*
G02*
X69350000Y-84575000I0J50000D01*
G01*
X69350000Y-82575000D01*
G75*
G02*
X69400000Y-82525000I50000J0D01*
G01*
G37*
G36*
G01*
X70670000Y-82525000D02*
X71570000Y-82525000D01*
G75*
G02*
X71620000Y-82575000I0J-50000D01*
G01*
X71620000Y-84575000D01*
G75*
G02*
X71570000Y-84625000I-50000J0D01*
G01*
X70670000Y-84625000D01*
G75*
G02*
X70620000Y-84575000I0J50000D01*
G01*
X70620000Y-82575000D01*
G75*
G02*
X70670000Y-82525000I50000J0D01*
G01*
G37*
G36*
G01*
X71940000Y-82525000D02*
X72840000Y-82525000D01*
G75*
G02*
X72890000Y-82575000I0J-50000D01*
G01*
X72890000Y-84575000D01*
G75*
G02*
X72840000Y-84625000I-50000J0D01*
G01*
X71940000Y-84625000D01*
G75*
G02*
X71890000Y-84575000I0J50000D01*
G01*
X71890000Y-82575000D01*
G75*
G02*
X71940000Y-82525000I50000J0D01*
G01*
G37*
G36*
G01*
X73210000Y-82525000D02*
X74110000Y-82525000D01*
G75*
G02*
X74160000Y-82575000I0J-50000D01*
G01*
X74160000Y-84575000D01*
G75*
G02*
X74110000Y-84625000I-50000J0D01*
G01*
X73210000Y-84625000D01*
G75*
G02*
X73160000Y-84575000I0J50000D01*
G01*
X73160000Y-82575000D01*
G75*
G02*
X73210000Y-82525000I50000J0D01*
G01*
G37*
G36*
G01*
X74480000Y-82525000D02*
X75380000Y-82525000D01*
G75*
G02*
X75430000Y-82575000I0J-50000D01*
G01*
X75430000Y-84575000D01*
G75*
G02*
X75380000Y-84625000I-50000J0D01*
G01*
X74480000Y-84625000D01*
G75*
G02*
X74430000Y-84575000I0J50000D01*
G01*
X74430000Y-82575000D01*
G75*
G02*
X74480000Y-82525000I50000J0D01*
G01*
G37*
G36*
G01*
X75750000Y-82525000D02*
X76650000Y-82525000D01*
G75*
G02*
X76700000Y-82575000I0J-50000D01*
G01*
X76700000Y-84575000D01*
G75*
G02*
X76650000Y-84625000I-50000J0D01*
G01*
X75750000Y-84625000D01*
G75*
G02*
X75700000Y-84575000I0J50000D01*
G01*
X75700000Y-82575000D01*
G75*
G02*
X75750000Y-82525000I50000J0D01*
G01*
G37*
G36*
G01*
X77020000Y-82525000D02*
X77920000Y-82525000D01*
G75*
G02*
X77970000Y-82575000I0J-50000D01*
G01*
X77970000Y-84575000D01*
G75*
G02*
X77920000Y-84625000I-50000J0D01*
G01*
X77020000Y-84625000D01*
G75*
G02*
X76970000Y-84575000I0J50000D01*
G01*
X76970000Y-82575000D01*
G75*
G02*
X77020000Y-82525000I50000J0D01*
G01*
G37*
G36*
G01*
X78290000Y-82525000D02*
X79190000Y-82525000D01*
G75*
G02*
X79240000Y-82575000I0J-50000D01*
G01*
X79240000Y-84575000D01*
G75*
G02*
X79190000Y-84625000I-50000J0D01*
G01*
X78290000Y-84625000D01*
G75*
G02*
X78240000Y-84575000I0J50000D01*
G01*
X78240000Y-82575000D01*
G75*
G02*
X78290000Y-82525000I50000J0D01*
G01*
G37*
G36*
G01*
X79560000Y-82525000D02*
X80460000Y-82525000D01*
G75*
G02*
X80510000Y-82575000I0J-50000D01*
G01*
X80510000Y-84575000D01*
G75*
G02*
X80460000Y-84625000I-50000J0D01*
G01*
X79560000Y-84625000D01*
G75*
G02*
X79510000Y-84575000I0J50000D01*
G01*
X79510000Y-82575000D01*
G75*
G02*
X79560000Y-82525000I50000J0D01*
G01*
G37*
G36*
G01*
X80830000Y-82525000D02*
X81730000Y-82525000D01*
G75*
G02*
X81780000Y-82575000I0J-50000D01*
G01*
X81780000Y-84575000D01*
G75*
G02*
X81730000Y-84625000I-50000J0D01*
G01*
X80830000Y-84625000D01*
G75*
G02*
X80780000Y-84575000I0J50000D01*
G01*
X80780000Y-82575000D01*
G75*
G02*
X80830000Y-82525000I50000J0D01*
G01*
G37*
G36*
G01*
X82100000Y-82525000D02*
X83000000Y-82525000D01*
G75*
G02*
X83050000Y-82575000I0J-50000D01*
G01*
X83050000Y-84575000D01*
G75*
G02*
X83000000Y-84625000I-50000J0D01*
G01*
X82100000Y-84625000D01*
G75*
G02*
X82050000Y-84575000I0J50000D01*
G01*
X82050000Y-82575000D01*
G75*
G02*
X82100000Y-82525000I50000J0D01*
G01*
G37*
G36*
G01*
X83370000Y-82525000D02*
X84270000Y-82525000D01*
G75*
G02*
X84320000Y-82575000I0J-50000D01*
G01*
X84320000Y-84575000D01*
G75*
G02*
X84270000Y-84625000I-50000J0D01*
G01*
X83370000Y-84625000D01*
G75*
G02*
X83320000Y-84575000I0J50000D01*
G01*
X83320000Y-82575000D01*
G75*
G02*
X83370000Y-82525000I50000J0D01*
G01*
G37*
G36*
G01*
X84640000Y-82525000D02*
X85540000Y-82525000D01*
G75*
G02*
X85590000Y-82575000I0J-50000D01*
G01*
X85590000Y-84575000D01*
G75*
G02*
X85540000Y-84625000I-50000J0D01*
G01*
X84640000Y-84625000D01*
G75*
G02*
X84590000Y-84575000I0J50000D01*
G01*
X84590000Y-82575000D01*
G75*
G02*
X84640000Y-82525000I50000J0D01*
G01*
G37*
G36*
G01*
X85910000Y-82525000D02*
X86810000Y-82525000D01*
G75*
G02*
X86860000Y-82575000I0J-50000D01*
G01*
X86860000Y-84575000D01*
G75*
G02*
X86810000Y-84625000I-50000J0D01*
G01*
X85910000Y-84625000D01*
G75*
G02*
X85860000Y-84575000I0J50000D01*
G01*
X85860000Y-82575000D01*
G75*
G02*
X85910000Y-82525000I50000J0D01*
G01*
G37*
G36*
G01*
X76360000Y-88525000D02*
X81360000Y-88525000D01*
G75*
G02*
X81410000Y-88575000I0J-50000D01*
G01*
X81410000Y-93575000D01*
G75*
G02*
X81360000Y-93625000I-50000J0D01*
G01*
X76360000Y-93625000D01*
G75*
G02*
X76310000Y-93575000I0J50000D01*
G01*
X76310000Y-88575000D01*
G75*
G02*
X76360000Y-88525000I50000J0D01*
G01*
G37*
%TD*%
D12*
%TO.C,J2*%
X46895000Y-80645000D03*
G36*
G01*
X49545000Y-79990832D02*
X49545000Y-81299168D01*
G75*
G02*
X49274168Y-81570000I-270832J0D01*
G01*
X48515832Y-81570000D01*
G75*
G02*
X48245000Y-81299168I0J270832D01*
G01*
X48245000Y-79990832D01*
G75*
G02*
X48515832Y-79720000I270832J0D01*
G01*
X49274168Y-79720000D01*
G75*
G02*
X49545000Y-79990832I0J-270832D01*
G01*
G37*
%TD*%
%TO.C,C1*%
G36*
G01*
X54790000Y-97527500D02*
X54790000Y-98052500D01*
G75*
G02*
X54527500Y-98315000I-262500J0D01*
G01*
X53902500Y-98315000D01*
G75*
G02*
X53640000Y-98052500I0J262500D01*
G01*
X53640000Y-97527500D01*
G75*
G02*
X53902500Y-97265000I262500J0D01*
G01*
X54527500Y-97265000D01*
G75*
G02*
X54790000Y-97527500I0J-262500D01*
G01*
G37*
G36*
G01*
X53040000Y-97527500D02*
X53040000Y-98052500D01*
G75*
G02*
X52777500Y-98315000I-262500J0D01*
G01*
X52152500Y-98315000D01*
G75*
G02*
X51890000Y-98052500I0J262500D01*
G01*
X51890000Y-97527500D01*
G75*
G02*
X52152500Y-97265000I262500J0D01*
G01*
X52777500Y-97265000D01*
G75*
G02*
X53040000Y-97527500I0J-262500D01*
G01*
G37*
%TD*%
%TO.C,C4*%
G36*
G01*
X63320000Y-86622500D02*
X63320000Y-86097500D01*
G75*
G02*
X63582500Y-85835000I262500J0D01*
G01*
X64207500Y-85835000D01*
G75*
G02*
X64470000Y-86097500I0J-262500D01*
G01*
X64470000Y-86622500D01*
G75*
G02*
X64207500Y-86885000I-262500J0D01*
G01*
X63582500Y-86885000D01*
G75*
G02*
X63320000Y-86622500I0J262500D01*
G01*
G37*
G36*
G01*
X65070000Y-86622500D02*
X65070000Y-86097500D01*
G75*
G02*
X65332500Y-85835000I262500J0D01*
G01*
X65957500Y-85835000D01*
G75*
G02*
X66220000Y-86097500I0J-262500D01*
G01*
X66220000Y-86622500D01*
G75*
G02*
X65957500Y-86885000I-262500J0D01*
G01*
X65332500Y-86885000D01*
G75*
G02*
X65070000Y-86622500I0J262500D01*
G01*
G37*
%TD*%
%TO.C,D2*%
G36*
G01*
X52540000Y-90255000D02*
X52540000Y-91355000D01*
G75*
G02*
X52490000Y-91405000I-50000J0D01*
G01*
X51390000Y-91405000D01*
G75*
G02*
X51340000Y-91355000I0J50000D01*
G01*
X51340000Y-90255000D01*
G75*
G02*
X51390000Y-90205000I50000J0D01*
G01*
X52490000Y-90205000D01*
G75*
G02*
X52540000Y-90255000I0J-50000D01*
G01*
G37*
G36*
G01*
X55340000Y-90255000D02*
X55340000Y-91355000D01*
G75*
G02*
X55290000Y-91405000I-50000J0D01*
G01*
X54190000Y-91405000D01*
G75*
G02*
X54140000Y-91355000I0J50000D01*
G01*
X54140000Y-90255000D01*
G75*
G02*
X54190000Y-90205000I50000J0D01*
G01*
X55290000Y-90205000D01*
G75*
G02*
X55340000Y-90255000I0J-50000D01*
G01*
G37*
%TD*%
%TO.C,D1*%
G36*
G01*
X58755000Y-83557500D02*
X58755000Y-84082500D01*
G75*
G02*
X58492500Y-84345000I-262500J0D01*
G01*
X57867500Y-84345000D01*
G75*
G02*
X57605000Y-84082500I0J262500D01*
G01*
X57605000Y-83557500D01*
G75*
G02*
X57867500Y-83295000I262500J0D01*
G01*
X58492500Y-83295000D01*
G75*
G02*
X58755000Y-83557500I0J-262500D01*
G01*
G37*
G36*
G01*
X60505000Y-83557500D02*
X60505000Y-84082500D01*
G75*
G02*
X60242500Y-84345000I-262500J0D01*
G01*
X59617500Y-84345000D01*
G75*
G02*
X59355000Y-84082500I0J262500D01*
G01*
X59355000Y-83557500D01*
G75*
G02*
X59617500Y-83295000I262500J0D01*
G01*
X60242500Y-83295000D01*
G75*
G02*
X60505000Y-83557500I0J-262500D01*
G01*
G37*
%TD*%
D13*
%TO.C,J3*%
X69215000Y-80645000D03*
X71755000Y-80645000D03*
X74295000Y-80645000D03*
X76835000Y-80645000D03*
X79375000Y-80645000D03*
X81915000Y-80645000D03*
X84455000Y-80645000D03*
G36*
G01*
X87845000Y-81545000D02*
X86145000Y-81545000D01*
G75*
G02*
X86095000Y-81495000I0J50000D01*
G01*
X86095000Y-79795000D01*
G75*
G02*
X86145000Y-79745000I50000J0D01*
G01*
X87845000Y-79745000D01*
G75*
G02*
X87895000Y-79795000I0J-50000D01*
G01*
X87895000Y-81495000D01*
G75*
G02*
X87845000Y-81545000I-50000J0D01*
G01*
G37*
%TD*%
%TO.C,Q1*%
G36*
G01*
X64220000Y-93575000D02*
X63420000Y-93575000D01*
G75*
G02*
X63370000Y-93525000I0J50000D01*
G01*
X63370000Y-92625000D01*
G75*
G02*
X63420000Y-92575000I50000J0D01*
G01*
X64220000Y-92575000D01*
G75*
G02*
X64270000Y-92625000I0J-50000D01*
G01*
X64270000Y-93525000D01*
G75*
G02*
X64220000Y-93575000I-50000J0D01*
G01*
G37*
G36*
G01*
X66120000Y-93575000D02*
X65320000Y-93575000D01*
G75*
G02*
X65270000Y-93525000I0J50000D01*
G01*
X65270000Y-92625000D01*
G75*
G02*
X65320000Y-92575000I50000J0D01*
G01*
X66120000Y-92575000D01*
G75*
G02*
X66170000Y-92625000I0J-50000D01*
G01*
X66170000Y-93525000D01*
G75*
G02*
X66120000Y-93575000I-50000J0D01*
G01*
G37*
G36*
G01*
X65170000Y-91575000D02*
X64370000Y-91575000D01*
G75*
G02*
X64320000Y-91525000I0J50000D01*
G01*
X64320000Y-90625000D01*
G75*
G02*
X64370000Y-90575000I50000J0D01*
G01*
X65170000Y-90575000D01*
G75*
G02*
X65220000Y-90625000I0J-50000D01*
G01*
X65220000Y-91525000D01*
G75*
G02*
X65170000Y-91575000I-50000J0D01*
G01*
G37*
%TD*%
%TO.C,Q2*%
G36*
G01*
X64370000Y-100195000D02*
X65170000Y-100195000D01*
G75*
G02*
X65220000Y-100245000I0J-50000D01*
G01*
X65220000Y-101145000D01*
G75*
G02*
X65170000Y-101195000I-50000J0D01*
G01*
X64370000Y-101195000D01*
G75*
G02*
X64320000Y-101145000I0J50000D01*
G01*
X64320000Y-100245000D01*
G75*
G02*
X64370000Y-100195000I50000J0D01*
G01*
G37*
G36*
G01*
X63420000Y-98195000D02*
X64220000Y-98195000D01*
G75*
G02*
X64270000Y-98245000I0J-50000D01*
G01*
X64270000Y-99145000D01*
G75*
G02*
X64220000Y-99195000I-50000J0D01*
G01*
X63420000Y-99195000D01*
G75*
G02*
X63370000Y-99145000I0J50000D01*
G01*
X63370000Y-98245000D01*
G75*
G02*
X63420000Y-98195000I50000J0D01*
G01*
G37*
G36*
G01*
X65320000Y-98195000D02*
X66120000Y-98195000D01*
G75*
G02*
X66170000Y-98245000I0J-50000D01*
G01*
X66170000Y-99145000D01*
G75*
G02*
X66120000Y-99195000I-50000J0D01*
G01*
X65320000Y-99195000D01*
G75*
G02*
X65270000Y-99145000I0J50000D01*
G01*
X65270000Y-98245000D01*
G75*
G02*
X65320000Y-98195000I50000J0D01*
G01*
G37*
%TD*%
%TO.C,Q3*%
G36*
G01*
X52790000Y-89130000D02*
X51990000Y-89130000D01*
G75*
G02*
X51940000Y-89080000I0J50000D01*
G01*
X51940000Y-88180000D01*
G75*
G02*
X51990000Y-88130000I50000J0D01*
G01*
X52790000Y-88130000D01*
G75*
G02*
X52840000Y-88180000I0J-50000D01*
G01*
X52840000Y-89080000D01*
G75*
G02*
X52790000Y-89130000I-50000J0D01*
G01*
G37*
G36*
G01*
X54690000Y-89130000D02*
X53890000Y-89130000D01*
G75*
G02*
X53840000Y-89080000I0J50000D01*
G01*
X53840000Y-88180000D01*
G75*
G02*
X53890000Y-88130000I50000J0D01*
G01*
X54690000Y-88130000D01*
G75*
G02*
X54740000Y-88180000I0J-50000D01*
G01*
X54740000Y-89080000D01*
G75*
G02*
X54690000Y-89130000I-50000J0D01*
G01*
G37*
G36*
G01*
X53740000Y-87130000D02*
X52940000Y-87130000D01*
G75*
G02*
X52890000Y-87080000I0J50000D01*
G01*
X52890000Y-86180000D01*
G75*
G02*
X52940000Y-86130000I50000J0D01*
G01*
X53740000Y-86130000D01*
G75*
G02*
X53790000Y-86180000I0J-50000D01*
G01*
X53790000Y-87080000D01*
G75*
G02*
X53740000Y-87130000I-50000J0D01*
G01*
G37*
%TD*%
%TO.C,R1*%
G36*
G01*
X65396500Y-94435000D02*
X65921500Y-94435000D01*
G75*
G02*
X66184000Y-94697500I0J-262500D01*
G01*
X66184000Y-95322500D01*
G75*
G02*
X65921500Y-95585000I-262500J0D01*
G01*
X65396500Y-95585000D01*
G75*
G02*
X65134000Y-95322500I0J262500D01*
G01*
X65134000Y-94697500D01*
G75*
G02*
X65396500Y-94435000I262500J0D01*
G01*
G37*
G36*
G01*
X65396500Y-96185000D02*
X65921500Y-96185000D01*
G75*
G02*
X66184000Y-96447500I0J-262500D01*
G01*
X66184000Y-97072500D01*
G75*
G02*
X65921500Y-97335000I-262500J0D01*
G01*
X65396500Y-97335000D01*
G75*
G02*
X65134000Y-97072500I0J262500D01*
G01*
X65134000Y-96447500D01*
G75*
G02*
X65396500Y-96185000I262500J0D01*
G01*
G37*
%TD*%
%TO.C,R2*%
G36*
G01*
X64397500Y-95585000D02*
X63872500Y-95585000D01*
G75*
G02*
X63610000Y-95322500I0J262500D01*
G01*
X63610000Y-94697500D01*
G75*
G02*
X63872500Y-94435000I262500J0D01*
G01*
X64397500Y-94435000D01*
G75*
G02*
X64660000Y-94697500I0J-262500D01*
G01*
X64660000Y-95322500D01*
G75*
G02*
X64397500Y-95585000I-262500J0D01*
G01*
G37*
G36*
G01*
X64397500Y-97335000D02*
X63872500Y-97335000D01*
G75*
G02*
X63610000Y-97072500I0J262500D01*
G01*
X63610000Y-96447500D01*
G75*
G02*
X63872500Y-96185000I262500J0D01*
G01*
X64397500Y-96185000D01*
G75*
G02*
X64660000Y-96447500I0J-262500D01*
G01*
X64660000Y-97072500D01*
G75*
G02*
X64397500Y-97335000I-262500J0D01*
G01*
G37*
%TD*%
%TO.C,R4*%
G36*
G01*
X51890000Y-80272500D02*
X51890000Y-79747500D01*
G75*
G02*
X52152500Y-79485000I262500J0D01*
G01*
X52777500Y-79485000D01*
G75*
G02*
X53040000Y-79747500I0J-262500D01*
G01*
X53040000Y-80272500D01*
G75*
G02*
X52777500Y-80535000I-262500J0D01*
G01*
X52152500Y-80535000D01*
G75*
G02*
X51890000Y-80272500I0J262500D01*
G01*
G37*
G36*
G01*
X53640000Y-80272500D02*
X53640000Y-79747500D01*
G75*
G02*
X53902500Y-79485000I262500J0D01*
G01*
X54527500Y-79485000D01*
G75*
G02*
X54790000Y-79747500I0J-262500D01*
G01*
X54790000Y-80272500D01*
G75*
G02*
X54527500Y-80535000I-262500J0D01*
G01*
X53902500Y-80535000D01*
G75*
G02*
X53640000Y-80272500I0J262500D01*
G01*
G37*
%TD*%
%TO.C,R6*%
G36*
G01*
X51890000Y-93607500D02*
X51890000Y-93082500D01*
G75*
G02*
X52152500Y-92820000I262500J0D01*
G01*
X52777500Y-92820000D01*
G75*
G02*
X53040000Y-93082500I0J-262500D01*
G01*
X53040000Y-93607500D01*
G75*
G02*
X52777500Y-93870000I-262500J0D01*
G01*
X52152500Y-93870000D01*
G75*
G02*
X51890000Y-93607500I0J262500D01*
G01*
G37*
G36*
G01*
X53640000Y-93607500D02*
X53640000Y-93082500D01*
G75*
G02*
X53902500Y-92820000I262500J0D01*
G01*
X54527500Y-92820000D01*
G75*
G02*
X54790000Y-93082500I0J-262500D01*
G01*
X54790000Y-93607500D01*
G75*
G02*
X54527500Y-93870000I-262500J0D01*
G01*
X53902500Y-93870000D01*
G75*
G02*
X53640000Y-93607500I0J262500D01*
G01*
G37*
%TD*%
%TO.C,R7*%
G36*
G01*
X59355000Y-90432500D02*
X59355000Y-89907500D01*
G75*
G02*
X59617500Y-89645000I262500J0D01*
G01*
X60242500Y-89645000D01*
G75*
G02*
X60505000Y-89907500I0J-262500D01*
G01*
X60505000Y-90432500D01*
G75*
G02*
X60242500Y-90695000I-262500J0D01*
G01*
X59617500Y-90695000D01*
G75*
G02*
X59355000Y-90432500I0J262500D01*
G01*
G37*
G36*
G01*
X57605000Y-90432500D02*
X57605000Y-89907500D01*
G75*
G02*
X57867500Y-89645000I262500J0D01*
G01*
X58492500Y-89645000D01*
G75*
G02*
X58755000Y-89907500I0J-262500D01*
G01*
X58755000Y-90432500D01*
G75*
G02*
X58492500Y-90695000I-262500J0D01*
G01*
X57867500Y-90695000D01*
G75*
G02*
X57605000Y-90432500I0J262500D01*
G01*
G37*
%TD*%
%TO.C,R8*%
G36*
G01*
X58755000Y-81652500D02*
X58755000Y-82177500D01*
G75*
G02*
X58492500Y-82440000I-262500J0D01*
G01*
X57867500Y-82440000D01*
G75*
G02*
X57605000Y-82177500I0J262500D01*
G01*
X57605000Y-81652500D01*
G75*
G02*
X57867500Y-81390000I262500J0D01*
G01*
X58492500Y-81390000D01*
G75*
G02*
X58755000Y-81652500I0J-262500D01*
G01*
G37*
G36*
G01*
X60505000Y-81652500D02*
X60505000Y-82177500D01*
G75*
G02*
X60242500Y-82440000I-262500J0D01*
G01*
X59617500Y-82440000D01*
G75*
G02*
X59355000Y-82177500I0J262500D01*
G01*
X59355000Y-81652500D01*
G75*
G02*
X59617500Y-81390000I262500J0D01*
G01*
X60242500Y-81390000D01*
G75*
G02*
X60505000Y-81652500I0J-262500D01*
G01*
G37*
%TD*%
%TO.C,R9*%
G36*
G01*
X58755000Y-79747500D02*
X58755000Y-80272500D01*
G75*
G02*
X58492500Y-80535000I-262500J0D01*
G01*
X57867500Y-80535000D01*
G75*
G02*
X57605000Y-80272500I0J262500D01*
G01*
X57605000Y-79747500D01*
G75*
G02*
X57867500Y-79485000I262500J0D01*
G01*
X58492500Y-79485000D01*
G75*
G02*
X58755000Y-79747500I0J-262500D01*
G01*
G37*
G36*
G01*
X60505000Y-79747500D02*
X60505000Y-80272500D01*
G75*
G02*
X60242500Y-80535000I-262500J0D01*
G01*
X59617500Y-80535000D01*
G75*
G02*
X59355000Y-80272500I0J262500D01*
G01*
X59355000Y-79747500D01*
G75*
G02*
X59617500Y-79485000I262500J0D01*
G01*
X60242500Y-79485000D01*
G75*
G02*
X60505000Y-79747500I0J-262500D01*
G01*
G37*
%TD*%
%TO.C,U1*%
G36*
G01*
X56435000Y-97185000D02*
X56435000Y-94585000D01*
G75*
G02*
X56485000Y-94535000I50000J0D01*
G01*
X59085000Y-94535000D01*
G75*
G02*
X59135000Y-94585000I0J-50000D01*
G01*
X59135000Y-97185000D01*
G75*
G02*
X59085000Y-97235000I-50000J0D01*
G01*
X56485000Y-97235000D01*
G75*
G02*
X56435000Y-97185000I0J50000D01*
G01*
G37*
G36*
G01*
X56360000Y-94322500D02*
X56360000Y-93572500D01*
G75*
G02*
X56447500Y-93485000I87500J0D01*
G01*
X56622500Y-93485000D01*
G75*
G02*
X56710000Y-93572500I0J-87500D01*
G01*
X56710000Y-94322500D01*
G75*
G02*
X56622500Y-94410000I-87500J0D01*
G01*
X56447500Y-94410000D01*
G75*
G02*
X56360000Y-94322500I0J87500D01*
G01*
G37*
G36*
G01*
X56860000Y-94322500D02*
X56860000Y-93572500D01*
G75*
G02*
X56947500Y-93485000I87500J0D01*
G01*
X57122500Y-93485000D01*
G75*
G02*
X57210000Y-93572500I0J-87500D01*
G01*
X57210000Y-94322500D01*
G75*
G02*
X57122500Y-94410000I-87500J0D01*
G01*
X56947500Y-94410000D01*
G75*
G02*
X56860000Y-94322500I0J87500D01*
G01*
G37*
G36*
G01*
X57360000Y-94322500D02*
X57360000Y-93572500D01*
G75*
G02*
X57447500Y-93485000I87500J0D01*
G01*
X57622500Y-93485000D01*
G75*
G02*
X57710000Y-93572500I0J-87500D01*
G01*
X57710000Y-94322500D01*
G75*
G02*
X57622500Y-94410000I-87500J0D01*
G01*
X57447500Y-94410000D01*
G75*
G02*
X57360000Y-94322500I0J87500D01*
G01*
G37*
G36*
G01*
X57860000Y-94322500D02*
X57860000Y-93572500D01*
G75*
G02*
X57947500Y-93485000I87500J0D01*
G01*
X58122500Y-93485000D01*
G75*
G02*
X58210000Y-93572500I0J-87500D01*
G01*
X58210000Y-94322500D01*
G75*
G02*
X58122500Y-94410000I-87500J0D01*
G01*
X57947500Y-94410000D01*
G75*
G02*
X57860000Y-94322500I0J87500D01*
G01*
G37*
G36*
G01*
X58360000Y-94322500D02*
X58360000Y-93572500D01*
G75*
G02*
X58447500Y-93485000I87500J0D01*
G01*
X58622500Y-93485000D01*
G75*
G02*
X58710000Y-93572500I0J-87500D01*
G01*
X58710000Y-94322500D01*
G75*
G02*
X58622500Y-94410000I-87500J0D01*
G01*
X58447500Y-94410000D01*
G75*
G02*
X58360000Y-94322500I0J87500D01*
G01*
G37*
G36*
G01*
X58860000Y-94322500D02*
X58860000Y-93572500D01*
G75*
G02*
X58947500Y-93485000I87500J0D01*
G01*
X59122500Y-93485000D01*
G75*
G02*
X59210000Y-93572500I0J-87500D01*
G01*
X59210000Y-94322500D01*
G75*
G02*
X59122500Y-94410000I-87500J0D01*
G01*
X58947500Y-94410000D01*
G75*
G02*
X58860000Y-94322500I0J87500D01*
G01*
G37*
G36*
G01*
X59260000Y-94722500D02*
X59260000Y-94547500D01*
G75*
G02*
X59347500Y-94460000I87500J0D01*
G01*
X60097500Y-94460000D01*
G75*
G02*
X60185000Y-94547500I0J-87500D01*
G01*
X60185000Y-94722500D01*
G75*
G02*
X60097500Y-94810000I-87500J0D01*
G01*
X59347500Y-94810000D01*
G75*
G02*
X59260000Y-94722500I0J87500D01*
G01*
G37*
G36*
G01*
X59260000Y-95222500D02*
X59260000Y-95047500D01*
G75*
G02*
X59347500Y-94960000I87500J0D01*
G01*
X60097500Y-94960000D01*
G75*
G02*
X60185000Y-95047500I0J-87500D01*
G01*
X60185000Y-95222500D01*
G75*
G02*
X60097500Y-95310000I-87500J0D01*
G01*
X59347500Y-95310000D01*
G75*
G02*
X59260000Y-95222500I0J87500D01*
G01*
G37*
G36*
G01*
X59260000Y-95722500D02*
X59260000Y-95547500D01*
G75*
G02*
X59347500Y-95460000I87500J0D01*
G01*
X60097500Y-95460000D01*
G75*
G02*
X60185000Y-95547500I0J-87500D01*
G01*
X60185000Y-95722500D01*
G75*
G02*
X60097500Y-95810000I-87500J0D01*
G01*
X59347500Y-95810000D01*
G75*
G02*
X59260000Y-95722500I0J87500D01*
G01*
G37*
G36*
G01*
X59260000Y-96222500D02*
X59260000Y-96047500D01*
G75*
G02*
X59347500Y-95960000I87500J0D01*
G01*
X60097500Y-95960000D01*
G75*
G02*
X60185000Y-96047500I0J-87500D01*
G01*
X60185000Y-96222500D01*
G75*
G02*
X60097500Y-96310000I-87500J0D01*
G01*
X59347500Y-96310000D01*
G75*
G02*
X59260000Y-96222500I0J87500D01*
G01*
G37*
G36*
G01*
X59260000Y-96722500D02*
X59260000Y-96547500D01*
G75*
G02*
X59347500Y-96460000I87500J0D01*
G01*
X60097500Y-96460000D01*
G75*
G02*
X60185000Y-96547500I0J-87500D01*
G01*
X60185000Y-96722500D01*
G75*
G02*
X60097500Y-96810000I-87500J0D01*
G01*
X59347500Y-96810000D01*
G75*
G02*
X59260000Y-96722500I0J87500D01*
G01*
G37*
G36*
G01*
X59260000Y-97222500D02*
X59260000Y-97047500D01*
G75*
G02*
X59347500Y-96960000I87500J0D01*
G01*
X60097500Y-96960000D01*
G75*
G02*
X60185000Y-97047500I0J-87500D01*
G01*
X60185000Y-97222500D01*
G75*
G02*
X60097500Y-97310000I-87500J0D01*
G01*
X59347500Y-97310000D01*
G75*
G02*
X59260000Y-97222500I0J87500D01*
G01*
G37*
G36*
G01*
X58860000Y-98197500D02*
X58860000Y-97447500D01*
G75*
G02*
X58947500Y-97360000I87500J0D01*
G01*
X59122500Y-97360000D01*
G75*
G02*
X59210000Y-97447500I0J-87500D01*
G01*
X59210000Y-98197500D01*
G75*
G02*
X59122500Y-98285000I-87500J0D01*
G01*
X58947500Y-98285000D01*
G75*
G02*
X58860000Y-98197500I0J87500D01*
G01*
G37*
G36*
G01*
X58360000Y-98197500D02*
X58360000Y-97447500D01*
G75*
G02*
X58447500Y-97360000I87500J0D01*
G01*
X58622500Y-97360000D01*
G75*
G02*
X58710000Y-97447500I0J-87500D01*
G01*
X58710000Y-98197500D01*
G75*
G02*
X58622500Y-98285000I-87500J0D01*
G01*
X58447500Y-98285000D01*
G75*
G02*
X58360000Y-98197500I0J87500D01*
G01*
G37*
G36*
G01*
X57860000Y-98197500D02*
X57860000Y-97447500D01*
G75*
G02*
X57947500Y-97360000I87500J0D01*
G01*
X58122500Y-97360000D01*
G75*
G02*
X58210000Y-97447500I0J-87500D01*
G01*
X58210000Y-98197500D01*
G75*
G02*
X58122500Y-98285000I-87500J0D01*
G01*
X57947500Y-98285000D01*
G75*
G02*
X57860000Y-98197500I0J87500D01*
G01*
G37*
G36*
G01*
X57360000Y-98197500D02*
X57360000Y-97447500D01*
G75*
G02*
X57447500Y-97360000I87500J0D01*
G01*
X57622500Y-97360000D01*
G75*
G02*
X57710000Y-97447500I0J-87500D01*
G01*
X57710000Y-98197500D01*
G75*
G02*
X57622500Y-98285000I-87500J0D01*
G01*
X57447500Y-98285000D01*
G75*
G02*
X57360000Y-98197500I0J87500D01*
G01*
G37*
G36*
G01*
X56860000Y-98197500D02*
X56860000Y-97447500D01*
G75*
G02*
X56947500Y-97360000I87500J0D01*
G01*
X57122500Y-97360000D01*
G75*
G02*
X57210000Y-97447500I0J-87500D01*
G01*
X57210000Y-98197500D01*
G75*
G02*
X57122500Y-98285000I-87500J0D01*
G01*
X56947500Y-98285000D01*
G75*
G02*
X56860000Y-98197500I0J87500D01*
G01*
G37*
G36*
G01*
X56360000Y-98197500D02*
X56360000Y-97447500D01*
G75*
G02*
X56447500Y-97360000I87500J0D01*
G01*
X56622500Y-97360000D01*
G75*
G02*
X56710000Y-97447500I0J-87500D01*
G01*
X56710000Y-98197500D01*
G75*
G02*
X56622500Y-98285000I-87500J0D01*
G01*
X56447500Y-98285000D01*
G75*
G02*
X56360000Y-98197500I0J87500D01*
G01*
G37*
G36*
G01*
X55385000Y-97222500D02*
X55385000Y-97047500D01*
G75*
G02*
X55472500Y-96960000I87500J0D01*
G01*
X56222500Y-96960000D01*
G75*
G02*
X56310000Y-97047500I0J-87500D01*
G01*
X56310000Y-97222500D01*
G75*
G02*
X56222500Y-97310000I-87500J0D01*
G01*
X55472500Y-97310000D01*
G75*
G02*
X55385000Y-97222500I0J87500D01*
G01*
G37*
G36*
G01*
X55385000Y-96722500D02*
X55385000Y-96547500D01*
G75*
G02*
X55472500Y-96460000I87500J0D01*
G01*
X56222500Y-96460000D01*
G75*
G02*
X56310000Y-96547500I0J-87500D01*
G01*
X56310000Y-96722500D01*
G75*
G02*
X56222500Y-96810000I-87500J0D01*
G01*
X55472500Y-96810000D01*
G75*
G02*
X55385000Y-96722500I0J87500D01*
G01*
G37*
G36*
G01*
X55385000Y-96222500D02*
X55385000Y-96047500D01*
G75*
G02*
X55472500Y-95960000I87500J0D01*
G01*
X56222500Y-95960000D01*
G75*
G02*
X56310000Y-96047500I0J-87500D01*
G01*
X56310000Y-96222500D01*
G75*
G02*
X56222500Y-96310000I-87500J0D01*
G01*
X55472500Y-96310000D01*
G75*
G02*
X55385000Y-96222500I0J87500D01*
G01*
G37*
G36*
G01*
X55385000Y-95722500D02*
X55385000Y-95547500D01*
G75*
G02*
X55472500Y-95460000I87500J0D01*
G01*
X56222500Y-95460000D01*
G75*
G02*
X56310000Y-95547500I0J-87500D01*
G01*
X56310000Y-95722500D01*
G75*
G02*
X56222500Y-95810000I-87500J0D01*
G01*
X55472500Y-95810000D01*
G75*
G02*
X55385000Y-95722500I0J87500D01*
G01*
G37*
G36*
G01*
X55385000Y-95222500D02*
X55385000Y-95047500D01*
G75*
G02*
X55472500Y-94960000I87500J0D01*
G01*
X56222500Y-94960000D01*
G75*
G02*
X56310000Y-95047500I0J-87500D01*
G01*
X56310000Y-95222500D01*
G75*
G02*
X56222500Y-95310000I-87500J0D01*
G01*
X55472500Y-95310000D01*
G75*
G02*
X55385000Y-95222500I0J87500D01*
G01*
G37*
G36*
G01*
X55385000Y-94722500D02*
X55385000Y-94547500D01*
G75*
G02*
X55472500Y-94460000I87500J0D01*
G01*
X56222500Y-94460000D01*
G75*
G02*
X56310000Y-94547500I0J-87500D01*
G01*
X56310000Y-94722500D01*
G75*
G02*
X56222500Y-94810000I-87500J0D01*
G01*
X55472500Y-94810000D01*
G75*
G02*
X55385000Y-94722500I0J87500D01*
G01*
G37*
%TD*%
%TO.C,U2*%
G36*
G01*
X59575000Y-86370000D02*
X59575000Y-85720000D01*
G75*
G02*
X59625000Y-85670000I50000J0D01*
G01*
X60685000Y-85670000D01*
G75*
G02*
X60735000Y-85720000I0J-50000D01*
G01*
X60735000Y-86370000D01*
G75*
G02*
X60685000Y-86420000I-50000J0D01*
G01*
X59625000Y-86420000D01*
G75*
G02*
X59575000Y-86370000I0J50000D01*
G01*
G37*
G36*
G01*
X59575000Y-88270000D02*
X59575000Y-87620000D01*
G75*
G02*
X59625000Y-87570000I50000J0D01*
G01*
X60685000Y-87570000D01*
G75*
G02*
X60735000Y-87620000I0J-50000D01*
G01*
X60735000Y-88270000D01*
G75*
G02*
X60685000Y-88320000I-50000J0D01*
G01*
X59625000Y-88320000D01*
G75*
G02*
X59575000Y-88270000I0J50000D01*
G01*
G37*
G36*
G01*
X57375000Y-88270000D02*
X57375000Y-87620000D01*
G75*
G02*
X57425000Y-87570000I50000J0D01*
G01*
X58485000Y-87570000D01*
G75*
G02*
X58535000Y-87620000I0J-50000D01*
G01*
X58535000Y-88270000D01*
G75*
G02*
X58485000Y-88320000I-50000J0D01*
G01*
X57425000Y-88320000D01*
G75*
G02*
X57375000Y-88270000I0J50000D01*
G01*
G37*
G36*
G01*
X57375000Y-87320000D02*
X57375000Y-86670000D01*
G75*
G02*
X57425000Y-86620000I50000J0D01*
G01*
X58485000Y-86620000D01*
G75*
G02*
X58535000Y-86670000I0J-50000D01*
G01*
X58535000Y-87320000D01*
G75*
G02*
X58485000Y-87370000I-50000J0D01*
G01*
X57425000Y-87370000D01*
G75*
G02*
X57375000Y-87320000I0J50000D01*
G01*
G37*
G36*
G01*
X57375000Y-86370000D02*
X57375000Y-85720000D01*
G75*
G02*
X57425000Y-85670000I50000J0D01*
G01*
X58485000Y-85670000D01*
G75*
G02*
X58535000Y-85720000I0J-50000D01*
G01*
X58535000Y-86370000D01*
G75*
G02*
X58485000Y-86420000I-50000J0D01*
G01*
X57425000Y-86420000D01*
G75*
G02*
X57375000Y-86370000I0J50000D01*
G01*
G37*
%TD*%
%TO.C,U4*%
G36*
G01*
X51660000Y-82560000D02*
X51660000Y-81910000D01*
G75*
G02*
X51710000Y-81860000I50000J0D01*
G01*
X52770000Y-81860000D01*
G75*
G02*
X52820000Y-81910000I0J-50000D01*
G01*
X52820000Y-82560000D01*
G75*
G02*
X52770000Y-82610000I-50000J0D01*
G01*
X51710000Y-82610000D01*
G75*
G02*
X51660000Y-82560000I0J50000D01*
G01*
G37*
G36*
G01*
X51660000Y-83510000D02*
X51660000Y-82860000D01*
G75*
G02*
X51710000Y-82810000I50000J0D01*
G01*
X52770000Y-82810000D01*
G75*
G02*
X52820000Y-82860000I0J-50000D01*
G01*
X52820000Y-83510000D01*
G75*
G02*
X52770000Y-83560000I-50000J0D01*
G01*
X51710000Y-83560000D01*
G75*
G02*
X51660000Y-83510000I0J50000D01*
G01*
G37*
G36*
G01*
X51660000Y-84460000D02*
X51660000Y-83810000D01*
G75*
G02*
X51710000Y-83760000I50000J0D01*
G01*
X52770000Y-83760000D01*
G75*
G02*
X52820000Y-83810000I0J-50000D01*
G01*
X52820000Y-84460000D01*
G75*
G02*
X52770000Y-84510000I-50000J0D01*
G01*
X51710000Y-84510000D01*
G75*
G02*
X51660000Y-84460000I0J50000D01*
G01*
G37*
G36*
G01*
X53860000Y-84460000D02*
X53860000Y-83810000D01*
G75*
G02*
X53910000Y-83760000I50000J0D01*
G01*
X54970000Y-83760000D01*
G75*
G02*
X55020000Y-83810000I0J-50000D01*
G01*
X55020000Y-84460000D01*
G75*
G02*
X54970000Y-84510000I-50000J0D01*
G01*
X53910000Y-84510000D01*
G75*
G02*
X53860000Y-84460000I0J50000D01*
G01*
G37*
G36*
G01*
X53860000Y-82560000D02*
X53860000Y-81910000D01*
G75*
G02*
X53910000Y-81860000I50000J0D01*
G01*
X54970000Y-81860000D01*
G75*
G02*
X55020000Y-81910000I0J-50000D01*
G01*
X55020000Y-82560000D01*
G75*
G02*
X54970000Y-82610000I-50000J0D01*
G01*
X53910000Y-82610000D01*
G75*
G02*
X53860000Y-82560000I0J50000D01*
G01*
G37*
%TD*%
%TO.C,D3*%
G36*
G01*
X65520000Y-88750000D02*
X65520000Y-88000000D01*
G75*
G02*
X65570000Y-87950000I50000J0D01*
G01*
X66520000Y-87950000D01*
G75*
G02*
X66570000Y-88000000I0J-50000D01*
G01*
X66570000Y-88750000D01*
G75*
G02*
X66520000Y-88800000I-50000J0D01*
G01*
X65570000Y-88800000D01*
G75*
G02*
X65520000Y-88750000I0J50000D01*
G01*
G37*
G36*
G01*
X65520000Y-89800000D02*
X65520000Y-89050000D01*
G75*
G02*
X65570000Y-89000000I50000J0D01*
G01*
X66520000Y-89000000D01*
G75*
G02*
X66570000Y-89050000I0J-50000D01*
G01*
X66570000Y-89800000D01*
G75*
G02*
X66520000Y-89850000I-50000J0D01*
G01*
X65570000Y-89850000D01*
G75*
G02*
X65520000Y-89800000I0J50000D01*
G01*
G37*
G36*
G01*
X62970000Y-89800000D02*
X62970000Y-89050000D01*
G75*
G02*
X63020000Y-89000000I50000J0D01*
G01*
X63970000Y-89000000D01*
G75*
G02*
X64020000Y-89050000I0J-50000D01*
G01*
X64020000Y-89800000D01*
G75*
G02*
X63970000Y-89850000I-50000J0D01*
G01*
X63020000Y-89850000D01*
G75*
G02*
X62970000Y-89800000I0J50000D01*
G01*
G37*
G36*
G01*
X62970000Y-88750000D02*
X62970000Y-88000000D01*
G75*
G02*
X63020000Y-87950000I50000J0D01*
G01*
X63970000Y-87950000D01*
G75*
G02*
X64020000Y-88000000I0J-50000D01*
G01*
X64020000Y-88750000D01*
G75*
G02*
X63970000Y-88800000I-50000J0D01*
G01*
X63020000Y-88800000D01*
G75*
G02*
X62970000Y-88750000I0J50000D01*
G01*
G37*
%TD*%
%TO.C,C2*%
G36*
G01*
X49075000Y-88637500D02*
X49075000Y-89162500D01*
G75*
G02*
X48812500Y-89425000I-262500J0D01*
G01*
X48162500Y-89425000D01*
G75*
G02*
X47900000Y-89162500I0J262500D01*
G01*
X47900000Y-88637500D01*
G75*
G02*
X48162500Y-88375000I262500J0D01*
G01*
X48812500Y-88375000D01*
G75*
G02*
X49075000Y-88637500I0J-262500D01*
G01*
G37*
G36*
G01*
X47350000Y-88637500D02*
X47350000Y-89162500D01*
G75*
G02*
X47087500Y-89425000I-262500J0D01*
G01*
X46437500Y-89425000D01*
G75*
G02*
X46175000Y-89162500I0J262500D01*
G01*
X46175000Y-88637500D01*
G75*
G02*
X46437500Y-88375000I262500J0D01*
G01*
X47087500Y-88375000D01*
G75*
G02*
X47350000Y-88637500I0J-262500D01*
G01*
G37*
%TD*%
%TO.C,C3*%
G36*
G01*
X63320000Y-84717500D02*
X63320000Y-84192500D01*
G75*
G02*
X63582500Y-83930000I262500J0D01*
G01*
X64232500Y-83930000D01*
G75*
G02*
X64495000Y-84192500I0J-262500D01*
G01*
X64495000Y-84717500D01*
G75*
G02*
X64232500Y-84980000I-262500J0D01*
G01*
X63582500Y-84980000D01*
G75*
G02*
X63320000Y-84717500I0J262500D01*
G01*
G37*
G36*
G01*
X65045000Y-84717500D02*
X65045000Y-84192500D01*
G75*
G02*
X65307500Y-83930000I262500J0D01*
G01*
X65957500Y-83930000D01*
G75*
G02*
X66220000Y-84192500I0J-262500D01*
G01*
X66220000Y-84717500D01*
G75*
G02*
X65957500Y-84980000I-262500J0D01*
G01*
X65307500Y-84980000D01*
G75*
G02*
X65045000Y-84717500I0J262500D01*
G01*
G37*
%TD*%
%TO.C,C8*%
G36*
G01*
X47350000Y-84827500D02*
X47350000Y-85352500D01*
G75*
G02*
X47087500Y-85615000I-262500J0D01*
G01*
X46437500Y-85615000D01*
G75*
G02*
X46175000Y-85352500I0J262500D01*
G01*
X46175000Y-84827500D01*
G75*
G02*
X46437500Y-84565000I262500J0D01*
G01*
X47087500Y-84565000D01*
G75*
G02*
X47350000Y-84827500I0J-262500D01*
G01*
G37*
G36*
G01*
X49075000Y-84827500D02*
X49075000Y-85352500D01*
G75*
G02*
X48812500Y-85615000I-262500J0D01*
G01*
X48162500Y-85615000D01*
G75*
G02*
X47900000Y-85352500I0J262500D01*
G01*
X47900000Y-84827500D01*
G75*
G02*
X48162500Y-84565000I262500J0D01*
G01*
X48812500Y-84565000D01*
G75*
G02*
X49075000Y-84827500I0J-262500D01*
G01*
G37*
%TD*%
%TO.C,C14*%
G36*
G01*
X53065000Y-100067500D02*
X53065000Y-100592500D01*
G75*
G02*
X52802500Y-100855000I-262500J0D01*
G01*
X52152500Y-100855000D01*
G75*
G02*
X51890000Y-100592500I0J262500D01*
G01*
X51890000Y-100067500D01*
G75*
G02*
X52152500Y-99805000I262500J0D01*
G01*
X52802500Y-99805000D01*
G75*
G02*
X53065000Y-100067500I0J-262500D01*
G01*
G37*
G36*
G01*
X54790000Y-100067500D02*
X54790000Y-100592500D01*
G75*
G02*
X54527500Y-100855000I-262500J0D01*
G01*
X53877500Y-100855000D01*
G75*
G02*
X53615000Y-100592500I0J262500D01*
G01*
X53615000Y-100067500D01*
G75*
G02*
X53877500Y-99805000I262500J0D01*
G01*
X54527500Y-99805000D01*
G75*
G02*
X54790000Y-100067500I0J-262500D01*
G01*
G37*
%TD*%
M02*
