%TF.GenerationSoftware,KiCad,Pcbnew,(5.1.10)-1*%
%TF.CreationDate,2021-06-07T22:34:48-03:00*%
%TF.ProjectId,Themu-Main,5468656d-752d-44d6-9169-6e2e6b696361,02*%
%TF.SameCoordinates,Original*%
%TF.FileFunction,Legend,Top*%
%TF.FilePolarity,Positive*%
%FSLAX46Y46*%
G04 Gerber Fmt 4.6, Leading zero omitted, Abs format (unit mm)*
G04 Created by KiCad (PCBNEW (5.1.10)-1) date 2021-06-07 22:34:48*
%MOMM*%
%LPD*%
G01*
G04 APERTURE LIST*
%ADD10C,0.152400*%
%ADD11C,0.120000*%
G04 APERTURE END LIST*
D10*
X48628333Y-82854000D02*
X49161666Y-82854000D01*
X48895000Y-83120666D02*
X48895000Y-82587333D01*
D11*
%TO.C,J1*%
X49387500Y-91985000D02*
X49387500Y-92435000D01*
X47537500Y-91985000D02*
X49387500Y-91985000D01*
X44987500Y-99785000D02*
X45237500Y-99785000D01*
X44987500Y-91985000D02*
X45237500Y-91985000D01*
X47537500Y-99785000D02*
X49387500Y-99785000D01*
X49387500Y-99785000D02*
X49387500Y-99335000D01*
X49937500Y-94185000D02*
X49937500Y-94635000D01*
X49937500Y-94185000D02*
X49487500Y-94185000D01*
%TO.C,U3*%
X69005000Y-82955000D02*
X68225000Y-82955000D01*
X68225000Y-82955000D02*
X68225000Y-83955000D01*
X69005000Y-101195000D02*
X68225000Y-101195000D01*
X68225000Y-101195000D02*
X68225000Y-100195000D01*
X93970000Y-82955000D02*
X93970000Y-101195000D01*
X93970000Y-101195000D02*
X87550000Y-101195000D01*
X93970000Y-82955000D02*
X87550000Y-82955000D01*
X87550000Y-82955000D02*
X87550000Y-82575000D01*
%TO.C,J2*%
X49755000Y-80505000D02*
X50035000Y-80505000D01*
X50035000Y-80505000D02*
X50035000Y-82105000D01*
X50035000Y-82105000D02*
X50955000Y-82105000D01*
X50955000Y-82105000D02*
X50955000Y-74285000D01*
X50955000Y-74285000D02*
X44835000Y-74285000D01*
X44835000Y-74285000D02*
X44835000Y-82105000D01*
X44835000Y-82105000D02*
X45755000Y-82105000D01*
X45755000Y-82105000D02*
X45755000Y-80505000D01*
X45755000Y-80505000D02*
X46035000Y-80505000D01*
X48395000Y-74285000D02*
X48395000Y-78645000D01*
X48395000Y-78645000D02*
X47395000Y-78645000D01*
X47395000Y-78645000D02*
X47395000Y-74285000D01*
X50955000Y-80505000D02*
X50035000Y-80505000D01*
X44835000Y-80505000D02*
X45755000Y-80505000D01*
X50195000Y-78145000D02*
X50195000Y-76545000D01*
X50195000Y-76545000D02*
X49195000Y-76545000D01*
X49195000Y-76545000D02*
X49195000Y-78145000D01*
X49195000Y-78145000D02*
X50195000Y-78145000D01*
X45595000Y-78145000D02*
X45595000Y-76545000D01*
X45595000Y-76545000D02*
X46595000Y-76545000D01*
X46595000Y-76545000D02*
X46595000Y-78145000D01*
X46595000Y-78145000D02*
X45595000Y-78145000D01*
X49195000Y-76545000D02*
X49195000Y-74285000D01*
X49695000Y-76545000D02*
X49695000Y-74285000D01*
X49755000Y-80505000D02*
X49755000Y-81720000D01*
%TO.C,C1*%
X53511267Y-97280000D02*
X53168733Y-97280000D01*
X53511267Y-98300000D02*
X53168733Y-98300000D01*
%TO.C,C2*%
X48227064Y-87540000D02*
X47022936Y-87540000D01*
X48227064Y-90260000D02*
X47022936Y-90260000D01*
%TO.C,C3*%
X63410000Y-83152064D02*
X63410000Y-81947936D01*
X66130000Y-83152064D02*
X66130000Y-81947936D01*
%TO.C,C4*%
X64598733Y-86870000D02*
X64941267Y-86870000D01*
X64598733Y-85850000D02*
X64941267Y-85850000D01*
%TO.C,C8*%
X48227064Y-83730000D02*
X47022936Y-83730000D01*
X48227064Y-86450000D02*
X47022936Y-86450000D01*
%TO.C,C14*%
X53942064Y-101690000D02*
X52737936Y-101690000D01*
X53942064Y-98970000D02*
X52737936Y-98970000D01*
%TO.C,D2*%
X55540000Y-91805000D02*
X55540000Y-89805000D01*
X55540000Y-89805000D02*
X51690000Y-89805000D01*
X55540000Y-91805000D02*
X51690000Y-91805000D01*
%TO.C,D1*%
X58255000Y-84555000D02*
X60715000Y-84555000D01*
X60715000Y-84555000D02*
X60715000Y-83085000D01*
X60715000Y-83085000D02*
X58255000Y-83085000D01*
%TO.C,Q1*%
X66350000Y-91315000D02*
X66350000Y-92775000D01*
X63190000Y-91315000D02*
X63190000Y-93475000D01*
X63190000Y-91315000D02*
X64120000Y-91315000D01*
X66350000Y-91315000D02*
X65420000Y-91315000D01*
%TO.C,Q2*%
X63190000Y-100455000D02*
X64120000Y-100455000D01*
X66350000Y-100455000D02*
X65420000Y-100455000D01*
X66350000Y-100455000D02*
X66350000Y-98295000D01*
X63190000Y-100455000D02*
X63190000Y-98995000D01*
%TO.C,Q3*%
X54920000Y-86870000D02*
X54920000Y-88330000D01*
X51760000Y-86870000D02*
X51760000Y-89030000D01*
X51760000Y-86870000D02*
X52690000Y-86870000D01*
X54920000Y-86870000D02*
X53990000Y-86870000D01*
%TO.C,R1*%
X65149000Y-95713733D02*
X65149000Y-96056267D01*
X66169000Y-95713733D02*
X66169000Y-96056267D01*
%TO.C,R2*%
X63625000Y-96056267D02*
X63625000Y-95713733D01*
X64645000Y-96056267D02*
X64645000Y-95713733D01*
%TO.C,R4*%
X53168733Y-80520000D02*
X53511267Y-80520000D01*
X53168733Y-79500000D02*
X53511267Y-79500000D01*
%TO.C,R6*%
X53168733Y-93855000D02*
X53511267Y-93855000D01*
X53168733Y-92835000D02*
X53511267Y-92835000D01*
%TO.C,R7*%
X58883733Y-89660000D02*
X59226267Y-89660000D01*
X58883733Y-90680000D02*
X59226267Y-90680000D01*
%TO.C,R8*%
X59226267Y-82425000D02*
X58883733Y-82425000D01*
X59226267Y-81405000D02*
X58883733Y-81405000D01*
%TO.C,R9*%
X59226267Y-80520000D02*
X58883733Y-80520000D01*
X59226267Y-79500000D02*
X58883733Y-79500000D01*
%TO.C,U1*%
X59420000Y-93775000D02*
X59895000Y-93775000D01*
X59895000Y-93775000D02*
X59895000Y-94250000D01*
X56150000Y-97995000D02*
X55675000Y-97995000D01*
X55675000Y-97995000D02*
X55675000Y-97520000D01*
X59420000Y-97995000D02*
X59895000Y-97995000D01*
X59895000Y-97995000D02*
X59895000Y-97520000D01*
X56150000Y-93775000D02*
X55675000Y-93775000D01*
%TO.C,U2*%
X58155000Y-88605000D02*
X59955000Y-88605000D01*
X59955000Y-85385000D02*
X57505000Y-85385000D01*
%TO.C,U4*%
X54240000Y-81575000D02*
X51790000Y-81575000D01*
X52440000Y-84795000D02*
X54240000Y-84795000D01*
%TO.C,D3*%
X64270000Y-88150000D02*
X65270000Y-88150000D01*
X65270000Y-89650000D02*
X64270000Y-89650000D01*
X64270000Y-89650000D02*
X64270000Y-89150000D01*
%TO.C,J1*%
D10*
X45867666Y-100581666D02*
X45867666Y-101081666D01*
X45834333Y-101181666D01*
X45767666Y-101248333D01*
X45667666Y-101281666D01*
X45601000Y-101281666D01*
X46567666Y-101281666D02*
X46167666Y-101281666D01*
X46367666Y-101281666D02*
X46367666Y-100581666D01*
X46301000Y-100681666D01*
X46234333Y-100748333D01*
X46167666Y-100781666D01*
%TO.C,U3*%
X66672666Y-83337333D02*
X67239333Y-83337333D01*
X67306000Y-83304000D01*
X67339333Y-83270666D01*
X67372666Y-83204000D01*
X67372666Y-83070666D01*
X67339333Y-83004000D01*
X67306000Y-82970666D01*
X67239333Y-82937333D01*
X66672666Y-82937333D01*
X66672666Y-82670666D02*
X66672666Y-82237333D01*
X66939333Y-82470666D01*
X66939333Y-82370666D01*
X66972666Y-82304000D01*
X67006000Y-82270666D01*
X67072666Y-82237333D01*
X67239333Y-82237333D01*
X67306000Y-82270666D01*
X67339333Y-82304000D01*
X67372666Y-82370666D01*
X67372666Y-82570666D01*
X67339333Y-82637333D01*
X67306000Y-82670666D01*
%TO.C,J2*%
X47391666Y-82547666D02*
X47391666Y-83047666D01*
X47358333Y-83147666D01*
X47291666Y-83214333D01*
X47191666Y-83247666D01*
X47125000Y-83247666D01*
X47691666Y-82614333D02*
X47725000Y-82581000D01*
X47791666Y-82547666D01*
X47958333Y-82547666D01*
X48025000Y-82581000D01*
X48058333Y-82614333D01*
X48091666Y-82681000D01*
X48091666Y-82747666D01*
X48058333Y-82847666D01*
X47658333Y-83247666D01*
X48091666Y-83247666D01*
%TO.C,C1*%
X50810333Y-98167000D02*
X50777000Y-98200333D01*
X50677000Y-98233666D01*
X50610333Y-98233666D01*
X50510333Y-98200333D01*
X50443666Y-98133666D01*
X50410333Y-98067000D01*
X50377000Y-97933666D01*
X50377000Y-97833666D01*
X50410333Y-97700333D01*
X50443666Y-97633666D01*
X50510333Y-97567000D01*
X50610333Y-97533666D01*
X50677000Y-97533666D01*
X50777000Y-97567000D01*
X50810333Y-97600333D01*
X51477000Y-98233666D02*
X51077000Y-98233666D01*
X51277000Y-98233666D02*
X51277000Y-97533666D01*
X51210333Y-97633666D01*
X51143666Y-97700333D01*
X51077000Y-97733666D01*
%TO.C,C2*%
X45603333Y-91182000D02*
X45570000Y-91215333D01*
X45470000Y-91248666D01*
X45403333Y-91248666D01*
X45303333Y-91215333D01*
X45236666Y-91148666D01*
X45203333Y-91082000D01*
X45170000Y-90948666D01*
X45170000Y-90848666D01*
X45203333Y-90715333D01*
X45236666Y-90648666D01*
X45303333Y-90582000D01*
X45403333Y-90548666D01*
X45470000Y-90548666D01*
X45570000Y-90582000D01*
X45603333Y-90615333D01*
X45870000Y-90615333D02*
X45903333Y-90582000D01*
X45970000Y-90548666D01*
X46136666Y-90548666D01*
X46203333Y-90582000D01*
X46236666Y-90615333D01*
X46270000Y-90682000D01*
X46270000Y-90748666D01*
X46236666Y-90848666D01*
X45836666Y-91248666D01*
X46270000Y-91248666D01*
%TO.C,C3*%
X62367333Y-82800000D02*
X62334000Y-82833333D01*
X62234000Y-82866666D01*
X62167333Y-82866666D01*
X62067333Y-82833333D01*
X62000666Y-82766666D01*
X61967333Y-82700000D01*
X61934000Y-82566666D01*
X61934000Y-82466666D01*
X61967333Y-82333333D01*
X62000666Y-82266666D01*
X62067333Y-82200000D01*
X62167333Y-82166666D01*
X62234000Y-82166666D01*
X62334000Y-82200000D01*
X62367333Y-82233333D01*
X62600666Y-82166666D02*
X63034000Y-82166666D01*
X62800666Y-82433333D01*
X62900666Y-82433333D01*
X62967333Y-82466666D01*
X63000666Y-82500000D01*
X63034000Y-82566666D01*
X63034000Y-82733333D01*
X63000666Y-82800000D01*
X62967333Y-82833333D01*
X62900666Y-82866666D01*
X62700666Y-82866666D01*
X62634000Y-82833333D01*
X62600666Y-82800000D01*
%TO.C,C4*%
X62049833Y-86610000D02*
X62016500Y-86643333D01*
X61916500Y-86676666D01*
X61849833Y-86676666D01*
X61749833Y-86643333D01*
X61683166Y-86576666D01*
X61649833Y-86510000D01*
X61616500Y-86376666D01*
X61616500Y-86276666D01*
X61649833Y-86143333D01*
X61683166Y-86076666D01*
X61749833Y-86010000D01*
X61849833Y-85976666D01*
X61916500Y-85976666D01*
X62016500Y-86010000D01*
X62049833Y-86043333D01*
X62649833Y-86210000D02*
X62649833Y-86676666D01*
X62483166Y-85943333D02*
X62316500Y-86443333D01*
X62749833Y-86443333D01*
%TO.C,C8*%
X45603333Y-83308000D02*
X45570000Y-83341333D01*
X45470000Y-83374666D01*
X45403333Y-83374666D01*
X45303333Y-83341333D01*
X45236666Y-83274666D01*
X45203333Y-83208000D01*
X45170000Y-83074666D01*
X45170000Y-82974666D01*
X45203333Y-82841333D01*
X45236666Y-82774666D01*
X45303333Y-82708000D01*
X45403333Y-82674666D01*
X45470000Y-82674666D01*
X45570000Y-82708000D01*
X45603333Y-82741333D01*
X46003333Y-82974666D02*
X45936666Y-82941333D01*
X45903333Y-82908000D01*
X45870000Y-82841333D01*
X45870000Y-82808000D01*
X45903333Y-82741333D01*
X45936666Y-82708000D01*
X46003333Y-82674666D01*
X46136666Y-82674666D01*
X46203333Y-82708000D01*
X46236666Y-82741333D01*
X46270000Y-82808000D01*
X46270000Y-82841333D01*
X46236666Y-82908000D01*
X46203333Y-82941333D01*
X46136666Y-82974666D01*
X46003333Y-82974666D01*
X45936666Y-83008000D01*
X45903333Y-83041333D01*
X45870000Y-83108000D01*
X45870000Y-83241333D01*
X45903333Y-83308000D01*
X45936666Y-83341333D01*
X46003333Y-83374666D01*
X46136666Y-83374666D01*
X46203333Y-83341333D01*
X46236666Y-83308000D01*
X46270000Y-83241333D01*
X46270000Y-83108000D01*
X46236666Y-83041333D01*
X46203333Y-83008000D01*
X46136666Y-82974666D01*
%TO.C,C14*%
X49207000Y-101723000D02*
X49173666Y-101756333D01*
X49073666Y-101789666D01*
X49007000Y-101789666D01*
X48907000Y-101756333D01*
X48840333Y-101689666D01*
X48807000Y-101623000D01*
X48773666Y-101489666D01*
X48773666Y-101389666D01*
X48807000Y-101256333D01*
X48840333Y-101189666D01*
X48907000Y-101123000D01*
X49007000Y-101089666D01*
X49073666Y-101089666D01*
X49173666Y-101123000D01*
X49207000Y-101156333D01*
X49873666Y-101789666D02*
X49473666Y-101789666D01*
X49673666Y-101789666D02*
X49673666Y-101089666D01*
X49607000Y-101189666D01*
X49540333Y-101256333D01*
X49473666Y-101289666D01*
X50473666Y-101323000D02*
X50473666Y-101789666D01*
X50307000Y-101056333D02*
X50140333Y-101556333D01*
X50573666Y-101556333D01*
%TO.C,D2*%
X49902333Y-91629666D02*
X49902333Y-90929666D01*
X50069000Y-90929666D01*
X50169000Y-90963000D01*
X50235666Y-91029666D01*
X50269000Y-91096333D01*
X50302333Y-91229666D01*
X50302333Y-91329666D01*
X50269000Y-91463000D01*
X50235666Y-91529666D01*
X50169000Y-91596333D01*
X50069000Y-91629666D01*
X49902333Y-91629666D01*
X50569000Y-90996333D02*
X50602333Y-90963000D01*
X50669000Y-90929666D01*
X50835666Y-90929666D01*
X50902333Y-90963000D01*
X50935666Y-90996333D01*
X50969000Y-91063000D01*
X50969000Y-91129666D01*
X50935666Y-91229666D01*
X50535666Y-91629666D01*
X50969000Y-91629666D01*
%TO.C,D1*%
X56252333Y-84263666D02*
X56252333Y-83563666D01*
X56419000Y-83563666D01*
X56519000Y-83597000D01*
X56585666Y-83663666D01*
X56619000Y-83730333D01*
X56652333Y-83863666D01*
X56652333Y-83963666D01*
X56619000Y-84097000D01*
X56585666Y-84163666D01*
X56519000Y-84230333D01*
X56419000Y-84263666D01*
X56252333Y-84263666D01*
X57319000Y-84263666D02*
X56919000Y-84263666D01*
X57119000Y-84263666D02*
X57119000Y-83563666D01*
X57052333Y-83663666D01*
X56985666Y-83730333D01*
X56919000Y-83763666D01*
%TO.C,Q1*%
X62290333Y-92458333D02*
X62223666Y-92425000D01*
X62157000Y-92358333D01*
X62057000Y-92258333D01*
X61990333Y-92225000D01*
X61923666Y-92225000D01*
X61957000Y-92391666D02*
X61890333Y-92358333D01*
X61823666Y-92291666D01*
X61790333Y-92158333D01*
X61790333Y-91925000D01*
X61823666Y-91791666D01*
X61890333Y-91725000D01*
X61957000Y-91691666D01*
X62090333Y-91691666D01*
X62157000Y-91725000D01*
X62223666Y-91791666D01*
X62257000Y-91925000D01*
X62257000Y-92158333D01*
X62223666Y-92291666D01*
X62157000Y-92358333D01*
X62090333Y-92391666D01*
X61957000Y-92391666D01*
X62923666Y-92391666D02*
X62523666Y-92391666D01*
X62723666Y-92391666D02*
X62723666Y-91691666D01*
X62657000Y-91791666D01*
X62590333Y-91858333D01*
X62523666Y-91891666D01*
%TO.C,Q2*%
X62163333Y-101221333D02*
X62096666Y-101188000D01*
X62030000Y-101121333D01*
X61930000Y-101021333D01*
X61863333Y-100988000D01*
X61796666Y-100988000D01*
X61830000Y-101154666D02*
X61763333Y-101121333D01*
X61696666Y-101054666D01*
X61663333Y-100921333D01*
X61663333Y-100688000D01*
X61696666Y-100554666D01*
X61763333Y-100488000D01*
X61830000Y-100454666D01*
X61963333Y-100454666D01*
X62030000Y-100488000D01*
X62096666Y-100554666D01*
X62130000Y-100688000D01*
X62130000Y-100921333D01*
X62096666Y-101054666D01*
X62030000Y-101121333D01*
X61963333Y-101154666D01*
X61830000Y-101154666D01*
X62396666Y-100521333D02*
X62430000Y-100488000D01*
X62496666Y-100454666D01*
X62663333Y-100454666D01*
X62730000Y-100488000D01*
X62763333Y-100521333D01*
X62796666Y-100588000D01*
X62796666Y-100654666D01*
X62763333Y-100754666D01*
X62363333Y-101154666D01*
X62796666Y-101154666D01*
%TO.C,Q3*%
X50733333Y-87378333D02*
X50666666Y-87345000D01*
X50600000Y-87278333D01*
X50500000Y-87178333D01*
X50433333Y-87145000D01*
X50366666Y-87145000D01*
X50400000Y-87311666D02*
X50333333Y-87278333D01*
X50266666Y-87211666D01*
X50233333Y-87078333D01*
X50233333Y-86845000D01*
X50266666Y-86711666D01*
X50333333Y-86645000D01*
X50400000Y-86611666D01*
X50533333Y-86611666D01*
X50600000Y-86645000D01*
X50666666Y-86711666D01*
X50700000Y-86845000D01*
X50700000Y-87078333D01*
X50666666Y-87211666D01*
X50600000Y-87278333D01*
X50533333Y-87311666D01*
X50400000Y-87311666D01*
X50933333Y-86611666D02*
X51366666Y-86611666D01*
X51133333Y-86878333D01*
X51233333Y-86878333D01*
X51300000Y-86911666D01*
X51333333Y-86945000D01*
X51366666Y-87011666D01*
X51366666Y-87178333D01*
X51333333Y-87245000D01*
X51300000Y-87278333D01*
X51233333Y-87311666D01*
X51033333Y-87311666D01*
X50966666Y-87278333D01*
X50933333Y-87245000D01*
%TO.C,R1*%
X67245666Y-96001666D02*
X66912333Y-96235000D01*
X67245666Y-96401666D02*
X66545666Y-96401666D01*
X66545666Y-96135000D01*
X66579000Y-96068333D01*
X66612333Y-96035000D01*
X66679000Y-96001666D01*
X66779000Y-96001666D01*
X66845666Y-96035000D01*
X66879000Y-96068333D01*
X66912333Y-96135000D01*
X66912333Y-96401666D01*
X67245666Y-95335000D02*
X67245666Y-95735000D01*
X67245666Y-95535000D02*
X66545666Y-95535000D01*
X66645666Y-95601666D01*
X66712333Y-95668333D01*
X66745666Y-95735000D01*
%TO.C,R2*%
X63181666Y-96001666D02*
X62848333Y-96235000D01*
X63181666Y-96401666D02*
X62481666Y-96401666D01*
X62481666Y-96135000D01*
X62515000Y-96068333D01*
X62548333Y-96035000D01*
X62615000Y-96001666D01*
X62715000Y-96001666D01*
X62781666Y-96035000D01*
X62815000Y-96068333D01*
X62848333Y-96135000D01*
X62848333Y-96401666D01*
X62548333Y-95735000D02*
X62515000Y-95701666D01*
X62481666Y-95635000D01*
X62481666Y-95468333D01*
X62515000Y-95401666D01*
X62548333Y-95368333D01*
X62615000Y-95335000D01*
X62681666Y-95335000D01*
X62781666Y-95368333D01*
X63181666Y-95768333D01*
X63181666Y-95335000D01*
%TO.C,R4*%
X55255333Y-81469666D02*
X55022000Y-81136333D01*
X54855333Y-81469666D02*
X54855333Y-80769666D01*
X55122000Y-80769666D01*
X55188666Y-80803000D01*
X55222000Y-80836333D01*
X55255333Y-80903000D01*
X55255333Y-81003000D01*
X55222000Y-81069666D01*
X55188666Y-81103000D01*
X55122000Y-81136333D01*
X54855333Y-81136333D01*
X55855333Y-81003000D02*
X55855333Y-81469666D01*
X55688666Y-80736333D02*
X55522000Y-81236333D01*
X55955333Y-81236333D01*
%TO.C,R6*%
X50810333Y-93788666D02*
X50577000Y-93455333D01*
X50410333Y-93788666D02*
X50410333Y-93088666D01*
X50677000Y-93088666D01*
X50743666Y-93122000D01*
X50777000Y-93155333D01*
X50810333Y-93222000D01*
X50810333Y-93322000D01*
X50777000Y-93388666D01*
X50743666Y-93422000D01*
X50677000Y-93455333D01*
X50410333Y-93455333D01*
X51410333Y-93088666D02*
X51277000Y-93088666D01*
X51210333Y-93122000D01*
X51177000Y-93155333D01*
X51110333Y-93255333D01*
X51077000Y-93388666D01*
X51077000Y-93655333D01*
X51110333Y-93722000D01*
X51143666Y-93755333D01*
X51210333Y-93788666D01*
X51343666Y-93788666D01*
X51410333Y-93755333D01*
X51443666Y-93722000D01*
X51477000Y-93655333D01*
X51477000Y-93488666D01*
X51443666Y-93422000D01*
X51410333Y-93388666D01*
X51343666Y-93355333D01*
X51210333Y-93355333D01*
X51143666Y-93388666D01*
X51110333Y-93422000D01*
X51077000Y-93488666D01*
%TO.C,R7*%
X56525333Y-90740666D02*
X56292000Y-90407333D01*
X56125333Y-90740666D02*
X56125333Y-90040666D01*
X56392000Y-90040666D01*
X56458666Y-90074000D01*
X56492000Y-90107333D01*
X56525333Y-90174000D01*
X56525333Y-90274000D01*
X56492000Y-90340666D01*
X56458666Y-90374000D01*
X56392000Y-90407333D01*
X56125333Y-90407333D01*
X56758666Y-90040666D02*
X57225333Y-90040666D01*
X56925333Y-90740666D01*
%TO.C,R8*%
X56652333Y-82231666D02*
X56419000Y-81898333D01*
X56252333Y-82231666D02*
X56252333Y-81531666D01*
X56519000Y-81531666D01*
X56585666Y-81565000D01*
X56619000Y-81598333D01*
X56652333Y-81665000D01*
X56652333Y-81765000D01*
X56619000Y-81831666D01*
X56585666Y-81865000D01*
X56519000Y-81898333D01*
X56252333Y-81898333D01*
X57052333Y-81831666D02*
X56985666Y-81798333D01*
X56952333Y-81765000D01*
X56919000Y-81698333D01*
X56919000Y-81665000D01*
X56952333Y-81598333D01*
X56985666Y-81565000D01*
X57052333Y-81531666D01*
X57185666Y-81531666D01*
X57252333Y-81565000D01*
X57285666Y-81598333D01*
X57319000Y-81665000D01*
X57319000Y-81698333D01*
X57285666Y-81765000D01*
X57252333Y-81798333D01*
X57185666Y-81831666D01*
X57052333Y-81831666D01*
X56985666Y-81865000D01*
X56952333Y-81898333D01*
X56919000Y-81965000D01*
X56919000Y-82098333D01*
X56952333Y-82165000D01*
X56985666Y-82198333D01*
X57052333Y-82231666D01*
X57185666Y-82231666D01*
X57252333Y-82198333D01*
X57285666Y-82165000D01*
X57319000Y-82098333D01*
X57319000Y-81965000D01*
X57285666Y-81898333D01*
X57252333Y-81865000D01*
X57185666Y-81831666D01*
%TO.C,R9*%
X56652333Y-80326666D02*
X56419000Y-79993333D01*
X56252333Y-80326666D02*
X56252333Y-79626666D01*
X56519000Y-79626666D01*
X56585666Y-79660000D01*
X56619000Y-79693333D01*
X56652333Y-79760000D01*
X56652333Y-79860000D01*
X56619000Y-79926666D01*
X56585666Y-79960000D01*
X56519000Y-79993333D01*
X56252333Y-79993333D01*
X56985666Y-80326666D02*
X57119000Y-80326666D01*
X57185666Y-80293333D01*
X57219000Y-80260000D01*
X57285666Y-80160000D01*
X57319000Y-80026666D01*
X57319000Y-79760000D01*
X57285666Y-79693333D01*
X57252333Y-79660000D01*
X57185666Y-79626666D01*
X57052333Y-79626666D01*
X56985666Y-79660000D01*
X56952333Y-79693333D01*
X56919000Y-79760000D01*
X56919000Y-79926666D01*
X56952333Y-79993333D01*
X56985666Y-80026666D01*
X57052333Y-80060000D01*
X57185666Y-80060000D01*
X57252333Y-80026666D01*
X57285666Y-79993333D01*
X57319000Y-79926666D01*
%TO.C,U1*%
X59029666Y-98676666D02*
X59029666Y-99243333D01*
X59063000Y-99310000D01*
X59096333Y-99343333D01*
X59163000Y-99376666D01*
X59296333Y-99376666D01*
X59363000Y-99343333D01*
X59396333Y-99310000D01*
X59429666Y-99243333D01*
X59429666Y-98676666D01*
X60129666Y-99376666D02*
X59729666Y-99376666D01*
X59929666Y-99376666D02*
X59929666Y-98676666D01*
X59863000Y-98776666D01*
X59796333Y-98843333D01*
X59729666Y-98876666D01*
%TO.C,U2*%
X55854666Y-86230666D02*
X55854666Y-86797333D01*
X55888000Y-86864000D01*
X55921333Y-86897333D01*
X55988000Y-86930666D01*
X56121333Y-86930666D01*
X56188000Y-86897333D01*
X56221333Y-86864000D01*
X56254666Y-86797333D01*
X56254666Y-86230666D01*
X56554666Y-86297333D02*
X56588000Y-86264000D01*
X56654666Y-86230666D01*
X56821333Y-86230666D01*
X56888000Y-86264000D01*
X56921333Y-86297333D01*
X56954666Y-86364000D01*
X56954666Y-86430666D01*
X56921333Y-86530666D01*
X56521333Y-86930666D01*
X56954666Y-86930666D01*
%TO.C,U4*%
X50266666Y-82801666D02*
X50266666Y-83368333D01*
X50300000Y-83435000D01*
X50333333Y-83468333D01*
X50400000Y-83501666D01*
X50533333Y-83501666D01*
X50600000Y-83468333D01*
X50633333Y-83435000D01*
X50666666Y-83368333D01*
X50666666Y-82801666D01*
X51300000Y-83035000D02*
X51300000Y-83501666D01*
X51133333Y-82768333D02*
X50966666Y-83268333D01*
X51400000Y-83268333D01*
%TO.C,D3*%
X61459333Y-89851666D02*
X61459333Y-89151666D01*
X61626000Y-89151666D01*
X61726000Y-89185000D01*
X61792666Y-89251666D01*
X61826000Y-89318333D01*
X61859333Y-89451666D01*
X61859333Y-89551666D01*
X61826000Y-89685000D01*
X61792666Y-89751666D01*
X61726000Y-89818333D01*
X61626000Y-89851666D01*
X61459333Y-89851666D01*
X62092666Y-89151666D02*
X62526000Y-89151666D01*
X62292666Y-89418333D01*
X62392666Y-89418333D01*
X62459333Y-89451666D01*
X62492666Y-89485000D01*
X62526000Y-89551666D01*
X62526000Y-89718333D01*
X62492666Y-89785000D01*
X62459333Y-89818333D01*
X62392666Y-89851666D01*
X62192666Y-89851666D01*
X62126000Y-89818333D01*
X62092666Y-89785000D01*
%TD*%
M02*
