M48
; DRILL file {KiCad (5.1.9)-1} date 06/05/21 13:47:40
; FORMAT={-:-/ absolute / inch / decimal}
; #@! TF.CreationDate,2021-06-05T13:47:40-03:00
; #@! TF.GenerationSoftware,Kicad,Pcbnew,(5.1.9)-1
FMAT,2
INCH
T1C0.0157
T2C0.0236
T3C0.0295
T4C0.0335
T5C0.0394
%
G90
G05
T1
X1.955Y-3.94
X2.045Y-3.795
X2.095Y-3.745
X2.185Y-3.355
X2.1875Y-3.15
X2.2Y-3.6575
X2.205Y-3.4625
X2.2075Y-3.275
X2.21Y-3.6
X2.245Y-3.9
X2.285Y-3.6075
X2.285Y-3.65
X2.3275Y-3.65
X2.3525Y-3.975
X2.41Y-3.6025
X2.425Y-3.7625
X2.4425Y-3.6675
X2.4475Y-3.15
X2.4475Y-3.3175
X2.455Y-3.6025
X2.47Y-3.835
X2.4875Y-3.5725
X2.61Y-3.94
X2.6325Y-3.7
X2.635Y-3.44
X2.6475Y-3.895
X2.6925Y-3.2875
X2.78Y-3.465
X2.825Y-3.465
X2.85Y-3.8875
X2.8725Y-3.465
X2.9025Y-3.835
X2.9025Y-3.8875
X2.925Y-3.4125
X2.9525Y-3.7
X2.975Y-3.4125
X2.975Y-3.5
X2.975Y-3.6
X3.0Y-3.55
X3.025Y-3.5
X3.025Y-3.6
X3.05Y-3.4125
X3.05Y-3.55
X3.075Y-3.5
X3.1Y-3.55
X3.125Y-3.4125
X3.125Y-3.5
X3.1275Y-3.725
X3.1375Y-3.67
X3.15Y-3.55
X3.175Y-3.5
X3.2Y-3.4125
X3.2Y-3.55
X3.2Y-3.8875
X3.245Y-3.4125
X3.25Y-3.8875
X3.265Y-3.4625
X3.3125Y-3.4625
X3.35Y-3.4125
X3.35Y-3.6375
X3.4Y-3.885
X3.445Y-3.24
T3
X1.8463Y-3.175
X1.925Y-3.175
T4
X1.9326Y-3.6766
X1.9326Y-3.8734
T5
X2.725Y-3.175
X2.825Y-3.175
X2.925Y-3.175
X3.025Y-3.175
X3.125Y-3.175
X3.225Y-3.175
X3.325Y-3.175
X3.425Y-3.175
T2
G00X1.8125Y-3.6372
M15
G01X1.8401Y-3.6372
M16
G05
G00X1.8401Y-3.9128
M15
G01X1.8125Y-3.9128
M16
G05
T0
M30
